<svg xmlns="http://www.w3.org/2000/svg" xmlns:xlink="http://www.w3.org/1999/xlink" viewBox="0 0 382.41 334.71"><defs><style>.cls-1{isolation:isolate;}.cls-2{fill:#221f1f;stroke:#eee8d2;stroke-width:4px;}.cls-2,.cls-20,.cls-21,.cls-23{stroke-miterlimit:10;}.cls-3{fill:url(#linear-gradient);}.cls-4{fill:#ffda22;}.cls-5{fill:#f93a3a;}.cls-6{fill:url(#linear-gradient-2);}.cls-17,.cls-18,.cls-34,.cls-7{mix-blend-mode:multiply;}.cls-7{fill:url(#linear-gradient-3);}.cls-8{fill:#ba2025;}.cls-9{fill:#ffc10d;}.cls-10{fill:url(#linear-gradient-4);}.cls-11{fill:url(#linear-gradient-5);}.cls-12{fill:url(#linear-gradient-6);}.cls-13{fill:url(#linear-gradient-7);}.cls-14{fill:url(#linear-gradient-8);}.cls-15{fill:url(#linear-gradient-9);}.cls-16{fill:url(#linear-gradient-10);}.cls-17{fill:url(#linear-gradient-11);}.cls-18{fill:url(#linear-gradient-12);}.cls-19{fill:url(#linear-gradient-13);}.cls-20{fill:#895800;stroke:#473300;}.cls-21,.cls-31{fill:#e476ff;}.cls-21{stroke:#47201f;}.cls-22{fill:#9d13bf;}.cls-23,.cls-25{fill:#ece5e3;}.cls-23{stroke:#5f4d45;}.cls-24{fill:#0b1e34;}.cls-26{fill:#83381b;}.cls-27{fill:#550f0e;}.cls-28{fill:#440a0a;}.cls-29{fill:#e95f5e;}.cls-30{fill:#f27373;}.cls-32{fill:#fdbd2c;}.cls-33{fill:url(#linear-gradient-14);}.cls-34{fill:url(#linear-gradient-15);}</style><linearGradient id="linear-gradient" x1="9343.59" y1="-12229.34" x2="9500.91" y2="-12229.34" gradientTransform="matrix(-0.52, -0.12, -0.61, 0.22, -2454.9, 3926.74)" gradientUnits="userSpaceOnUse"><stop offset="0.01" stop-color="#e68625"/><stop offset="1" stop-color="#f9a748"/></linearGradient><linearGradient id="linear-gradient-2" x1="9343.59" y1="-12229.34" x2="9500.91" y2="-12229.34" gradientTransform="matrix(-0.52, -0.12, -0.61, 0.22, -2454.9, 3926.74)" gradientUnits="userSpaceOnUse"><stop offset="0.01" stop-color="#1f0c0d"/><stop offset="1" stop-color="#565759"/></linearGradient><linearGradient id="linear-gradient-3" x1="9355.3" y1="-12322.36" x2="9501.98" y2="-12322.36" xlink:href="#linear-gradient"/><linearGradient id="linear-gradient-4" x1="236.64" y1="293.26" x2="231.11" y2="291.47" gradientTransform="translate(29.35 -104.8) rotate(-5.96)" xlink:href="#linear-gradient"/><linearGradient id="linear-gradient-5" x1="200.86" y1="301.51" x2="185.69" y2="296.59" gradientTransform="translate(29.35 -104.8) rotate(-5.96)" xlink:href="#linear-gradient"/><linearGradient id="linear-gradient-6" x1="175.81" y1="310.91" x2="160.63" y2="305.98" gradientTransform="translate(29.35 -104.8) rotate(-5.96)" xlink:href="#linear-gradient"/><linearGradient id="linear-gradient-7" x1="158.36" y1="304.78" x2="150.63" y2="302.28" gradientTransform="translate(29.35 -104.8) rotate(-5.96)" xlink:href="#linear-gradient"/><linearGradient id="linear-gradient-8" x1="7491.7" y1="-9440.93" x2="7486.49" y2="-9442.62" gradientTransform="matrix(-0.7, -0.16, -0.81, 0.29, -2214.07, 4044.79)" xlink:href="#linear-gradient"/><linearGradient id="linear-gradient-9" x1="7511.35" y1="-9451.03" x2="7506.14" y2="-9452.72" gradientTransform="matrix(-0.7, -0.16, -0.81, 0.29, -2214.07, 4044.79)" xlink:href="#linear-gradient"/><linearGradient id="linear-gradient-10" x1="7533" y1="-9462.59" x2="7529.01" y2="-9463.88" gradientTransform="matrix(-0.7, -0.16, -0.81, 0.29, -2214.07, 4044.79)" xlink:href="#linear-gradient"/><linearGradient id="linear-gradient-11" x1="7581.17" y1="-9505.26" x2="7479.75" y2="-9538.18" gradientTransform="matrix(-0.7, -0.16, -0.81, 0.29, -2214.07, 4044.79)" xlink:href="#linear-gradient"/><linearGradient id="linear-gradient-12" x1="7589.63" y1="-9530.55" x2="7487.77" y2="-9563.62" gradientTransform="matrix(-0.7, -0.16, -0.81, 0.29, -2214.07, 4044.79)" xlink:href="#linear-gradient"/><linearGradient id="linear-gradient-13" x1="91.57" y1="307.83" x2="87.25" y2="306.43" gradientTransform="translate(29.35 -104.8) rotate(-5.96)" xlink:href="#linear-gradient"/><linearGradient id="linear-gradient-14" x1="13952.97" y1="-8550.75" x2="14181.1" y2="-8550.75" gradientTransform="matrix(-0.45, -0.23, -0.68, 0.18, 677.87, 5011.41)" xlink:href="#linear-gradient"/><linearGradient id="linear-gradient-15" x1="11082.54" y1="-6746.13" x2="10959.43" y2="-6786.1" gradientTransform="matrix(-0.61, -0.31, -0.9, 0.24, 861.05, 5200.5)" xlink:href="#linear-gradient"/></defs><g class="cls-1"><g id="Layer_1" data-name="Layer 1"><g id="Butterfly_03"><path class="cls-2" d="M168.11,142c12.06-3.4,30.47-4.93,38.51-5.8,10.67-1.15,21.31-2.22,31.7-3.14,25.73-2.25,50.68-3.61,72.38-3.1,16.49.38,33,1.52,40.94,5.8,3,1.6,4.13,3.86,1.56,6.82-3.14,3.61-12,7.57-20.91,10.87-11.62,4.28-24.9,8-37.38,11.67a265.42,265.42,0,0,0-41.76,17c-18.12,9.52-45.41,14.1-58.33,10.77-7.08-1.82-12-13.28-14.65-16.57-3-3.76-6.42-7.4-9.12-11.24s-4.84-7.79-8.76-11.28c-2.25-2-8.71-4.81-2-8.73A34.89,34.89,0,0,1,168.11,142Z"/><path class="cls-3" d="M147.32,150.66a110.09,110.09,0,0,0-11.7,6c-7.14,4.11-12.82,8.22-18.59,12.29-11.16,7.87-19.66,15.83-25.66,23.15a42.39,42.39,0,0,0-6.53,10.49c-1.24,3-2.11,6.11-.93,8.59s5.57,4.09,15.6,2.34c8.33-1.46,17-4.61,24.16-7.43a291.17,291.17,0,0,0,34.18-16.14c5.21-2.9,10-5.89,13-8.69s3.65-5.14,3.68-7.36c.06-5-3.76-9.18-7-13.32-1.58-2-3.23-4.06-4.85-6.09-.83-1-1.71-2.06-2.47-3.11-.63-.87-.7-2-2.48-2.51C155.49,148.24,151.12,149,147.32,150.66Z"/><path class="cls-4" d="M203.23,151.34a51.37,51.37,0,0,1-10.15-2,88.18,88.18,0,0,0-14.12-3l-.8-.08c4.43-.15,8.88-.31,13.14-.34,6.33,0,12.65-.11,18.68,0,3.31.08,6.54.23,9.85.32C219.82,149.16,209,151.77,203.23,151.34Z"/><path class="cls-5" d="M311.81,144.16c1.77.64,5.42,3.21-1.54,5.12-5.84,1.61-11.46-.19-13.82-.8-4-1.06-7.09-2.49-11.26-3.49a145.56,145.56,0,0,0-37.85-3.88,1.31,1.31,0,0,0-.27-1c-.62-.81-2.09-1.21-3.85-1.5,1.68.28,5.63-.09,7.9-.11,2.64,0,5.26,0,7.82,0q8,.09,15.38.52a226,226,0,0,1,26.54,3c3.72.66,8,1.08,10.92,2.1Z"/><path class="cls-5" d="M298.06,150.25c1.24,2.1-2.94,5.78-11.37,8.42-12.83,4-18.19,1.08-21.51-1-5.08-3.14-9.68-6.17-18.1-8.1a157.24,157.24,0,0,0-18.69-3.22c4.91-.2,11.6-.89,16.35-3a6.6,6.6,0,0,0,1.94-1.19c21.83-.34,35.16,3.63,48.63,7.31C296,149.7,296.92,150,298.06,150.25Z"/><path class="cls-5" d="M245.6,165.8s0-.08,0-.12-.32-.13-.64-.09a29.44,29.44,0,0,1-6.23-2.88c-7.78-4.57-16.88-8.55-30.84-10.63a37.84,37.84,0,0,0,5.81-1.17c4.57-1.3,7.48-2.69,8.63-4,5.22.43,9.9,1.15,14.36,1.91,5.81,1,11.48,2.11,15.77,3.73,3.89,1.46,6.4,3.38,9.24,5.21,2,1.3,4,2.94,7.94,3.58l0,0a35,35,0,0,1-11.27,5,24.82,24.82,0,0,1-8.57.36A29.37,29.37,0,0,1,245.6,165.8Z"/><path class="cls-5" d="M220.8,176.39c-8,.46-11.7-1.32-14.48-3.15-4-2.62-6.6-5.64-10.13-8.39a31.22,31.22,0,0,0-5.68-3.65c-.91-.44-2-.83-3-1.22.69-.17,1.42-.38,2.18-.62,5.78-1.84,10.89-4.37,13.23-6.56,10.21,1.27,18.43,3.49,24.76,6.36,4.4,2,7.33,4.49,11.88,6.43.94.4,2,.85,3.21,1.24C243.9,169.93,231.52,175.78,220.8,176.39Z"/><path class="cls-4" d="M166.55,146.58c6.12.5,12.36.91,17.22,2s8.69,2.6,14.2,3.37c.94.14,2,.25,3.2.31-2.15,2.3-10,6.1-15.71,7.2a41.44,41.44,0,0,0-8-6.58,40.39,40.39,0,0,0-7.36-3.71,25.09,25.09,0,0,1-4.4-2,9.48,9.48,0,0,1-.89-.63Z"/><path class="cls-6" d="M147.32,150.66a110.09,110.09,0,0,0-11.7,6c-7.14,4.11-12.82,8.22-18.59,12.29-11.16,7.87-19.66,15.83-25.66,23.15a42.39,42.39,0,0,0-6.53,10.49c-1.24,3-2.11,6.11-.93,8.59s5.57,4.09,15.6,2.34c8.33-1.46,17-4.61,24.16-7.43a291.17,291.17,0,0,0,34.18-16.14c5.21-2.9,10-5.89,13-8.69s3.65-5.14,3.68-7.36c.06-5-3.76-9.18-7-13.32-1.58-2-3.23-4.06-4.85-6.09-.83-1-1.71-2.06-2.47-3.11-.63-.87-.7-2-2.48-2.51C155.49,148.24,151.12,149,147.32,150.66Z"/><path class="cls-5" d="M148.42,185.34v-.2l0,0a7.08,7.08,0,0,1,.68-3c1.1-2.88,3.05-5.93,4.26-8.83a40.2,40.2,0,0,0,3.37-13.56,16.26,16.26,0,0,0-.45-6.17,32.23,32.23,0,0,0-2.44-4.74,10.44,10.44,0,0,1,3.92.06c1.78.5,1.85,1.64,2.48,2.51.76,1,1.64,2.08,2.47,3.11,1.62,2,3.27,4.05,4.85,6.09l1.49,1.9c.25,1.46,1.86,2.62,2.06,4.08.31,2.26-.49,4.71-1.3,7.22a14.24,14.24,0,0,1-4.3,6.48,28.41,28.41,0,0,1-11.65,6.15C149.93,187.44,148.67,186.58,148.42,185.34Z"/><path class="cls-5" d="M152.88,149c1.23,2.27,2.6,4.49,2.82,7a29.6,29.6,0,0,1-.45,8.34,53.44,53.44,0,0,1-5.83,15.24c-1.08,2-2.36,4.18-1.85,5.85h0c.2,1.9-1.48,4.33-3.73,6.68a30,30,0,0,1-12.1,7.8,30.61,30.61,0,0,1-8,1.91c-2,.08-2.83-.44-3.08-1.07-.5-1.25.28-2.83,1.39-4.44l.45-.33c.17-.12.08-.17-.09-.17l.56-.76c2.51-3.28,6-6.71,9-10.07,3.46-3.82,6.71-7.61,9.47-11.33.48-.53.94-1.06,1.36-1.58.07-.08,0-.11-.15-.1.53-.74,1-1.49,1.52-2.23a55.79,55.79,0,0,0,5.64-11l.36-.61s0-.08-.11-.09a35.32,35.32,0,0,0,1.05-3.49,12.55,12.55,0,0,0,.11-4,9.38,9.38,0,0,1,0-1.3C151.78,149.18,152.33,149.06,152.88,149Z"/><path class="cls-5" d="M142.24,168A37.3,37.3,0,0,1,130,177.36a31.77,31.77,0,0,1-9.44,2.93c-4.93.61-6-.92-6.21-2.24-.53-3.1,1.89-7.08,5.26-10.92l.07-.08c4.89-3.45,9.87-6.93,15.91-10.4a110.09,110.09,0,0,1,11.7-6,26.84,26.84,0,0,1,3.07-1.11,22.66,22.66,0,0,0,.16,3.1,13.66,13.66,0,0,1-1.15,5.09c-.13.39-.28.77-.42,1.15A51,51,0,0,1,142.24,168Z"/><path class="cls-4" d="M139.74,174.75a61.39,61.39,0,0,1-12.28,10c-4.42,2.74-12.52,6.71-19.91,6.75-4.77,0-5.56-1.85-5.55-3.51s.9-3.62,2.27-5.62a94.86,94.86,0,0,1,9.21-10.84q1.74-1.29,3.55-2.58l.91-.64a21.67,21.67,0,0,0-4.13,7.19c-.6,2-1.7,6.11,6.18,5.15a35.52,35.52,0,0,0,15.16-5.81,43.18,43.18,0,0,0,10.08-9.41c.85-1.06,1.62-2.11,2.34-3.15-.28.62-.57,1.24-.88,1.86a67.06,67.06,0,0,1-6.05,9.66Q140.2,174.27,139.74,174.75Z"/><path class="cls-5" d="M98.91,205.63c.24-.11.15-.2,0-.21a3,3,0,0,1,.13-.71,13.8,13.8,0,0,1,2.83-4.56,52,52,0,0,1,9.28-8.59c.07-.06.09-.1.07-.13a41.85,41.85,0,0,0,8.43-2.36,53.54,53.54,0,0,0,15-9q2-1.63,3.73-3.26c-.29.37-.58.74-.89,1.11-3.6,4.4-7.91,8.88-11.92,13.33a49,49,0,0,0-4.24,5.16c-3.44,2.71-13,12.07-20.24,10.9-1.6-.25-2.12-.89-2.17-1.64Z"/><path class="cls-5" d="M97.9,205.73c-3.69,1.61-5.16.45-5.7-.33a5.39,5.39,0,0,1-.81-3.7c.17-1.73,1.71-3.76,3.23-5.74,2.13-2.76,4.59-5.58,6.38-8.29a3.13,3.13,0,0,0,1.5,3.2c1.31.87,3.78,1.3,8,.68h0a49.11,49.11,0,0,0-10.11,9.57C99.28,202.54,97.87,204.35,97.9,205.73Z"/><path class="cls-7" d="M167.88,161c0,.11.07.22.1.33a2.28,2.28,0,0,1,0,1.72c-.08.16-1.43,2-2.31,2-2.75.18-3.9-.59-4.6-1.28a5.51,5.51,0,0,1-1.53-2.92c-.44-2-.21-4.22-1.26-6.11-1.14-2.07-2.93-4-4.13-6a9.84,9.84,0,0,1,3.62.09c1.78.5,1.85,1.64,2.48,2.51.76,1,1.64,2.08,2.47,3.11,1.62,2,3.27,4.05,4.85,6.09Z"/><path class="cls-8" d="M337.39,141.87c2-1,4.93-1.91,6.95-1.67,1.55.19,1.76,1,1.26,1.8a7.91,7.91,0,0,1-2.06,1.53c-2.78,1.5-6.58,1.95-8,1.22C334.39,144.18,335.08,143,337.39,141.87Z"/><path class="cls-9" d="M312.09,154.33c-.6,1.18,3,1.32,6.4.23.4-.12.75-.25,1.09-.38a.93.93,0,0,0,.63-.12c3.15-1.5,4-3.48-.6-2.89C316.14,151.62,312.7,153.17,312.09,154.33Z"/><path class="cls-10" d="M289.3,162.07c-.5.73,1.05,1.19,3.46.56,1.61-.43,2.33-.95,2.51-1.39.47-.43-.11-.73-1.25-.67C292.4,160.68,289.82,161.32,289.3,162.07Z"/><path class="cls-11" d="M246.76,172.07c-3.9,2-3.59,3.93.89,3.84,4.82-.1,10.85-2.09,12.91-4.19,1-1,.9-2.12-1-2.33C257.24,168.66,250.67,170,246.76,172.07Z"/><path class="cls-12" d="M222.82,184c-3.91,2-3.6,3.93.88,3.84,4.82-.09,10.85-2.08,12.91-4.19,1-1,.9-2.12-1-2.33C233.29,180.6,226.72,182,222.82,184Z"/><path class="cls-13" d="M210.38,182.6c1.2.59,4.86,0,7.08-1.19.87-.45,1.31-.88,1.26-1.18.79-.84-.8-1.23-3.5-.6C212.32,180.32,209.16,182,210.38,182.6Z"/><path class="cls-14" d="M198.27,178c3.31-.94,4.37.09,2.84,1.09a6.48,6.48,0,0,1-1.68.7c-.18.06-.37.13-.59.19a7.27,7.27,0,0,1-2.68.19c-.74-.09-1.14-.35-.92-.75S196.94,178.35,198.27,178Z"/><path class="cls-15" d="M192.74,172c3.31-.94,4.37.08,2.84,1.09a6.48,6.48,0,0,1-1.68.7c-.18.06-.36.13-.58.19a7.33,7.33,0,0,1-2.69.19c-.74-.1-1.14-.36-.92-.75S191.41,172.39,192.74,172Z"/><path class="cls-16" d="M186.5,165.5c2.54-.72,3.35.06,2.18.83a5.06,5.06,0,0,1-1.29.54,4,4,0,0,1-.45.14,5.49,5.49,0,0,1-2.05.15c-.57-.07-.88-.27-.71-.58A5.13,5.13,0,0,1,186.5,165.5Z"/><path class="cls-5" d="M207.63,138.23l.72,0c3.27-.18,6.31-.18,9.52-.31l9.5-.39c6.58-.27,13.14-.51,19.55-.65,12.82-.29,25-.18,35.94.63,11.11.82,20.85,2.32,31.92,3.16,2.51.19,5,.44,7.8.45a24.75,24.75,0,0,0,8.58-1.12c4.15-1.54,2.45-3.06,1.58-3.82-1.81-1.59-5.15-2.63-9.55-3.23-9.42-1.27-21.83-.91-34.52-.27-12.86.65-25.94,1.47-38.72,2.06-11.23.53-22.63,1.1-34.7,2.26-1.38.06-2.84.23-4.19.29a14.72,14.72,0,0,0-3,.39C207.28,137.82,207,138.28,207.63,138.23Z"/><path class="cls-17" d="M208.2,146.59c.66.69-1.24,2.08-4.34,2.38a32.78,32.78,0,0,1-7.25-.19c-5.88-.66-10.8-1.76-16.46-2.52,3.76-.12,7.53-.24,11.15-.27,5.11,0,10.21-.07,15.16,0A3.93,3.93,0,0,1,208.2,146.59Z"/><path class="cls-18" d="M251,141.08c-1.2,0-2.41,0-3.65,0,0-.05,0-.09,0-.13C248.56,141,249.78,141,251,141.08Z"/><path class="cls-4" d="M166.55,146.58c6.12.5,12.36.91,17.22,2,1.19.28,2.32.58,3.45.89,1.23.71,2.56,1.39,2.78,2.39.15.71-.23,1.78-3.17,2.69a17,17,0,0,1-5,.78l-.93,0a38.88,38.88,0,0,0-3.45-2.43,40.39,40.39,0,0,0-7.36-3.71,25.09,25.09,0,0,1-4.4-2,9.48,9.48,0,0,1-.89-.63Z"/><path class="cls-4" d="M221.42,140.91c1.37.71-.18,2.42-4.69,3.12a57.18,57.18,0,0,1-7.65.6c-6.88.16-13.53.15-20.44.32s-13.77.37-20.66.56c-1-.08-1.94-.15-2.88-.24,1.59.14,7.51-1,9.84-1.25q5-.61,9.93-1.18c6.69-.77,13.31-1.46,19.81-2.05,3.41-.31,6.84-.62,10.23-.9C217.74,140,220.2,140.27,221.42,140.91Z"/><path class="cls-9" d="M92,210.27c-1.38.72-1.28,1.38.29,1.35a8,8,0,0,0,4.55-1.48c.37-.37.33-.75-.32-.82C95.66,209.06,93.35,209.55,92,210.27Z"/><path class="cls-8" d="M108.78,206.59c-2.56,1.33-2.39,2.57.53,2.51,3.14-.07,7.09-1.38,8.46-2.75.68-.68.61-1.39-.59-1.53C115.65,204.35,111.35,205.26,108.78,206.59Z"/><path class="cls-19" d="M148.5,191.25c-1.12.58-1,1.12.23,1.09a6.54,6.54,0,0,0,3.69-1.2c.29-.29.26-.6-.26-.66A6.88,6.88,0,0,0,148.5,191.25Z"/><path class="cls-20" d="M175.17,154.06s.1-4,3.57-3,9,21.59,9,21.59l12.75,1.42a13.41,13.41,0,0,1,7.86,7.57c4.11,10.25.19,9-7.3-1.31-.4-.55-1.79,3.81-2.21,3.2s.25-6-.12-6.53l-11.29,1.21a3.32,3.32,0,0,1-3.42-2.06Z"/><path class="cls-20" d="M145.68,198.37l.09,0c1.86-.87,8.61-.86,12.86.29,0,0-4.1-10.52-6.2-15.14-.23-.49,3.44-2.74,3.44-2.74s6.06,18.59,3.66,19.24c-1.55.43-10.55-.67-10.55-.67,4.9,4.14,10.27,12,9.85,15.84C156.53,218.62,147.86,205.56,145.68,198.37Z"/><path class="cls-21" d="M168.35,168.58q-1.24,3-2.68,5.79a59.47,59.47,0,0,1-15,18.67,56.51,56.51,0,0,1-9.07,6.07,58,58,0,0,1-20.72,6.56,50.81,50.81,0,0,1-12.21,0c-7.13-.92-12.87-3.47-15.81-7.09-3.47-4.29-3-10.06,3.63-16.41q1.83-1.72,3.78-3.37c1.92-1.62,3.93-3.17,6-4.65a134.94,134.94,0,0,1,20.85-12c2.56-1.21,5.12-2.34,7.63-3.39a213,213,0,0,1,37.49-11.64C188.63,149.27,168.35,168.58,168.35,168.58Z"/><path class="cls-22" d="M156.63,155.31c2,11,6.6,15.8,6,21.18-.74,6.06-8.37,13.29-11.78,16.08a67.28,67.28,0,0,1-10,6.44,51.93,51.93,0,0,1-19.58,6.28,54.3,54.3,0,0,1-12.65.12c-7.14-.92-12.75-3.92-15.68-7.55h1.5c29.61-.93,62.65-12.17,55.75-24.16-13.86-24.11,1.08-22,1.08-22Z"/><path class="cls-21" d="M197,127.16a211.09,211.09,0,0,0-2.67,21c-1.05,10.65-2.33,19.5-8.69,26.49-12.2,13.37-22.36,11.2-30.46,5.58-12.46-8.67-9.29-23.83-9.29-23.83a3.2,3.2,0,0,1,.27-1.24h0c2-5.07,14.8-16.57,21.83-14.39,14.53,4.51,17.94-25.91,17.94-25.91C190.56,108.07,197,127.16,197,127.16Z"/><path class="cls-22" d="M194.3,148.12c-1.05,10.65-2.33,19.5-8.69,26.49-12.2,13.37-22.36,11.2-30.46,5.58-12.46-8.67-8.47-23.74-8.47-23.74s-.65,9.33,21,11.4c0,0,14.71,1.13,20.64-9.5l1.07-14Z"/><path class="cls-22" d="M192.12,161.21s-23.43-.32-29.69-20.46L171.88,129l21.05,20.41"/><path class="cls-21" d="M223.75,136.32s6-33.94-24.39-35.54c-7.49-.39-30.36.79-31.58,30.95-1.61,3.51-8.1,19.23,26.11,26.38,1.58,1.32,8.22,7.12,12.38.1C207.26,158.2,230.32,156.81,223.75,136.32Z"/><path class="cls-23" d="M216.85,121.83l.2,0c2.4.44,3.63,5.35,2.73,10.94s-3.6,9.79-6,9.35-3.87-5.62-3-11.07C211.64,125.88,214.41,121.64,216.85,121.83Z"/><path class="cls-24" d="M212.66,131.66c-.26,2.52.88,4.68,2.28,4.91s2.5-1.6,2.77-4.12-.64-4.74-2-5S212.92,129.14,212.66,131.66Z"/><ellipse class="cls-25" cx="217.14" cy="128.98" rx="1.57" ry="1.04" transform="translate(71.97 335.65) rotate(-85.63)"/><path class="cls-26" d="M206,159.14a15.07,15.07,0,0,0,1.25-3.07,31.13,31.13,0,0,1-1.6,2.72Z"/><path class="cls-26" d="M194.33,158.81l.31-.41c-2.07-2-4.49-3.88-4.49-3.88S192.25,156.82,194.33,158.81Z"/><path class="cls-27" d="M198.37,110.1s-5.62-7.22-10.13,2.56A9.56,9.56,0,0,1,198.37,110.1Z"/><path class="cls-27" d="M213.08,113.18s7.72-4.42,8.49,6.46A10.16,10.16,0,0,0,213.08,113.18Z"/><path class="cls-26" d="M216.6,144.75a4.45,4.45,0,0,0,2.52-.65,4.07,4.07,0,0,1-4.52-1l-.34.37A3.33,3.33,0,0,0,216.6,144.75Z"/><path class="cls-28" d="M212.25,147.39a22.2,22.2,0,0,0-8.61,9c-1.47,2.78-5,3.22-7.55-3.42a50.51,50.51,0,0,1-3-13.25Z"/><path class="cls-29" d="M203.42,156.79c-1.59,2.42-4.88,2.52-7.33-3.8l-.11-.27C200.81,149.93,203.28,154.93,203.42,156.79Z"/><path class="cls-30" d="M201.06,152.68a6.42,6.42,0,0,1,2.36,4.11c-1.13,1.72-3.11,2.26-5,.18C198.4,155,199.36,152.55,201.06,152.68Z"/><path class="cls-26" d="M200.74,158.58h0a3.36,3.36,0,0,0,3.11-2,22.12,22.12,0,0,1,8.49-8.91l.54-.27-20.08-8,0,.41a51.79,51.79,0,0,0,3,13.33C197.19,156.49,198.92,158.44,200.74,158.58Zm10.91-11.15a23.22,23.22,0,0,0-8.21,8.85,2.86,2.86,0,0,1-2.66,1.77h0c-.95-.07-2.8-.84-4.47-5.17a51.1,51.1,0,0,1-3-12.74Z"/><path class="cls-31" d="M201.85,126.25,217,117.92s-5.22,7.68-3.52,20.34c.72,5.32,3.17,9.8-3,10.86-13,2.22-17.5-8.27-17.5-8.27Z"/><path class="cls-26" d="M205.62,149.64a19.86,19.86,0,0,0,4.89-.26c1.89-.32,3.12-1,3.75-2,1-1.56.51-3.7,0-6.18-.2-.95-.4-1.94-.53-3-1.67-12.38,3.32-19.86,3.37-19.94a7.13,7.13,0,0,0-2,3,33.78,33.78,0,0,0-1.83,17c.14,1,.34,2,.54,3,.48,2.35.89,4.39.06,5.75-.55.91-1.67,1.5-3.42,1.8-12.69,2.18-17.21-8-17.25-8.12l-.43.24a15.48,15.48,0,0,0,12.85,8.67Z"/><path class="cls-31" d="M195,139.8l-.05,0,.05,0Z"/><path class="cls-31" d="M189.32,136.77l5.65,3c-.41.36-3.56,2.86-8.25.08Z"/><path class="cls-26" d="M195,139.74l-.08.06-.24.15a3.75,3.75,0,0,1-.37.21l-.5.24-.29.11a2,2,0,0,1-.32.11,6.11,6.11,0,0,1-.68.18c-.24.06-.49.07-.75.11s-.51,0-.77,0-.51,0-.77-.05-.5-.07-.74-.13l-.69-.16-.61-.2-.27-.09-.24-.1-.4-.15-.35-.13.31.22.36.25.23.15.26.13c.18.09.38.2.6.3l.7.24a2.62,2.62,0,0,0,.38.09l.4.08a7.34,7.34,0,0,0,.82.08c.27,0,.55,0,.82,0a6.5,6.5,0,0,0,.79-.17c.12,0,.25-.06.37-.11l.34-.14a4.38,4.38,0,0,0,.61-.33l.25-.16.23-.17c.14-.11.24-.22.34-.3A2.24,2.24,0,0,0,195,139.74Z"/><path class="cls-23" d="M186.67,124.77c-.93,5.75,1,11,4,11.53s6.12-3.68,7.05-9.43S197,116,194,115.48,187.59,119,186.67,124.77Z"/><path class="cls-24" d="M190.2,133.84c1.66.13,3.19-2.16,3.41-5.09s-.94-5.42-2.6-5.54-3.18,2.15-3.41,5.08S188.54,133.71,190.2,133.84Z"/><ellipse class="cls-25" cx="192.33" cy="125.89" rx="1.57" ry="1.04" transform="translate(52.15 308.06) rotate(-85.63)"/><path class="cls-20" d="M214.07,107.39c-.24.41-1.44.15-1.4-.85s7.8-13.39,23.86-14.38c5.59-.34,12,2.34,14.89,5.78,1.45,1.73,2,4,.77,5.64-2.84,3.8-7.63-7.59-16.62-8.15C225.66,94.82,217.28,101.88,214.07,107.39Z"/><path class="cls-32" d="M251.14,101.05s-4.51-10.82-18.2-7.38C232.77,93.74,242.27,91.49,251.14,101.05Z"/><path class="cls-20" d="M196.44,103.91a.87.87,0,0,1-1.6,0c-.4-.89,1-15.85,14.74-25.52,4.78-3.37,11.59-4.58,15.63-3.2,2,.7,3.51,2.37,3.14,4.45-.84,4.84-10-2.37-18.19,2.1C201.17,86.69,196.86,97.38,196.44,103.91Z"/><path class="cls-32" d="M227.84,78.57s-8.17-7.63-19.42,1.92C208.3,80.63,216.15,74.13,227.84,78.57Z"/><path class="cls-20" d="M142.64,177.58c-1-1.62-2.54-.56-2.43,1.54.11,2.35,3.27,12.59,7.54,27.28-3-.22-13.25-1.45-17.17,1-2.37,1.46-2,6.06-.33,9.75s6.55,11.52,9.08,11,3.61-9.3-5.82-20.26c9.29-.12,15.19,1.38,15.57,0C151,200.94,144.16,180.08,142.64,177.58Z"/><path class="cls-20" d="M165.1,163.3s.1-4,3.57-3,9,21.6,9,21.6l12.74,1.42s4.45-.18,5.24.21c.17.08-2,1.54-1.79,1.64.48.27-.58-.42,0,0a13.31,13.31,0,0,1,4.42,5.72c4.51,11.27-.66,8.66-9.63-4.65l-11.29,1.21a3.31,3.31,0,0,1-3.43-2.06Z"/><path class="cls-2" d="M163.32,145.39c12.92-2.7,31.68-.51,39.93.1,10.94.81,21.83,1.75,32.43,2.91,26.25,2.87,51.48,7.07,73,13.65,16.33,5,32.49,11.32,39.26,20.79,2.54,3.55,3.1,7.75-.26,12.2-4.08,5.41-13.93,9.94-23.72,13.28-12.73,4.36-27,7.34-40.37,10.36C268.8,222,248.72,230.59,237.44,237c-20.6,11.7-49,12.44-61,3.29-6.57-5-8.45-26.11-10.2-32.49-2-7.28-4.43-14.47-6.1-21.82s-2.76-14.73-5.73-21.8c-1.72-4.06-7.41-10.61.34-15.6A25.93,25.93,0,0,1,163.32,145.39Z"/><path class="cls-33" d="M140.3,154.87A94.35,94.35,0,0,0,127,162.14c-8.21,5.23-15,10.85-21.79,16.37a171.59,171.59,0,0,0-31.73,33.26,84,84,0,0,0-9.3,16.41c-2,4.91-3.73,10-3.2,14.6s4.45,8.54,14.93,8.14c8.68-.32,18.2-3.49,26.05-6.49a236.14,236.14,0,0,0,38.35-18.9c6-3.65,11.54-7.55,15.24-11.62a21.8,21.8,0,0,0,5.62-11.75c1.39-8.67-1.31-16.85-3.4-24.86-1-3.94-2.15-7.85-3.22-11.78-.55-2-1.15-4-1.64-6-.39-1.66-.15-3.65-1.8-5C149.09,152.84,144.52,153,140.3,154.87Z"/><path class="cls-4" d="M195.85,170.74a38.12,38.12,0,0,1-9.6-6.05c-4-3.11-7.89-6.34-13.28-8.85l-.78-.35c4.45.91,8.94,1.81,13.19,2.88,6.32,1.59,12.64,3.14,18.6,5,3.29,1,6.46,2.12,9.74,3.15C213,171.33,201.52,173,195.85,170.74Z"/><path class="cls-5" d="M306,186.87c1.6,1.57,4.55,7-2.9,8.45-6.24,1.24-11.37-3.34-13.56-5-3.74-2.88-6.4-6.17-10.3-9a97.67,97.67,0,0,0-36.69-16.66,3.77,3.77,0,0,0,0-1.74c-.4-1.57-1.76-2.64-3.43-3.6,1.6.91,5.64,1.32,7.89,1.89,2.64.67,5.25,1.36,7.8,2.09,5.28,1.52,10.36,3.16,15.19,4.94a153.24,153.24,0,0,1,25.67,12.12c3.53,2.11,7.71,4,10.32,6.49Z"/><path class="cls-5" d="M290.67,193.79c.68,4-4.47,9.22-13.58,11.56-13.85,3.56-18.41-2.92-21.18-7.35-4.22-6.76-8-13.21-15.89-18.75a113.79,113.79,0,0,0-17.77-10.49c4.95,1,11.8,1.52,17.09-.84a7,7,0,0,0,2.25-1.54c21.85,5.13,34.09,15.5,46.53,25.41C288.73,192.28,289.6,193,290.67,193.79Z"/><path class="cls-5" d="M234.25,206.88a1.8,1.8,0,0,1,0-.22c0-.21-.29-.31-.61-.33a32.1,32.1,0,0,1-5.44-6.61c-6.54-9.94-14.56-19.22-27.92-26.49a23.06,23.06,0,0,0,6.1-.49c4.9-1,8.17-2.69,9.67-4.69a110,110,0,0,1,13.81,7.08c5.53,3.23,10.88,6.66,14.73,10.58,3.49,3.55,5.48,7.53,7.83,11.43,1.68,2.79,3.2,6.14,7,8.28l0,0c-2.88,2-7.54,5.18-12.56,5.63a15.07,15.07,0,0,1-8.63-1.62A22.26,22.26,0,0,1,234.25,206.88Z"/><path class="cls-5" d="M206.71,218.65c-8.09-1.3-11.32-5.35-13.6-9.25-3.26-5.56-5.08-11.48-7.87-17.16a42.83,42.83,0,0,0-4.69-7.8,36.09,36.09,0,0,0-2.68-2.9,23.53,23.53,0,0,0,2.34-.5c6.25-1.65,12-4.69,14.94-7.86a70.53,70.53,0,0,1,23,17.49c3.86,4.61,6.12,9.69,10.13,14.24a37.37,37.37,0,0,0,2.87,3C231.45,213.55,217.55,220.41,206.71,218.65Z"/><path class="cls-4" d="M160.55,152.88c6,2.46,12.07,4.82,16.62,8.06s8,6.77,13.26,9.55a24,24,0,0,0,3.11,1.38c-2.76,3.4-11.62,7.9-17.58,8.31a67,67,0,0,0-6.24-13.48,47.15,47.15,0,0,0-6.35-8.35,26.84,26.84,0,0,1-3.85-4.61c-.26-.42-.51-.87-.73-1.32Z"/><path class="cls-4" d="M216.63,165.46c-3.16-1-6.14-2.12-9.24-3.11a254.64,254.64,0,0,0-25.13-6.52c-6.61-1.38-13.44-2.61-19.63-4.27-1.08-.44-2.13-.88-3.18-1.33,1.55.67,7.75.32,10.15.44,3.42.16,6.82.34,10.2.56,6.88.43,13.66,1,20.29,1.67,8.54.89,17.23,1.72,24.83,3.43,6.18,1.39,14.76,3.85,14.49,8-.18,2.73-3.7,4-8.71,3.79A54.52,54.52,0,0,1,216.63,165.46Z"/><path class="cls-2" d="M140.3,154.87c-4.94,2.14-6.46,3.38-11,5.56-7.51,3.59-17.42,10.4-24.26,15.92C91.81,187,81.44,200.7,73.52,211.77a84,84,0,0,0-9.3,16.41c-2,4.91-3.73,10-3.2,14.6s4.45,8.54,14.93,8.14c8.68-.32,18.2-3.49,26.05-6.49a236.14,236.14,0,0,0,38.35-18.9c6-3.65,11.54-7.55,15.24-11.62a21.8,21.8,0,0,0,5.62-11.75c1.39-8.67-1.31-16.85-3.4-24.86-1-3.94-2.15-7.85-3.22-11.78-.55-2-1.15-4-1.64-6-.39-1.66-.15-3.65-1.8-5C149.09,152.84,144.52,153,140.3,154.87Z"/><path class="cls-5" d="M132.18,215.1c0-.12,0-.24,0-.35a.11.11,0,0,0,0-.06,19,19,0,0,1,1.48-5c1.86-4.69,4.62-9.44,6.59-14.14a107.94,107.94,0,0,0,7-22.55,48.5,48.5,0,0,0,1.19-10.78,84,84,0,0,0-1.17-8.83,3.84,3.84,0,0,1,3,1c1.65,1.32,1.41,3.31,1.81,5,.48,2,2,4.2,2.54,6.21,1.07,3.93,2.19,7.84,3.22,11.78.32,1.23.65,2.46,1,3.69-.14,2.59,1.15,5,1,7.59-.29,4-1.74,8-3.22,12.14a27.53,27.53,0,0,1-6,10.07,25.26,25.26,0,0,1-13.25,7.56C133.13,219.13,132.09,217.31,132.18,215.1Z"/><path class="cls-5" d="M131.31,215c-.3,3.34-2.62,7.09-5.49,10.55s-7.14,8-14.14,10.31c-2.57.86-6.2,1.65-8.51,1.19-2-.4-2.71-1.52-2.79-2.67-.16-2.28,1-4.81,2.57-7.29.2-.18.38-.34.54-.46s.12-.28,0-.32l.76-1.16c3.37-5,7.76-10,11.69-15,4.46-5.69,8.71-11.4,12.46-17.1.61-.79,1.21-1.57,1.76-2.36.1-.13,0-.2-.12-.22.73-1.15,1.43-2.3,2.11-3.45a121.88,121.88,0,0,0,8.53-17.46l.53-1c0-.07,0-.13-.09-.18.73-1.93,1.39-3.84,2-5.76a37.26,37.26,0,0,0,1.16-6.79c.09-.75.18-1.5.33-2.25a13.81,13.81,0,0,1,1.76-.21c.63,4.25,1.4,8.45,1,12.91a87.47,87.47,0,0,1-2.67,14.28,130.27,130.27,0,0,1-9.86,24.81"/><path class="cls-5" d="M130.62,183.54c-3.38,4.23-7.52,9.31-14.65,12.94a21.73,21.73,0,0,1-10.19,2.58c-5.08-.26-5.72-3.17-5.59-5.5.29-5.5,3.76-11.75,8.14-17.5,0,0,1.31-1.09,1.34-1.13a210.76,210.76,0,0,1,19.26-13.36c4-2.54,7.94-3.85,12.87-6,1.12-.49.74-1.56,1.85-1.81-.34,1.82-.47,3.6-.67,5.4a37,37,0,0,1-2.49,8.49c-.24.63-.48,1.25-.73,1.88A91.06,91.06,0,0,1,130.62,183.54Z"/><path class="cls-4" d="M126.34,194.52a74.81,74.81,0,0,1-14.9,14c-5.13,3.57-14.26,8.31-21.63,6.43-4.76-1.22-5.06-4.66-4.61-7.53A25.33,25.33,0,0,1,89,198.35,151.82,151.82,0,0,1,101,182c1.37-1.18,2.78-2.36,4.22-3.52l1.07-.87a44.78,44.78,0,0,0-6,11.34c-1.15,3.38-3.32,10.11,4.79,10.53,6.68.34,12.74-3.08,16.65-6.07a58.23,58.23,0,0,0,12.55-13.61c1.13-1.6,2.18-3.21,3.17-4.82-.44,1-.9,2-1.37,3a132.9,132.9,0,0,1-8.6,15.11C127.12,193.57,126.74,194.05,126.34,194.52Z"/><path class="cls-5" d="M77.44,237.15c.26-.13.2-.31,0-.38a7.61,7.61,0,0,1,.32-1.2,27.16,27.16,0,0,1,4-7.12A70,70,0,0,1,93.33,216c.08-.07.11-.14.1-.19a27.9,27.9,0,0,0,9-1.87c7.7-2.91,13.17-7.68,17.33-11.63q2.44-2.31,4.59-4.65l-1.18,1.68c-4.76,6.65-10.25,13.27-15.43,19.9a82.9,82.9,0,0,0-5.6,7.81C98,230.85,86,244.51,79.1,240.6a3.18,3.18,0,0,1-1.72-3.42Z"/><path class="cls-5" d="M76.4,237.06c-4.11,1.81-5.26-.58-5.59-2.08a15.38,15.38,0,0,1,.18-6.6c.63-2.95,2.69-6,4.74-9.07,2.86-4.22,6.06-8.44,8.56-12.65a8,8,0,0,0,.64,5.93c1.08,1.85,3.43,3.24,7.79,3.26l0,0a67.88,67.88,0,0,0-12.61,13.88C78.62,231.9,76.74,234.67,76.4,237.06Z"/><path class="cls-8" d="M332.1,189.64c2.27-1.2,5.42-2,7.37-1,1.49.73,1.5,2.11.78,3.43a8.94,8.94,0,0,1-2.46,2.1c-3.17,1.88-7.08,1.65-8.32,0C328.5,192.85,329.49,191,332.1,189.64Z"/><path class="cls-9" d="M303.57,204.53c-.92,1.87,2.6,3.05,6.32,2.08a11.7,11.7,0,0,0,1.18-.37c.11.09.33.11.67-.05,3.54-1.76,4.93-5,.17-5.15C308.32,200.9,304.48,202.68,303.57,204.53Z"/><path class="cls-9" d="M278.8,211.91c-.7,1.12.73,2.33,3.3,1.87,1.71-.31,2.57-1,2.86-1.74.59-.62.09-1.29-1.06-1.47C282.25,210.31,279.51,210.76,278.8,211.91Z"/><path class="cls-9" d="M232,219.61c-4.43,2.48-4.63,5.85-.13,6.87,4.83,1.1,11.37-.75,14-3.84,1.29-1.52,1.46-3.44-.34-4.29C243.38,216.47,236.46,217.13,232,219.61Z"/><path class="cls-8" d="M257.76,215.39c-4.43,2.48-4.63,5.84-.13,6.87,4.82,1.1,11.36-.75,14-3.84,1.29-1.53,1.46-3.44-.34-4.29C269.11,212.25,262.19,212.91,257.76,215.39Z"/><path class="cls-9" d="M206.69,232.35c-4.43,2.48-4.63,5.85-.13,6.87,4.82,1.1,11.36-.75,14-3.84,1.29-1.52,1.46-3.44-.34-4.28C218,229.21,211.12,229.87,206.69,232.35Z"/><path class="cls-8" d="M194.67,226.66c1,1.32,4.85,1.2,7.37-.21,1-.55,1.54-1.18,1.58-1.71,1-1.25-.48-2.33-3.33-2C197.21,223.21,193.61,225.3,194.67,226.66Z"/><path class="cls-9" d="M183.83,215.46c3.55-.75,4.33,1.3,2.54,2.64a5,5,0,0,1-1.86.76,4.54,4.54,0,0,1-.64.17,4.41,4.41,0,0,1-2.72-.37c-.72-.36-1.05-.92-.72-1.54C180.84,216.34,182.4,215.76,183.83,215.46Z"/><path class="cls-9" d="M179.9,203.7c3.55-.75,4.33,1.3,2.54,2.64a4.82,4.82,0,0,1-1.86.76,3.61,3.61,0,0,1-.63.17,4.37,4.37,0,0,1-2.73-.36c-.71-.37-1-.92-.72-1.55C176.91,204.58,178.47,204,179.9,203.7Z"/><path class="cls-9" d="M175.41,190.81c2.72-.58,3.32,1,2,2a3.71,3.71,0,0,1-1.43.58,3.15,3.15,0,0,1-.49.14,3.37,3.37,0,0,1-2.08-.28c-.55-.29-.8-.71-.55-1.19S174.32,191,175.41,190.81Z"/><path class="cls-5" d="M203.72,149.25l.72.1c3.32.54,6.34,1.34,9.58,2s6.39,1.2,9.57,1.82c6.64,1.27,13.23,2.58,19.66,4a233.73,233.73,0,0,1,35.66,10.53c10.85,4.35,20.17,9.5,31,13.86a68.37,68.37,0,0,0,7.66,2.83c2.21.6,5.56,1.45,8.84.31,4.55-1.57,3.26-4.63,2.6-6.18-1.38-3.22-4.44-5.91-8.67-8.09-9-4.67-21.51-7.32-34.34-9.54-13-2.26-26.24-4.28-39.13-6.61-11.34-2.06-22.85-4.06-35.2-5.23-1.39-.25-2.89-.34-4.25-.6a8.68,8.68,0,0,0-3.13-.11C203.48,148.43,203.07,149.16,203.72,149.25Z"/><path class="cls-34" d="M246.18,165.56c-1.19-.32-2.4-.62-3.64-.91,0-.07,0-.15,0-.22C243.79,164.78,245,165.16,246.18,165.56Z"/><path class="cls-9" d="M69.28,243.34c-1.57.88-1.65,2.06-.08,2.41a5.72,5.72,0,0,0,4.94-1.36c.46-.54.53-1.21-.1-1.5C73.29,242.23,70.85,242.47,69.28,243.34Z"/><path class="cls-9" d="M87,241.41c-2.91,1.62-3.06,3.81-.14,4.47,3.15.7,7.44-.52,9.17-2.53.85-1,1-2.25-.19-2.79C94.46,239.33,89.94,239.78,87,241.41Z"/><path class="cls-9" d="M130.69,225.33c-1.27.71-1.34,1.66-.06,1.95a4.62,4.62,0,0,0,4-1.1c.37-.44.43-1-.08-1.22C133.93,224.43,132,224.62,130.69,225.33Z"/></g></g></g></svg>