<svg xmlns="http://www.w3.org/2000/svg" xmlns:xlink="http://www.w3.org/1999/xlink" viewBox="0 0 382.41 334.71"><defs><style>.cls-1{isolation:isolate;}.cls-2{fill:#221f1f;stroke:#eee8d2;stroke-width:4px;}.cls-2,.cls-20,.cls-21,.cls-23{stroke-miterlimit:10;}.cls-3{fill:url(#linear-gradient);}.cls-4{fill:#ffda22;}.cls-5{fill:#f93a3a;}.cls-6{fill:url(#linear-gradient-2);}.cls-17,.cls-18,.cls-34,.cls-7{mix-blend-mode:multiply;}.cls-7{fill:url(#linear-gradient-3);}.cls-8{fill:#ba2025;}.cls-9{fill:#ffc10d;}.cls-10{fill:url(#linear-gradient-4);}.cls-11{fill:url(#linear-gradient-5);}.cls-12{fill:url(#linear-gradient-6);}.cls-13{fill:url(#linear-gradient-7);}.cls-14{fill:url(#linear-gradient-8);}.cls-15{fill:url(#linear-gradient-9);}.cls-16{fill:url(#linear-gradient-10);}.cls-17{fill:url(#linear-gradient-11);}.cls-18{fill:url(#linear-gradient-12);}.cls-19{fill:url(#linear-gradient-13);}.cls-20{fill:#895800;stroke:#473300;}.cls-21,.cls-31{fill:#e476ff;}.cls-21{stroke:#47201f;}.cls-22{fill:#9d13bf;}.cls-23,.cls-25{fill:#ece5e3;}.cls-23{stroke:#5f4d45;}.cls-24{fill:#0b1e34;}.cls-26{fill:#83381b;}.cls-27{fill:#550f0e;}.cls-28{fill:#440a0a;}.cls-29{fill:#e95f5e;}.cls-30{fill:#f27373;}.cls-32{fill:#fdbd2c;}.cls-33{fill:url(#linear-gradient-14);}.cls-34{fill:url(#linear-gradient-15);}</style><linearGradient id="linear-gradient" x1="11269.57" y1="-15028.27" x2="11426.89" y2="-15028.27" gradientTransform="matrix(-0.25, -0.72, -0.72, 0.08, -7719.11, 9581.84)" gradientUnits="userSpaceOnUse"><stop offset="0.01" stop-color="#e68625"/><stop offset="1" stop-color="#f9a748"/></linearGradient><linearGradient id="linear-gradient-2" x1="11269.57" y1="-15028.27" x2="11426.89" y2="-15028.27" gradientTransform="matrix(-0.25, -0.72, -0.72, 0.08, -7719.11, 9581.84)" gradientUnits="userSpaceOnUse"><stop offset="0.01" stop-color="#1f0c0d"/><stop offset="1" stop-color="#565759"/></linearGradient><linearGradient id="linear-gradient-3" x1="11281.28" y1="-15121.29" x2="11427.96" y2="-15121.29" xlink:href="#linear-gradient"/><linearGradient id="linear-gradient-4" x1="471.97" y1="837.36" x2="466.13" y2="835.46" gradientTransform="matrix(0.9, -0.46, -0.47, -1.15, 261.72, 1416.52)" xlink:href="#linear-gradient"/><linearGradient id="linear-gradient-5" x1="439.33" y1="856.99" x2="422.69" y2="851.59" gradientTransform="matrix(0.9, -0.46, -0.47, -1.15, 261.72, 1416.52)" xlink:href="#linear-gradient"/><linearGradient id="linear-gradient-6" x1="405.19" y1="859.95" x2="388.56" y2="854.55" gradientTransform="matrix(0.9, -0.46, -0.47, -1.15, 261.72, 1416.52)" xlink:href="#linear-gradient"/><linearGradient id="linear-gradient-7" x1="402.68" y1="875.66" x2="393.97" y2="872.83" gradientTransform="matrix(0.9, -0.46, -0.47, -1.15, 261.72, 1416.52)" xlink:href="#linear-gradient"/><linearGradient id="linear-gradient-8" x1="8827.8" y1="-11561.01" x2="8822.59" y2="-11562.7" gradientTransform="matrix(-0.34, -0.97, -0.94, 0.11, -7711.83, 9984.17)" xlink:href="#linear-gradient"/><linearGradient id="linear-gradient-9" x1="8847.45" y1="-11571.11" x2="8842.24" y2="-11572.8" gradientTransform="matrix(-0.34, -0.97, -0.94, 0.11, -7711.83, 9984.17)" xlink:href="#linear-gradient"/><linearGradient id="linear-gradient-10" x1="8869.09" y1="-11582.67" x2="8865.1" y2="-11583.96" gradientTransform="matrix(-0.34, -0.97, -0.94, 0.11, -7711.83, 9984.17)" xlink:href="#linear-gradient"/><linearGradient id="linear-gradient-11" x1="8917.26" y1="-11625.34" x2="8815.84" y2="-11658.26" gradientTransform="matrix(-0.34, -0.97, -0.94, 0.11, -7711.83, 9984.17)" xlink:href="#linear-gradient"/><linearGradient id="linear-gradient-12" x1="8925.72" y1="-11650.63" x2="8823.86" y2="-11683.7" gradientTransform="matrix(-0.34, -0.97, -0.94, 0.11, -7711.83, 9984.17)" xlink:href="#linear-gradient"/><linearGradient id="linear-gradient-13" x1="353.85" y1="914.73" x2="349.1" y2="913.19" gradientTransform="matrix(0.9, -0.46, -0.47, -1.15, 261.72, 1416.52)" xlink:href="#linear-gradient"/><linearGradient id="linear-gradient-14" x1="15325.13" y1="-10438.92" x2="15553.26" y2="-10438.92" gradientTransform="matrix(-0.13, -0.69, -0.78, 0, -6074.1, 10932.84)" xlink:href="#linear-gradient"/><linearGradient id="linear-gradient-15" x1="12004.76" y1="-8176.34" x2="11881.65" y2="-8216.31" gradientTransform="matrix(-0.17, -0.93, -1.03, 0, -6146.53, 11306.31)" xlink:href="#linear-gradient"/></defs><g class="cls-1"><g id="Layer_1" data-name="Layer 1"><g id="Butterfly_03"><path class="cls-2" d="M224.06,85.6c13.09.64,28.76,11.23,35.84,15.34,9.38,5.43,18.66,11.07,27.56,16.93,22,14.51,42.42,30.76,58.16,49.34,12,14.11,23.06,30.24,24,47.79a25.23,25.23,0,0,1-6.86,19.19c-6.61,7-17.92,10.42-28.54,12-13.79,2-28.2,1.36-41.89,1-15.08-.36-37.78,5.58-51.41,11.43-24.86,10.67-50.79,1-56.6-18-3.19-10.42,6.58-44.5,8.47-55.25,2.16-12.27,3.87-24.56,6.37-36.82s5.52-24.35,6.68-36.65c.67-7.07-.9-19.59,8.79-24.53A18.46,18.46,0,0,1,224.06,85.6Z"/><path class="cls-3" d="M198.23,91.83a85,85,0,0,0-15.86,6.46c-10.22,5.15-19.33,11.47-28.47,17.6a255.32,255.32,0,0,0-46.58,40.54,173.17,173.17,0,0,0-17.26,22.4c-4.51,7-8.79,14.41-10.82,21.87s-.63,15.2,9,18.56c8,2.78,18.25,1.39,26.94-.36a196.93,196.93,0,0,0,44.73-15.31c7.35-3.5,14.46-7.55,20-12.58a48.3,48.3,0,0,0,11.43-16.45c6-13.17,8-27.15,10.44-40.6,1.22-6.62,2.34-13.23,3.51-19.85.6-3.39,1.15-6.79,1.81-10.17.55-2.78,1.84-5.84,1.08-8.56C207.23,92,203,90.53,198.23,91.83Z"/><path class="cls-4" d="M239.53,138.05c-2.74-4.09-4-8.71-5.34-13.22-1.91-6.44-3.65-13-7.13-19-.16-.29-.34-.57-.5-.85,3.5,3.13,7,6.26,10.28,9.57,4.81,4.92,9.66,9.76,14,14.93,2.41,2.84,4.66,5.81,7,8.69C254.59,145.5,243.4,143.81,239.53,138.05Z"/><path class="cls-5" d="M329.75,205.43c.58,3.09.3,12.76-7.2,12.27-6.28-.42-8.4-9.6-9.45-13.1-1.8-6-2.41-12.19-4.38-18.13C304,172.08,297,157.79,284.79,146.18a10.33,10.33,0,0,0,.93-2.76,11.21,11.21,0,0,0-1.12-7c.94,2.06,4.35,4.23,6.07,6,2,2.07,4,4.16,5.86,6.28a169.83,169.83,0,0,1,11,13.59A152.3,152.3,0,0,1,324,191.18c2,4.69,4.76,9.24,5.75,14.2C329.75,205.39,329.75,205.42,329.75,205.43Z"/><path class="cls-5" d="M312.23,210.55c-1.55,6.52-9,12.88-18.48,13.12-14.39.35-15-11.63-15.05-19.68-.12-12.29,0-23.93-4.09-35.69A132.25,132.25,0,0,0,264.33,145c3.93,3.39,9.78,6.89,15.82,5.16a7.08,7.08,0,0,0,2.86-1.58C299.85,165,305.22,186,311,206.42,311.3,207.43,311.68,208.92,312.23,210.55Z"/><path class="cls-5" d="M254.41,209.79c0-.12.08-.23.11-.35a.65.65,0,0,0-.38-.75,62.18,62.18,0,0,1-1.29-12.53c-.48-18.2-2.65-35.92-10.71-52.49a13.32,13.32,0,0,0,5.75,1.54c5,.22,8.8-1.15,11.23-3.74a115.49,115.49,0,0,1,8.58,16.44c3.21,7.21,6.15,14.68,7.48,22.33,1.21,6.94.84,14,.83,21,0,5.05-.45,10.93,1.76,15.75l-.06,0c-3.69,2.12-9.59,5.33-14.34,4.14a10.49,10.49,0,0,1-6.88-5.85A29.42,29.42,0,0,1,254.41,209.79Z"/><path class="cls-5" d="M223.27,217.94c-6.56-5.14-7.26-12.76-7.19-19.8.09-10,1.67-20.09,2.25-30.13a97.86,97.86,0,0,0,0-14.12c-.16-1.87-.5-3.73-.83-5.59a15,15,0,0,0,2.38.1c6.51-.25,13.35-2.86,17.69-6.77A99.76,99.76,0,0,1,248.73,178c1,8.75.24,17.65,1.37,26.37.24,1.81.51,3.82,1,5.83C248.27,219.29,232.06,224.84,223.27,217.94Z"/><path class="cls-4" d="M217.52,96.38c4,6.17,8.22,12.22,10.55,19.06,2.27,6.67,3.49,13.74,6.73,20.16a23.75,23.75,0,0,0,2,3.36c-4.32,4.33-14.73,8.07-20.3,6.45a169,169,0,0,0,1.7-23.69,94.58,94.58,0,0,0-1.17-15.61,52.52,52.52,0,0,1-.95-8.76c0-.76,0-1.56.06-2.36C216.61,95.46,217.07,95.92,217.52,96.38Z"/><path class="cls-6" d="M198.23,91.83a85,85,0,0,0-15.86,6.46c-10.22,5.15-19.33,11.47-28.47,17.6a255.32,255.32,0,0,0-46.58,40.54,173.17,173.17,0,0,0-17.26,22.4c-4.51,7-8.79,14.41-10.82,21.87s-.63,15.2,9,18.56c8,2.78,18.25,1.39,26.94-.36a196.93,196.93,0,0,0,44.73-15.31c7.35-3.5,14.46-7.55,20-12.58a48.3,48.3,0,0,0,11.43-16.45c6-13.17,8-27.15,10.44-40.6,1.22-6.62,2.34-13.23,3.51-19.85.6-3.39,1.15-6.79,1.81-10.17.55-2.78,1.84-5.84,1.08-8.56C207.23,92,203,90.53,198.23,91.83Z"/><path class="cls-5" d="M158.23,184c.08-.17.16-.35.23-.53s0-.07,0-.1a48.46,48.46,0,0,1,4.05-7.38c4.22-6.7,9.28-13.17,13.6-19.84a272.75,272.75,0,0,0,18.51-33,136,136,0,0,0,6.92-16.6c1.49-4.78,2.56-9.59,3.74-14.4a5.09,5.09,0,0,1,2.88,3.27c.76,2.72-.53,5.78-1.08,8.56-.66,3.38-1.21,6.78-1.81,10.17-1.17,6.62-2.29,13.23-3.51,19.85-.38,2.06-.74,4.13-1.11,6.21-1.54,4-1.69,8.37-3.26,12.37-2.42,6.2-5.91,12-9.48,18a55.44,55.44,0,0,1-10.86,13.64c-3.76,3.28-9.87,7.43-16,6.91C156.89,190.72,157,187.46,158.23,184Z"/><path class="cls-5" d="M204.42,91.77c-1.74,7-3.33,13.89-6.16,20.77a235.22,235.22,0,0,1-10.15,21.57,310.44,310.44,0,0,1-22.34,35.49c-3.12,4.32-6.7,9.12-8.27,13.92h0c-2.08,5.16-6.21,10.22-10.67,14.6s-10.74,9.9-18.3,10.92c-2.78.38-6.46.25-8.29-1.35-1.62-1.41-1.61-3.43-1.06-5.28,1.09-3.67,3.55-7.22,6.27-10.56.28-.21.52-.38.74-.52s.25-.39.12-.52l1.32-1.55c5.75-6.64,12.41-12.89,18.66-19.32,7.1-7.3,14-14.71,20.48-22.31,1-1,1.94-2,2.87-3,.16-.18.13-.31,0-.39q1.92-2.31,3.77-4.65a273.22,273.22,0,0,0,17.15-24.38c.33-.44.67-.88,1-1.33a.29.29,0,0,0,0-.32q2.55-4.15,4.89-8.35a103.34,103.34,0,0,0,4.74-10.3c.48-1.15,1-2.3,1.51-3.44A8.26,8.26,0,0,1,204.42,91.77Z"/><path class="cls-5" d="M174,133.49c-5.34,5.4-11.82,11.86-20.2,14.89-3.36,1.21-7.57,1.8-10.56.21-4.42-2.34-3.41-7.19-2-10.83,3.24-8.58,9.76-17.15,16.82-24.58l.14-.15a227.39,227.39,0,0,1,24.23-14.74,85,85,0,0,1,15.86-6.46,12.64,12.64,0,0,1,3.61-.46c-1.29,2.74-2.38,5.51-3.53,8.28a95.18,95.18,0,0,1-6.86,12.49c-.55.89-1.1,1.79-1.67,2.68A174.53,174.53,0,0,1,174,133.49Z"/><path class="cls-4" d="M164.16,149.22c-6.09,6-12.9,11.95-21,16.54-6.55,3.7-17.32,7.71-22.93,1.94-3.62-3.73-2-9.3,0-13.65a59.34,59.34,0,0,1,8.33-13,273.1,273.1,0,0,1,19.7-21.23q2.82-2,5.71-4c.47-.33.95-.65,1.43-1a95.12,95.12,0,0,0-11.56,15.64c-2.87,4.92-8.48,14.73-1.42,18.47,5.82,3.08,13.12,0,18.26-3.26C168.07,141.08,174,135,179.28,129q2.82-3.17,5.47-6.41c-.94,1.4-1.89,2.79-2.86,4.19-4.89,7-10.23,13.88-15.93,20.61C165.37,148,164.77,148.63,164.16,149.22Z"/><path class="cls-5" d="M97.06,198.05a.4.4,0,0,0,.21-.62c.28-.59.6-1.18.93-1.76a56.41,56.41,0,0,1,7.5-9.73,107,107,0,0,1,17.11-15.25.54.54,0,0,0,.2-.27,16.68,16.68,0,0,0,9.13.48c8.49-1.67,16-7.14,21.88-11.79q3.45-2.73,6.66-5.62c-.66.74-1.31,1.48-2,2.21-7.89,8.7-16.41,17.08-24.67,25.6-3.23,3.34-6.45,6.7-9.27,10.22-5.77,4.39-24,21.41-28.08,12.61a7.36,7.36,0,0,1,.31-6.06Z"/><path class="cls-5" d="M96.18,197.5c-4.67,1.3-4.41-2.91-3.9-5.41A44,44,0,0,1,96,181.72c2.16-4.43,5.7-8.53,9.18-12.53,4.86-5.59,10-11.05,14.57-16.76a22.4,22.4,0,0,0-2.65,9.63,8.19,8.19,0,0,0,5.23,8.12l0,0a104.46,104.46,0,0,0-18.88,17.15C101,190.2,97.78,193.85,96.18,197.5Z"/><path class="cls-7" d="M201.51,135.45c-.09.31-.2.62-.3.93a18.1,18.1,0,0,1-2.07,4.51c-.24.34-3.39,4-4.12,3.5-2.28-1.72-2.25-4.65-2-7a41,41,0,0,1,2.29-8.9c2.07-5.72,4.81-11.28,6.24-17.08,1.58-6.37,2.47-12.78,4-19.15a5,5,0,0,1,2.61,3.13c.76,2.72-.53,5.78-1.08,8.56-.66,3.38-1.21,6.78-1.81,10.17-1.17,6.62-2.29,13.23-3.51,19.85Z"/><path class="cls-8" d="M351.7,219.74c2.7-1,6-1.11,7.2,1.14.94,1.72.2,3.91-1.16,5.72a11.1,11.1,0,0,1-3.35,2.38c-3.87,1.77-7.26-.07-7.49-3.14C346.73,223.44,348.62,220.91,351.7,219.74Z"/><path class="cls-9" d="M318,232.44c-1.84,2.6.68,5.81,4.54,5.69a7.25,7.25,0,0,0,1.26-.14c0,.19.24.31.63.18,4.14-1.44,7.13-6,2.95-8.07A8,8,0,0,0,318,232.44Z"/><path class="cls-10" d="M291.71,234.69a2.55,2.55,0,0,0,2,4.21,3.56,3.56,0,0,0,3.52-1.65,1.73,1.73,0,0,0-.15-2.74C295.68,233.48,293,233.14,291.71,234.69Z"/><path class="cls-11" d="M247.91,227.2c-5.33,2.24-7.34,7.49-3.85,10.82,3.74,3.57,10.62,3.13,14.65-.76,2-1.92,3.18-4.89,2-6.91C259.81,226.55,253.24,225,247.91,227.2Z"/><path class="cls-12" d="M215.82,239.6c-5.33,2.24-7.34,7.48-3.86,10.81,3.74,3.58,10.63,3.13,14.66-.75,2-1.92,3.17-4.89,2-6.91C227.72,238.94,221.14,237.37,215.82,239.6Z"/><path class="cls-13" d="M208.11,226c.21,2.48,3.71,3.74,6.74,2.48a4.15,4.15,0,0,0,2.34-2.11c1.58-1.59.84-3.87-1.94-4.34C212.26,221.55,207.89,223.48,208.11,226Z"/><path class="cls-14" d="M204.44,204.19c3.61.16,3.19,3.71.85,5.14a3.69,3.69,0,0,1-2.08.49,2.4,2.4,0,0,1-.66,0,2.89,2.89,0,0,1-2.25-1.62,2.5,2.5,0,0,1,.19-2.72C201.28,204.45,203,204.13,204.44,204.19Z"/><path class="cls-15" d="M207.3,184.11c3.6.16,3.19,3.7.85,5.14a3.69,3.69,0,0,1-2.08.49,2.44,2.44,0,0,1-.67,0,2.93,2.93,0,0,1-2.25-1.62,2.51,2.51,0,0,1,.2-2.72C204.14,184.37,205.85,184.05,207.3,184.11Z"/><path class="cls-16" d="M210.27,162c2.75.12,2.44,2.83.65,3.93a2.9,2.9,0,0,1-1.6.38,2.12,2.12,0,0,1-.51,0,2.23,2.23,0,0,1-1.72-1.24,1.92,1.92,0,0,1,.15-2.09A3.62,3.62,0,0,1,210.27,162Z"/><path class="cls-5" d="M258.28,107.06l.59.43c2.69,2.11,5,4.54,7.54,6.74s5.09,4.34,7.62,6.52c5.27,4.54,10.49,9.11,15.48,13.83,10,9.42,19.06,19.4,26.32,30.21,7.4,11,13,22.69,20.32,33.7a56.63,56.63,0,0,0,5.35,7.38c1.65,1.8,4.2,4.41,7.77,3.86,4.94-.75,5.45-6.09,5.69-8.79a29.06,29.06,0,0,0-3.39-16.09c-5.6-10.82-15.36-19.74-25.68-28.14S304.63,140,294.31,131.38c-9.07-7.56-18.33-15.11-28.79-21.66-1.11-.91-2.41-1.63-3.49-2.55a5.18,5.18,0,0,0-2.76-1.38C258.5,105.68,257.74,106.67,258.28,107.06Z"/><path class="cls-17" d="M248.86,129.52a4.08,4.08,0,0,1-6.07,2.79c-2.53-1.59-3.95-4-5.23-6.25-3.66-6.41-6.06-13.22-9.43-19.72,3,2.67,6,5.35,8.71,8.17,3.89,4,7.78,7.9,11.44,12A6.2,6.2,0,0,1,248.86,129.52Z"/><path class="cls-18" d="M287.58,149c-.9-1-1.82-1.89-2.79-2.81a2.67,2.67,0,0,0,.14-.36C285.85,146.85,286.72,147.91,287.58,149Z"/><path class="cls-4" d="M217.52,96.38c4,6.17,8.22,12.22,10.55,19.06.57,1.68,1.07,3.38,1.56,5.09.09,2.83.29,5.68-.73,8.49-.71,2-2.26,4.49-5.55,4.56a6.08,6.08,0,0,1-4.68-1.94,10.13,10.13,0,0,1-.68-.79c.18-3,.28-6.09.25-9.13a94.58,94.58,0,0,0-1.17-15.61,52.52,52.52,0,0,1-.95-8.76c0-.76,0-1.56.06-2.36C216.61,95.46,217.07,95.92,217.52,96.38Z"/><path class="cls-4" d="M265.51,125.05c.19,3-3,6.25-7.21,4.49a21.5,21.5,0,0,1-6.47-4.48c-5.36-5.08-10.36-10.37-15.76-15.42s-10.81-10-16.22-15c-.64-1-1.28-1.93-1.89-2.91,1,1.65,6.79,3.45,8.88,4.54,3,1.57,5.95,3.15,8.87,4.77,5.95,3.3,11.75,6.74,17.32,10.36,2.94,1.9,5.89,3.8,8.77,5.75C263.84,119.66,265.34,122.4,265.51,125.05Z"/><path class="cls-9" d="M86.36,204.73c-1.88.79-2.6,2.62-1.37,3.78a3.91,3.91,0,0,0,5.17-.28,2.15,2.15,0,0,0,.73-2.41C90.57,204.49,88.25,204,86.36,204.73Z"/><path class="cls-8" d="M103.36,208.42c-3.49,1.46-4.82,4.86-2.55,7,2.44,2.32,7,2,9.61-.52,1.31-1.24,2.1-3.17,1.34-4.48C111.17,208,106.86,207,103.36,208.42Z"/><path class="cls-19" d="M151.33,199.6c-1.52.64-2.1,2.12-1.11,3.06a3.18,3.18,0,0,0,4.19-.23,1.74,1.74,0,0,0,.58-2C154.73,199.41,152.86,199,151.33,199.6Z"/><path class="cls-20" d="M239.27,92.75s.66-4,3.95-2.46,5.92,22.63,5.92,22.63l12.43,3.18a13.43,13.43,0,0,1,6.73,8.59c2.65,10.72-1.06,9-7-2.31-.32-.61-2.3,3.52-2.64,2.86s1.09-5.89.79-6.49l-11.35-.37a3.3,3.3,0,0,1-3.1-2.51Z"/><path class="cls-20" d="M203.91,132.53l.1,0c2-.6,8.64.35,12.69,2.08,0,0-2.6-11-4-15.86-.15-.51,3.79-2.23,3.79-2.23s3.42,19.25,1,19.56c-1.6.21-10.36-2.12-10.36-2.12,4.27,4.78,8.5,13.34,7.56,17C211.85,154.1,205.07,140,203.91,132.53Z"/><path class="cls-21" d="M230.5,106.18c-1.1,1.89-2.26,3.68-3.46,5.36a59.22,59.22,0,0,1-17.48,16.4,56.81,56.81,0,0,1-9.82,4.76,58,58,0,0,1-21.43,3.61,50.45,50.45,0,0,1-12.09-1.7c-6.94-1.9-12.26-5.22-14.67-9.22-2.85-4.72-1.61-10.38,5.87-15.74q2.06-1.45,4.21-2.81,3.19-2,6.59-3.78a135.18,135.18,0,0,1,22.32-9c2.7-.84,5.39-1.6,8-2.29A212.66,212.66,0,0,1,237.3,85.4C253.26,89.87,230.5,106.18,230.5,106.18Z"/><path class="cls-22" d="M220.73,91.41c.49,11.16,4.35,16.56,3,21.8-1.57,5.9-10.13,12-13.89,14.29a67.54,67.54,0,0,1-10.8,5,52.08,52.08,0,0,1-20.27,3.5,54.35,54.35,0,0,1-12.54-1.64c-6.94-1.9-12.07-5.65-14.48-9.65l1.49.21c29.46,3.19,63.73-3.36,58.57-16.19-10.39-25.8,4.12-21.65,4.12-21.65Z"/><path class="cls-21" d="M264.59,69.13A209.5,209.5,0,0,0,259,89.52c-2.52,10.4-5,19-12.29,25-13.94,11.56-23.7,8-30.93,1.3-11.14-10.31-5.9-24.88-5.9-24.88a3.24,3.24,0,0,1,.44-1.19h0c2.71-4.75,17-14.36,23.61-11.23,13.77,6.49,21.38-23.17,21.38-23.17C260.9,49.34,264.59,69.13,264.59,69.13Z"/><path class="cls-22" d="M259,89.52c-2.52,10.4-5,19-12.29,25-13.94,11.56-23.7,8-30.93,1.3-11.14-10.31-5.1-24.68-5.1-24.68s-1.94,9.15,19.22,14.21c0,0,14.42,3.15,21.76-6.55l3-13.71Z"/><path class="cls-22" d="M255.06,102.18S231.9,98.61,228.5,77.8l11-10.3,18,23.13"/><path class="cls-21" d="M289.84,81.92s10.65-32.78-19.22-38.58c-7.36-1.43-30.18-3.43-35.57,26.26-2.08,3.26-10.69,17.93,22.19,29.75,1.39,1.53,7.15,8.2,12.25,1.83C270.47,101.3,293.5,103.12,289.84,81.92Z"/><path class="cls-23" d="M285,66.62l.19,0c2.32.77,2.85,5.8,1.19,11.22s-4.92,9.19-7.23,8.43-3-6.11-1.42-11.38C279.3,69.9,282.63,66.09,285,66.62Z"/><path class="cls-24" d="M279.51,75.77c-.61,2.46.22,4.76,1.57,5.18s2.7-1.24,3.31-3.7,0-4.78-1.33-5.2S280.11,73.3,279.51,75.77Z"/><ellipse class="cls-25" cx="284.31" cy="73.74" rx="1.57" ry="1.04" transform="translate(151.46 335.69) rotate(-77.65)"/><path class="cls-26" d="M269.05,102.05a14.7,14.7,0,0,0,1.67-2.86,29.34,29.34,0,0,1-2,2.46Z"/><path class="cls-26" d="M257.58,100.11l.36-.36c-1.77-2.25-3.91-4.47-3.91-4.47S255.8,97.85,257.58,100.11Z"/><path class="cls-27" d="M268.34,52.43s-4.55-7.92-10.39,1.13A9.58,9.58,0,0,1,268.34,52.43Z"/><path class="cls-27" d="M282.49,57.52s8.26-3.3,7.51,7.58A10.18,10.18,0,0,0,282.49,57.52Z"/><path class="cls-26" d="M281.58,89.28a4.51,4.51,0,0,0,2.6-.3,4.06,4.06,0,0,1-4.35-1.59l-.39.32A3.34,3.34,0,0,0,281.58,89.28Z"/><path class="cls-28" d="M276.91,91.28A22.23,22.23,0,0,0,267.14,99c-1.85,2.54-5.38,2.49-7-4.44A50.62,50.62,0,0,1,259,81.05Z"/><path class="cls-29" d="M266.86,99.37c-1.9,2.18-5.18,1.82-6.73-4.78l-.06-.29C265.24,92.22,267,97.51,266.86,99.37Z"/><path class="cls-30" d="M265.1,95a6.37,6.37,0,0,1,1.76,4.39c-1.35,1.55-3.39,1.81-5-.52C262.14,96.92,263.43,94.61,265.1,95Z"/><path class="cls-26" d="M264,100.77h0a3.35,3.35,0,0,0,3.36-1.58A22,22,0,0,1,277,91.54l.57-.2L258.77,80.63l0,.42a51.74,51.74,0,0,0,1.16,13.62C260.73,98.21,262.18,100.38,264,100.77Zm12.35-9.53A23.37,23.37,0,0,0,267,98.87a2.85,2.85,0,0,1-2.88,1.38h0c-.93-.2-2.66-1.22-3.72-5.74a51,51,0,0,1-1.17-13Z"/><path class="cls-31" d="M269.55,68.91l16.18-6.14s-6.24,6.88-6.31,19.65c0,5.36,1.78,10.14-4.5,10.33-13.18.4-16.18-10.61-16.18-10.61Z"/><path class="cls-26" d="M270,92.59a19.92,19.92,0,0,0,4.88.43c1.91-.06,3.22-.55,4-1.5,1.16-1.4,1-3.59.87-6.11-.06-1-.13-2-.12-3,.07-12.5,6-19.21,6.11-19.28a7.15,7.15,0,0,0-2.41,2.69,33.92,33.92,0,0,0-4.18,16.61c0,1,.06,2.06.12,3,.15,2.4.28,4.48-.73,5.71-.68.83-1.87,1.25-3.64,1.31-12.87.39-15.93-10.33-16-10.44l-.46.17A15.47,15.47,0,0,0,270,92.59Z"/><path class="cls-31" d="M260.9,81.38l0,0,.06,0Z"/><path class="cls-31" d="M255.68,77.59l5.18,3.77c-.46.29-3.92,2.33-8.19-1.07Z"/><path class="cls-26" d="M260.92,81.32l-.09.05-.26.12-.4.15-.53.17-.3.07c-.11,0-.22.05-.33.06a5.16,5.16,0,0,1-.7.08c-.25,0-.5,0-.75,0s-.51,0-.77-.08-.51-.09-.76-.17-.49-.13-.71-.22l-.66-.26-.58-.28-.26-.13-.22-.13-.37-.21-.34-.17.28.26.32.3c.07,0,.13.12.21.17l.24.17.55.38c.21.11.43.23.67.34a2.24,2.24,0,0,0,.36.14l.38.14c.26.08.53.13.8.19s.55.06.82.07a5.1,5.1,0,0,0,.8-.06,2.63,2.63,0,0,0,.39-.06l.36-.09a6.72,6.72,0,0,0,.64-.23L260,82l.24-.14a3.59,3.59,0,0,0,.38-.25A3.16,3.16,0,0,0,260.92,81.32Z"/><path class="cls-23" d="M254.72,65.34c-1.71,5.57-.5,11,2.37,12s6.57-2.79,8.28-8.36.78-10.85-2.09-11.79S256.43,59.77,254.72,65.34Z"/><path class="cls-24" d="M257,74.81c1.62.35,3.45-1.69,4.08-4.57s-.18-5.49-1.8-5.85-3.46,1.69-4.09,4.57S255.33,74.45,257,74.81Z"/><ellipse class="cls-25" cx="260.18" cy="67.23" rx="1.57" ry="1.04" transform="matrix(0.21, -0.98, 0.98, 0.21, 138.84, 307)"/><path class="cls-20" d="M284.27,51.93c-.29.37-1.45-.06-1.27-1S292.58,38.72,308.62,40c5.59.43,11.56,4,13.94,7.78,1.2,1.92,1.42,4.25,0,5.69-3.34,3.38-6.5-8.57-15.33-10.37C297.49,41.09,288.21,46.91,284.27,51.93Z"/><path class="cls-32" d="M321.86,50.8s-3-11.35-17-9.84C304.69,41,314.4,40.1,321.86,50.8Z"/><path class="cls-20" d="M267.29,46a.87.87,0,0,1-1.59-.19c-.27-.93,3.22-15.55,18.15-23.23,5.2-2.67,12.11-2.92,15.92-1,1.92,1,3.14,2.83,2.49,4.84-1.51,4.68-9.6-3.73-18.3-.45C274.36,29.63,268.61,39.63,267.29,46Z"/><path class="cls-32" d="M301.91,25.29s-7-8.68-19.5-.79C282.27,24.63,291,19.28,301.91,25.29Z"/><path class="cls-20" d="M203.79,111.52c-.76-1.74-2.44-.9-2.63,1.19-.21,2.34,1.5,12.92,3.69,28.07-3-.64-12.93-3.28-17.14-1.44-2.55,1.12-2.8,5.73-1.68,9.61s4.89,12.31,7.46,12.19,4.86-8.72-3-20.87c9.22,1.16,14.85,3.47,15.42,2.17C208.84,135.82,205,114.22,203.79,111.52Z"/><path class="cls-20" d="M228,100.49s.66-4,4-2.45,5.92,22.63,5.92,22.63l12.43,3.18s4.43.44,5.16.93c.15.1-2.18,1.26-2,1.39.45.33-.51-.51,0,0a13.09,13.09,0,0,1,3.59,6.27c2.9,11.78-1.86,8.48-8.89-5.94l-11.35-.37a3.33,3.33,0,0,1-3.11-2.51Z"/><path class="cls-2" d="M219.43,87.85c14,1.41,27.62,15.54,34,21.06,8.43,7.31,16.67,14.87,24.43,22.69C297,151,313.88,172.48,324.88,196.72c8.35,18.42,15.1,39.34,10.31,61.6a44.45,44.45,0,0,1-13.84,24c-9.53,8.56-23,12.36-35.09,13.86-15.72,2-31.19.42-46-.62-16.32-1.15-43,5.32-59.83,12.1-30.64,12.36-55.71-1-55.74-25.38,0-13.34,21.94-56,27.56-69.54,6.43-15.43,12.37-30.91,19.16-46.31s14.09-30.56,19.44-46.08c3.07-8.92,5.52-24.84,17.71-30.64A20.08,20.08,0,0,1,219.43,87.85Z"/><path class="cls-33" d="M189.2,94.54A109.58,109.58,0,0,0,169.76,102c-12.84,6-24.87,13.62-36.87,21a412.1,412.1,0,0,0-64.21,49.17,301.65,301.65,0,0,0-26.25,27.57c-7.23,8.64-14.36,17.83-19,27.18s-5.73,19.2,3.65,23.89c7.78,3.89,19.44,2.61,29.49.79,18-3.26,36.71-9.68,53.84-17.32,9.17-4.09,18.27-8.89,26-15,7.55-6,13.11-13,17.91-20.3,10.87-16.39,17.7-34,24.85-50.89,3.52-8.33,6.94-16.65,10.41-25,1.78-4.26,3.5-8.53,5.34-12.78,1.52-3.5,4-7.3,4-10.78C199,95.14,194.86,93.12,189.2,94.54Z"/><path class="cls-4" d="M218.9,154.94c-1.63-5.31-1.48-11.21-1.45-17,.06-8.24.35-16.66-1.45-24.44-.08-.36-.18-.73-.27-1.09,2.78,4.13,5.61,8.24,8,12.59,3.61,6.45,7.29,12.8,10.34,19.53,1.68,3.71,3.14,7.57,4.79,11.33C232.84,165.06,221.2,162.41,218.9,154.94Z"/><path class="cls-5" d="M294.9,244.37c-.39,3.94-3.9,16.16-11.91,15.19-6.71-.81-6-12.53-6-17,0-7.65,1.43-15.54,1.25-23.15-.42-18.42-3.3-36.84-12.73-52.09a19.15,19.15,0,0,0,1.93-3.45,16.28,16.28,0,0,0,1.1-8.92c.34,2.65,3.34,5.55,4.62,7.86,1.51,2.71,3,5.44,4.32,8.22a165.56,165.56,0,0,1,7.45,17.7,166.68,166.68,0,0,1,8.39,37.35c.65,6,2.13,11.91,1.56,18.23C294.91,244.32,294.9,244.35,294.9,244.37Z"/><path class="cls-5" d="M274.1,250c-3.85,8.18-14.11,15.89-24.49,15.75-15.8-.2-12.46-15.4-9.88-25.59,3.94-15.56,7.91-30.29,7.37-45.36-.36-10-1.2-20.33-3.46-30,3.16,4.46,8.37,9.17,15.53,7.26a10.08,10.08,0,0,0,3.64-1.87c12.91,21.56,11.78,48.46,11.34,74.54C274.13,246.05,274.05,248,274.1,250Z"/><path class="cls-5" d="M211.33,246.42c.07-.14.16-.29.23-.44a.73.73,0,0,0-.16-1,93.64,93.64,0,0,1,2.74-15.91c5.51-23.06,9-45.59,5.73-66.93a10.79,10.79,0,0,0,5.76,2.21,17.17,17.17,0,0,0,13.49-4.21A130.36,130.36,0,0,1,243,181.37c1.11,9.28,1.85,18.86.76,28.61-1,8.84-3.73,17.75-6.08,26.68-1.67,6.4-4.12,13.81-3.31,20l-.07,0c-4.72,2.51-12.22,6.3-17,4.58-3.6-1.3-5-4.5-5.56-7.73A35.79,35.79,0,0,1,211.33,246.42Z"/><path class="cls-5" d="M174.68,255.31c-5.45-6.81-3.68-16.49-1.28-25.39,3.43-12.69,8.48-25.35,12.45-38a158.7,158.7,0,0,0,4.7-17.87c.44-2.38.69-4.75.94-7.12a13.26,13.26,0,0,0,2.56.24,36.93,36.93,0,0,0,21.53-7.75c2.93,14.8,2.73,30.63.08,46.59-1.84,11.11-5.59,22.35-7.24,33.44-.34,2.3-.72,4.85-.9,7.42C201.49,258.16,182,264.45,174.68,255.31Z"/><path class="cls-4" d="M208.71,101.19c2.34,8,4.92,15.84,5.19,24.62.26,8.54-.75,17.55.65,25.81a25.27,25.27,0,0,0,1.11,4.35c-6.15,5.28-18.73,9.54-24.27,7.23a278.8,278.8,0,0,0,9.71-29.9A147.18,147.18,0,0,0,205,113.49a77.87,77.87,0,0,1,1.86-11.13c.24-1,.53-2,.85-3C208,100,208.38,100.58,208.71,101.19Z"/><path class="cls-4" d="M242.53,155.35c-1.59-3.61-2.88-7.38-4.42-10.95a165.28,165.28,0,0,0-14.17-26c-4.1-6.17-8.55-12.19-12-18.7-.43-1.42-.84-2.84-1.24-4.28.58,2.13,6.26,4.68,8.18,6.16Q223,104.72,227,108c5.38,4.45,10.57,9.07,15.45,13.9,6.29,6.23,12.78,12.41,17.36,19.76,3.72,6,8.29,15.32,3.45,23.36-3.2,5.3-7.66,6-11.67,2.93C247.21,164.57,244.62,160.1,242.53,155.35Z"/><path class="cls-2" d="M189.2,94.54c-6.6,1.66-9.28,3.31-15.61,5.24-10.42,3.17-26.48,11.45-38.47,18.78-23.19,14.18-47.31,35.8-66.44,53.56a301.65,301.65,0,0,0-26.25,27.57c-7.23,8.64-14.36,17.83-19,27.18s-5.73,19.2,3.65,23.89c7.78,3.89,19.44,2.61,29.49.79,18-3.26,36.71-9.68,53.84-17.32,9.17-4.09,18.27-8.89,26-15,7.55-6,13.11-13,17.91-20.3,10.87-16.39,17.7-34,24.85-50.89,3.52-8.33,6.94-16.65,10.41-25,1.78-4.26,3.5-8.53,5.34-12.78,1.52-3.5,4-7.3,4-10.78C199,95.14,194.86,93.12,189.2,94.54Z"/><path class="cls-5" d="M115,209.34l.43-.67a.28.28,0,0,0,0-.12,90,90,0,0,1,6.87-9.16c6.83-8.28,14.48-16.23,21.41-24.49A489.32,489.32,0,0,0,174.91,134,243.29,243.29,0,0,0,188,113.28c3.21-6,6-12,8.86-18.06,1.33.92,1.51,1.56,1.47,3.46-.07,3.48-2.49,7.28-4,10.77-1.85,4.26-3,9.35-4.77,13.61-3.47,8.33-6.89,16.65-10.41,25-1.09,2.58-2.18,5.19-3.27,7.8-3,5-4.62,10.51-7.65,15.5-4.7,7.74-10.43,14.94-16.29,22.31a96.31,96.31,0,0,1-16.38,16.77c-5.18,4-13.21,8.94-19.74,8C111.34,217.8,112.49,213.67,115,209.34Z"/><path class="cls-5" d="M114.38,208.74c-4,6.43-10.16,12.64-16.47,18s-15,12-23.57,13c-3.16.35-7.13,0-8.6-2.09-1.29-1.87-.61-4.41.6-6.73,2.41-4.59,6.27-9,10.34-13.08.37-.25.7-.46,1-.62s.42-.49.31-.65c.65-.64,1.3-1.28,2-1.9,8.48-8.15,17.81-15.76,26.75-23.6,10.17-8.92,20.17-18,29.73-27.29,1.4-1.23,2.79-2.47,4.14-3.74.23-.21.24-.38.14-.49,1.9-1.89,3.79-3.8,5.65-5.72q14.16-14.62,26.78-30.06c.5-.54,1-1.08,1.52-1.63a.51.51,0,0,0,.14-.4q4.14-5.15,8.1-10.35c3.2-4.22,5.82-8.48,8.58-12.82.91-1.43,1.83-2.87,2.79-4.29a7.07,7.07,0,0,1,1.74.52c-4.21,8.72-8.24,17.42-13.6,26q-8.49,13.58-18.23,26.83A550.45,550.45,0,0,1,128,191.48"/><path class="cls-5" d="M148.93,146.16c-7.6,6.59-16.81,14.46-26.95,17.91-4.06,1.38-8.84,1.93-11.58-.21-4-3.17-1.34-9.26,1.37-13.81,6.39-10.71,16.33-21.25,26.49-30.33.07-.06,2.33-1.46,2.4-1.52A318.07,318.07,0,0,1,172,101.84c6.21-2.93,11.07-3.45,17.67-5.11,1.49-.37,2.38-2.69,3.6-2.6-2.32,3.41-4.42,6.87-6.59,10.31a170,170,0,0,1-11.62,15.49c-.9,1.12-1.8,2.22-2.71,3.33A300.65,300.65,0,0,1,148.93,146.16Z"/><path class="cls-4" d="M133,165.62c-8.62,7.26-18,14.53-28.39,20-8.37,4.38-21.45,9-25.64,1.4-2.71-4.89.88-11.85,4.46-17.27a106.72,106.72,0,0,1,13.39-16.06c8.94-9,18.65-17.54,28.52-25.95q3.73-2.42,7.52-4.75l1.89-1.15A167.39,167.39,0,0,0,117,141.06c-4.76,6.09-14.12,18.26-7.66,23.31,5.31,4.17,14.3.57,21-3.29,9.68-5.59,18.14-13.06,25.9-20.34,2.75-2.58,5.44-5.21,8.08-7.86q-2.22,2.6-4.5,5.17c-7.65,8.66-15.75,17.11-24.2,25.36C134.75,164.15,133.89,164.89,133,165.62Z"/><path class="cls-5" d="M43.69,224.32a.63.63,0,0,0,.43-.76c.51-.74,1.05-1.47,1.61-2.19a97.64,97.64,0,0,1,11.39-12,173.81,173.81,0,0,1,23.71-18.52.75.75,0,0,0,.3-.32c2.68,1.43,6.07,1.68,9.8,1,9.81-1.72,19.81-8.3,27.77-13.92q4.67-3.3,9.12-6.8l-2.89,2.71c-11.49,10.65-23.56,20.86-35.38,31.27-4.63,4.06-9.26,8.18-13.5,12.5-7.75,5.29-33.27,26-34.79,14.66-.33-2.49.74-5.12,2.35-7.65Z"/><path class="cls-5" d="M42.91,223.6c-5.52,1.43-3.84-3.89-2.45-7A79.13,79.13,0,0,1,48,203.61c3.83-5.5,9.05-10.53,14.17-15.43,7.15-6.85,14.59-13.52,21.43-20.55a39.6,39.6,0,0,0-6.07,12.07c-1.14,4.21-.69,8.18,3,10.52l0,0a169.94,169.94,0,0,0-26.26,20.84C50.56,214.57,45.86,219.05,42.91,223.6Z"/><path class="cls-8" d="M314.09,263.49c3.28-1.18,6.87-1.14,7.47,1.78.45,2.21-1.08,5-3.17,7.18a17.07,17.07,0,0,1-4.44,2.86c-4.81,2.06-7.89-.43-7.12-4.32C307.43,268,310.33,264.83,314.09,263.49Z"/><path class="cls-9" d="M273.12,278c-2.87,3.21-1.19,7.38,3.07,7.42a8.42,8.42,0,0,0,1.42-.12c0,.24.15.4.62.25,5-1.63,9.75-7.22,5.89-10.08C281.22,273.33,276,274.84,273.12,278Z"/><path class="cls-9" d="M243.73,279.65c-1.85,1.86-2,5,.73,5.42a4.77,4.77,0,0,0,4.39-1.93,2.52,2.52,0,0,0,.74-3.47A4.09,4.09,0,0,0,243.73,279.65Z"/><path class="cls-9" d="M195.22,270.44c-6.55,2.59-10.48,9.13-7.78,13.51,2.89,4.7,10.54,4.45,16.22-.29,2.81-2.33,5.08-6,4.49-8.65C208.42,270.15,201.77,267.86,195.22,270.44Z"/><path class="cls-8" d="M221.89,275.54c-6.54,2.59-10.47,9.13-7.78,13.51,2.89,4.7,10.54,4.45,16.22-.29,2.81-2.33,5.09-6,4.5-8.65C235.09,275.25,228.44,273,221.89,275.54Z"/><path class="cls-9" d="M159.37,282.38c-6.55,2.58-10.48,9.13-7.79,13.51,2.89,4.7,10.55,4.45,16.23-.29,2.8-2.34,5.08-6,4.49-8.65C172.57,282.09,165.92,279.79,159.37,282.38Z"/><path class="cls-8" d="M155.47,264.84c-.59,3.15,2.8,4.9,6.52,3.44a6.61,6.61,0,0,0,3.25-2.56c2.25-1.94,2.2-4.85-.67-5.58C161.48,259.36,156.08,261.61,155.47,264.84Z"/><path class="cls-9" d="M158.71,237c3.88.37,2.25,4.83-.77,6.54a4.17,4.17,0,0,1-2.44.53,2.55,2.55,0,0,1-.73,0,2.42,2.42,0,0,1-1.92-2.14,4,4,0,0,1,1.12-3.44A5.79,5.79,0,0,1,158.71,237Z"/><path class="cls-9" d="M168.49,211.76c3.87.37,2.24,4.83-.78,6.54a4.21,4.21,0,0,1-2.43.53,2.62,2.62,0,0,1-.74,0,2.44,2.44,0,0,1-1.92-2.15,4,4,0,0,1,1.12-3.43A5.74,5.74,0,0,1,168.49,211.76Z"/><path class="cls-9" d="M179.05,183.93c3,.28,1.72,3.7-.6,5a3.21,3.21,0,0,1-1.87.41,2.1,2.1,0,0,1-.56,0,1.86,1.86,0,0,1-1.47-1.64,3.11,3.11,0,0,1,.86-2.63A4.41,4.41,0,0,1,179.05,183.93Z"/><path class="cls-5" d="M249.61,116.58l.51.57c2.22,2.8,3.9,6,6,8.88s4.11,5.73,6.14,8.6c4.24,6,8.41,12,12.29,18.21,7.78,12.4,14.34,25.44,18.68,39.45,4.41,14.27,6.61,29.32,11,43.59a56.24,56.24,0,0,0,3.38,9.59c1.21,2.35,3.12,5.77,7.19,5.24,5.64-.73,8-7.46,9.13-10.87a40.76,40.76,0,0,0,1.63-20.51c-2.51-14-10.2-25.7-18.66-36.8s-17.63-22.16-26-33.51c-7.38-10-15-20-24.2-28.74-.9-1.2-2.09-2.17-3-3.39a4,4,0,0,0-2.55-1.86C250.31,114.85,249.15,116.06,249.61,116.58Z"/><path class="cls-34" d="M267.64,171q-1-1.87-2.1-3.69c.1-.15.18-.3.27-.44C266.47,168.21,267.07,169.59,267.64,171Z"/><path class="cls-9" d="M29.81,232.3c-2.31.91-3.7,3.19-2.75,4.72s3.73,1.54,5.74-.12c1-.82,1.8-2.11,1.59-3C34.48,232.18,32.13,231.39,29.81,232.3Z"/><path class="cls-9" d="M47.12,237.74c-4.29,1.69-6.87,5.93-5.11,8.76,1.9,3,6.92,2.87,10.65-.21,1.84-1.52,3.34-3.92,3-5.61C55.79,237.53,51.42,236.05,47.12,237.74Z"/><path class="cls-9" d="M102.34,228.79c-1.87.73-3,2.58-2.23,3.82s3,1.24,4.64-.1a3,3,0,0,0,1.29-2.44C106.11,228.7,104.21,228.05,102.34,228.79Z"/></g></g></g></svg>