<svg id="Layer_1" data-name="Layer 1" xmlns="http://www.w3.org/2000/svg" viewBox="0 0 77.35 65.73"><defs><style>.cls-1,.cls-3{fill:#ece5e3;}.cls-1{stroke:#5f4d45;stroke-miterlimit:10;}.cls-2{fill:#0b1e34;}.cls-4{fill:#550f0e;}</style></defs><path class="cls-1" d="M51.65,29.36l-.2,0a2.64,2.64,0,0,0-1.61.54h0a30.23,30.23,0,0,0-1.26,6.34,34.5,34.5,0,0,0,0,6.88c.09.88.21,1.79.38,2.72s.42,2,.65,2.93c.08.34.17.67.24,1,2.18-.46,4.33-4.55,4.93-9.57C55.49,34.55,54.07,29.7,51.65,29.36Z"/><path class="cls-2" d="M52.73,39.91c-.16,2.53-1.18,4.4-2.59,4.23a2.32,2.32,0,0,1-1.52-1,34.5,34.5,0,0,1,0-6.88A2.08,2.08,0,0,1,50.5,35a1.58,1.58,0,0,1,.8.34,4,4,0,0,1,1.28,2.38s0,0,0,0A7.81,7.81,0,0,1,52.73,39.91Z"/><ellipse class="cls-3" cx="52.02" cy="36.47" rx="1.57" ry="1.04" transform="translate(13.71 87.15) rotate(-87.95)"/><path class="cls-4" d="M32.5,18.36s-5.9-7-10,3A9.6,9.6,0,0,1,32.5,18.36Z"/><path class="cls-4" d="M47.33,20.84s7.54-4.73,8.74,6.12A10.16,10.16,0,0,0,47.33,20.84Z"/><path class="cls-1" d="M21.4,33.5c-.68,5.78,1.49,10.93,4.48,11.35s6-3.92,6.65-9.7-1.17-10.81-4.16-11.23S22.09,27.72,21.4,33.5Z"/><path class="cls-2" d="M25.3,42.42c1.66,0,3.1-2.29,3.21-5.23s-1.16-5.37-2.83-5.43S22.59,34,22.48,37,23.64,42.36,25.3,42.42Z"/><ellipse class="cls-3" cx="27.11" cy="34.38" rx="1.57" ry="1.04" transform="translate(-8.22 60.25) rotate(-87.95)"/></svg>