<svg xmlns="http://www.w3.org/2000/svg" xmlns:xlink="http://www.w3.org/1999/xlink" viewBox="0 0 307.2 334.71"><defs><style>.cls-1{isolation:isolate;}.cls-2{fill:#221f1f;stroke:#eee8d2;stroke-width:4px;}.cls-19,.cls-2,.cls-20,.cls-22{stroke-miterlimit:10;}.cls-3{fill:url(#linear-gradient);}.cls-4{fill:#ffda22;}.cls-5{fill:#f93a3a;}.cls-6{fill:#ba2025;}.cls-7{fill:#ffc10d;}.cls-8{fill:url(#linear-gradient-2);}.cls-9{fill:url(#linear-gradient-3);}.cls-10{fill:url(#linear-gradient-4);}.cls-11{fill:url(#linear-gradient-5);}.cls-12{fill:url(#linear-gradient-6);}.cls-13{fill:url(#linear-gradient-7);}.cls-14{fill:url(#linear-gradient-8);}.cls-15,.cls-18{mix-blend-mode:multiply;}.cls-15{fill:url(#linear-gradient-9);}.cls-16{fill:url(#linear-gradient-10);}.cls-17{fill:url(#linear-gradient-11);}.cls-18{fill:url(#linear-gradient-12);}.cls-19{fill:#895800;stroke:#473300;}.cls-20,.cls-30{fill:#e476ff;}.cls-20{stroke:#47201f;}.cls-21{fill:#9d13bf;}.cls-22,.cls-24{fill:#ece5e3;}.cls-22{stroke:#5f4d45;}.cls-23{fill:#0b1e34;}.cls-25{fill:#83381b;}.cls-26{fill:#550f0e;}.cls-27{fill:#440a0a;}.cls-28{fill:#e95f5e;}.cls-29{fill:#f27373;}.cls-31{fill:#fdbd2c;}</style><linearGradient id="linear-gradient" x1="10749.81" y1="-12117.43" x2="10956.22" y2="-12117.43" gradientTransform="matrix(0, 0.61, -0.7, 0.16, -8333.82, -4499.55)" gradientUnits="userSpaceOnUse"><stop offset="0.01" stop-color="#e68625"/><stop offset="1" stop-color="#f9a748"/></linearGradient><linearGradient id="linear-gradient-2" x1="212.03" y1="-41.79" x2="206.17" y2="-43.7" gradientTransform="matrix(1, 0.06, -0.06, 1, 11.15, 74.08)" xlink:href="#linear-gradient"/><linearGradient id="linear-gradient-3" x1="179.46" y1="-13.01" x2="162.76" y2="-18.43" gradientTransform="matrix(1, 0.06, -0.06, 1, 11.15, 74.08)" xlink:href="#linear-gradient"/><linearGradient id="linear-gradient-4" x1="145.33" y1="-8.53" x2="128.63" y2="-13.95" gradientTransform="matrix(1, 0.06, -0.06, 1, 11.15, 74.08)" xlink:href="#linear-gradient"/><linearGradient id="linear-gradient-5" x1="142.78" y1="15.82" x2="134.08" y2="12.99" gradientTransform="matrix(1, 0.06, -0.06, 1, 11.15, 74.08)" xlink:href="#linear-gradient"/><linearGradient id="linear-gradient-6" x1="8886.63" y1="-9357.64" x2="8878.75" y2="-9360.19" gradientTransform="matrix(-0.01, 0.82, -0.92, 0.21, -8455.43, -5178.74)" xlink:href="#linear-gradient"/><linearGradient id="linear-gradient-7" x1="8914.48" y1="-9367.32" x2="8906.6" y2="-9369.88" gradientTransform="matrix(-0.01, 0.82, -0.92, 0.21, -8455.43, -5178.74)" xlink:href="#linear-gradient"/><linearGradient id="linear-gradient-8" x1="8945.11" y1="-9378.5" x2="8939.08" y2="-9380.46" gradientTransform="matrix(-0.01, 0.82, -0.92, 0.21, -8455.43, -5178.74)" xlink:href="#linear-gradient"/><linearGradient id="linear-gradient-9" x1="9016.76" y1="-9438.9" x2="8862.68" y2="-9488.91" gradientTransform="matrix(-0.01, 0.82, -0.92, 0.21, -8455.43, -5178.74)" xlink:href="#linear-gradient"/><linearGradient id="linear-gradient-10" x1="93.95" y1="75.26" x2="89.18" y2="73.71" gradientTransform="matrix(1, 0.06, -0.06, 1, 11.15, 74.08)" xlink:href="#linear-gradient"/><linearGradient id="linear-gradient-11" x1="14664.11" y1="-8367.28" x2="14870.52" y2="-8367.28" gradientTransform="matrix(0.26, 0.51, -0.65, 0.38, -9126.46, -4063.17)" xlink:href="#linear-gradient"/><linearGradient id="linear-gradient-12" x1="11941.93" y1="-6598.3" x2="11787.85" y2="-6648.32" gradientTransform="matrix(0.34, 0.68, -0.86, 0.51, -9539.35, -4580.82)" xlink:href="#linear-gradient"/></defs><g class="cls-1"><g id="Layer_1" data-name="Layer 1"><g id="Butterfly_02"><path class="cls-2" d="M201.09,246.59c12.28-7.25,24-26.81,29.52-34.89,7.31-10.72,14.45-21.6,21.17-32.54,16.62-27.08,31.15-55.27,40.54-83.72,7.14-21.62,12.84-45,8.43-64.94-1.65-7.47-5.42-14.18-12.34-17.84-8.42-4.45-20.23-2.59-30.83,1-13.78,4.63-27.31,12.59-40.26,19.8-14.27,7.93-37.72,12.69-52.48,13-26.93.6-48.74,24.23-48.53,48.23.11,13.13,19.73,46,24.78,57,5.78,12.52,11.12,25.28,17.21,37.61s12.63,24.22,17.46,37.27c2.76,7.5,5.06,22.15,15.79,22.79A17.07,17.07,0,0,0,201.09,246.59Z"/><path class="cls-3" d="M174.57,252.6a70.14,70.14,0,0,1-17.08.76c-11.3-.6-21.9-3-32.47-5.26a201.11,201.11,0,0,1-56.67-21.64,144,144,0,0,1-23.23-16.2c-6.41-5.49-12.74-11.57-16.92-18.82s-5.2-16.52,3-25.05c6.77-7.07,17-10.67,25.8-13.06a166.36,166.36,0,0,1,47.28-5.4c8.06.21,16.08,1.14,22.87,3.95s11.6,7.37,15.87,12.51c9.67,11.61,15.82,26.09,22.24,39.75,3.15,6.73,6.23,13.5,9.34,20.25,1.6,3.46,3.15,6.94,4.81,10.36,1.36,2.81,3.51,5.54,3.61,8.94C183.11,247.94,179.53,251.64,174.57,252.6Z"/><path class="cls-4" d="M200,180.76c-1.38,5.9-1.19,11.65-1.1,17.3.13,8.1.46,16.26-1,24.67-.07.4-.15.79-.23,1.19,2.4-5.22,4.83-10.45,6.92-15.74,3.1-7.86,6.25-15.64,8.86-23.55,1.43-4.35,2.68-8.76,4.08-13.14C212.09,165,201.92,172.44,200,180.76Z"/><path class="cls-5" d="M265.63,61c-.38-3.71-3.57-14.28-10.57-10C249.2,54.63,250,65.86,250,70.27c.1,7.52,1.4,14.7,1.31,22.27-.19,18.31-2.53,37.65-10.63,56.59a10.8,10.8,0,0,1,1.72,2.59,15.23,15.23,0,0,1,1,8.33c.28-2.75,2.87-6.86,4-9.67q1.94-4.94,3.7-9.89,3.62-10.25,6.35-20.53a233.91,233.91,0,0,0,7-40.27c.51-6.21,1.75-12.61,1.19-18.6C265.64,61.07,265.63,61,265.63,61Z"/><path class="cls-5" d="M247.37,64.11c-3.44-6.45-12.49-9.76-21.58-5.3C212,65.6,215,79.17,217.39,88.13c3.6,13.68,7.22,26.52,6.89,41.59a200.38,200.38,0,0,1-2.74,31c2.72-5.72,7.23-12.52,13.52-13.63a5.72,5.72,0,0,1,3.2.32c11.09-26.61,9.84-52.62,9.21-78.11C247.44,68,247.35,66.19,247.37,64.11Z"/><path class="cls-5" d="M192.48,93.84c.06.12.14.22.2.34a.92.92,0,0,1-.13,1,82.78,82.78,0,0,0,2.55,14.53c5.05,20.4,8.34,41.12,5.66,63.5a16.56,16.56,0,0,1,5-4.58c4.67-2.72,8.74-3.13,11.84-1.47a176.46,176.46,0,0,0,3.21-22.49c.88-9.59,1.43-19.34.39-28.48-.95-8.3-3.44-15.92-5.58-23.74-1.53-5.6-3.74-11.88-3.09-18.32h-.06c-4.16-.5-10.75-1.11-14.93,2.59a15.45,15.45,0,0,0-4.78,9.92A41.5,41.5,0,0,0,192.48,93.84Z"/><path class="cls-5" d="M160.32,100.37c-4.7,9-3.07,17.77-.88,25.53,3.12,11.07,7.67,21.42,11.26,32.26A122.88,122.88,0,0,1,175,173.79c.41,2.16.65,4.39.9,6.61a15.32,15.32,0,0,1,2.24-1.29c6.28-3,13.59-3.51,18.91-1.35a144,144,0,0,0-.38-45.91c-1.71-10.17-5.1-19.67-6.66-29.9-.32-2.12-.67-4.47-.85-6.93C183.75,86.38,166.61,88.33,160.32,100.37Z"/><path class="cls-4" d="M191.58,237.92c2-8.85,4.15-17.65,4.3-26.4.15-8.52-.82-17,.32-25.68a37.54,37.54,0,0,1,.94-4.75c-5.44-2.64-16.49-1.58-21.32,3a200.73,200.73,0,0,1,8.79,25.39,125.24,125.24,0,0,1,3.61,17.88A70.7,70.7,0,0,0,190,237.54c.23.85.49,1.72.78,2.59C191,239.39,191.3,238.66,191.58,237.92Z"/><path class="cls-4" d="M220.65,170.5c-1.35,4.22-2.44,8.47-3.76,12.63a283.45,283.45,0,0,1-12.15,31.53c-3.53,7.79-7.36,15.56-10.3,23.41-.37,1.57-.72,3.15-1,4.72.48-2.34,5.43-7.21,7.09-9.47,2.37-3.22,4.72-6.45,7-9.71,4.67-6.63,9.16-13.34,13.39-20.13,5.44-8.76,11.06-17.54,15-26.69,3.2-7.43,7.11-18.54,2.79-24.44-2.85-3.88-6.76-2.74-10.23,2A54.66,54.66,0,0,0,220.65,170.5Z"/><path class="cls-2" d="M174.57,252.6a70.14,70.14,0,0,1-17.08.76c-11.3-.6-21.9-3-32.47-5.26a201.11,201.11,0,0,1-56.67-21.64,144,144,0,0,1-23.23-16.2c-6.41-5.49-12.74-11.57-16.92-18.82s-5.2-16.52,3-25.05c6.77-7.07,17-10.67,25.8-13.06a166.36,166.36,0,0,1,47.28-5.4c8.06.21,16.08,1.14,22.87,3.95s11.6,7.37,15.87,12.51c9.67,11.61,15.82,26.09,22.24,39.75,3.15,6.73,6.23,13.5,9.34,20.25,1.6,3.46,3.15,6.94,4.81,10.36,1.36,2.81,3.51,5.54,3.61,8.94C183.11,247.94,179.53,251.64,174.57,252.6Z"/><path class="cls-5" d="M108.56,170.49l.39.48a.42.42,0,0,1,0,.1,44.41,44.41,0,0,0,6.1,6.15c6,5.32,12.83,9.95,19,15.19a244.23,244.23,0,0,1,27.62,27.33c4.08,4.77,8.29,9.61,11.62,14.92,2.87,4.56,5.35,9.36,7.93,14.09a7.7,7.7,0,0,0,1.75-5.06c-.1-3.4-2.25-6.13-3.61-8.94-1.66-3.42-3.21-6.9-4.81-10.36-3.11-6.75-6.19-13.52-9.34-20.25-1-2.09-2-4.2-2.94-6.31-2.69-3.71-4.15-8.43-6.85-12.08-4.18-5.66-9.27-10.35-14.47-15.17-4.16-3.85-8.82-7.5-14.49-9.68-4.57-1.76-11.64-3.3-17.35.34C105.25,163.7,106.29,167.29,108.56,170.49Z"/><path class="cls-5" d="M180.49,249.57c-3.77-6.84-7.38-13.72-12.15-19.93a220.8,220.8,0,0,0-16.21-18.83,270.39,270.39,0,0,0-32-28.15c-4.28-3.22-9.14-6.76-12.09-11.29h0c-3.55-4.67-9-8.21-14.59-10.84s-13.23-5.59-20.75-3c-2.77,1-6.24,3-7.5,5.65a6.46,6.46,0,0,0,.59,6.37c2.14,3.52,5.56,6.23,9.17,8.57.33.09.61.16.86.21a.35.35,0,0,1,.27.51c.57.36,1.15.71,1.73,1.06,7.49,4.49,15.73,8.08,23.63,12.08,9,4.54,17.82,9.29,26.28,14.48,1.24.63,2.46,1.27,3.66,1.95a.27.27,0,0,1,.12.42q2.53,1.62,5,3.28a230.53,230.53,0,0,1,23.73,18.43c.44.33.9.65,1.35,1a.39.39,0,0,1,.12.35q3.68,3.33,7.19,6.81a96.49,96.49,0,0,1,7.63,9c.81,1,1.63,2.06,2.49,3.06A10.66,10.66,0,0,0,180.49,249.57Z"/><path class="cls-5" d="M138.84,218.57c-6.73-3.32-14.85-7.23-23.76-6.4-3.57.33-7.76,1.79-10.13,5-3.51,4.81-1.09,9.68,1.33,13,5.69,7.89,14.49,14.12,23.47,18.82l.18.1c9,1.89,18,3.72,27.56,4.22a70.14,70.14,0,0,0,17.08-.76,11.84,11.84,0,0,0,3.58-1.3c-2.06-2.39-3.93-4.92-5.87-7.4A84.45,84.45,0,0,0,162,233.49c-.8-.72-1.6-1.44-2.41-2.15A143.36,143.36,0,0,0,138.84,218.57Z"/><path class="cls-4" d="M124.73,206c-7.61-3.56-15.91-6.79-25-7.82-7.36-.82-18.85.11-22.45,9.31-2.32,5.94.89,11.3,4.07,15.15A52,52,0,0,0,93.18,232.9a220.8,220.8,0,0,0,25.21,13.67c2.19.55,4.41,1.06,6.63,1.53l1.66.35a80.06,80.06,0,0,1-15.76-11.54c-4.22-4-12.53-12.09-6.93-19.76,4.61-6.32,12.52-6.53,18.4-5.51,8.53,1.47,16,5.3,22.86,9.23,2.44,1.39,4.82,2.86,7.16,4.37q-2-1.63-4-3.22A229.71,229.71,0,0,0,127,207.15C126.25,206.77,125.49,206.4,124.73,206Z"/><path class="cls-5" d="M46,185.48c.33,0,.46.29.39.57.45.52.93,1,1.42,1.49a47.29,47.29,0,0,0,10.09,7,84.6,84.6,0,0,0,20.93,8.34.41.41,0,0,1,.27.2,18,18,0,0,1,8.56-5.1c8.6-2.39,17.42-.09,24.44,2.14,2.73.86,5.42,1.83,8,2.89-.85-.49-1.7-1-2.56-1.46-10.15-5.7-20.81-10.72-31.26-16a122.22,122.22,0,0,1-11.93-6.68c-6.83-2-29.37-11.72-30.58.06a8.87,8.87,0,0,0,2.12,6.56Z"/><path class="cls-5" d="M45.31,186.52c-4.85.9-3.33,5.43-2.08,7.95a43.82,43.82,0,0,0,6.71,9.62c3.4,3.81,8,6.59,12.55,9.29,6.32,3.76,12.9,7.22,18.95,11.29A23.49,23.49,0,0,1,76,215.32a12.15,12.15,0,0,1,2.52-11.61h0a82.82,82.82,0,0,1-23.18-9.57C52.09,192.22,47.94,189.77,45.31,186.52Z"/><path class="cls-6" d="M282.24,34.2c2.88-.21,6-1.75,6.52-4.86a6.06,6.06,0,0,0-2.84-5.76,8.9,8.9,0,0,0-3.92-1,6.11,6.11,0,0,0-6.19,7.22C276.37,32.58,278.94,34.44,282.24,34.2Z"/><path class="cls-7" d="M246.25,37c-2.54-2-1.11-6.77,2.61-8.58a7.38,7.38,0,0,1,1.25-.47c0-.24.13-.46.54-.51,4.38-.48,8.6,3,5.25,7.47C253.38,38.22,248.76,38.92,246.25,37Z"/><path class="cls-8" d="M220.51,47.61c-1.63-1-1.77-4.08.59-5.63a3,3,0,0,1,3.86.07c1,.4,1.36,1.84.68,3.11C224.67,47,222.19,48.7,220.51,47.61Z"/><path class="cls-9" d="M181,77.8c-5.76.18-9.26-4.63-6.94-10.06,2.48-5.83,9.18-8.77,14.2-6.48,2.47,1.13,4.5,3.83,4,6.65C192.56,72.58,186.76,77.61,181,77.8Z"/><path class="cls-10" d="M146.66,80.1c-5.76.18-9.26-4.62-6.94-10,2.48-5.84,9.18-8.78,14.2-6.48,2.47,1.13,4.5,3.82,4,6.64C158.21,74.88,152.42,79.91,146.66,80.1Z"/><path class="cls-11" d="M143.42,99c-.55-2.86,2.4-6,5.67-6.11A3.31,3.31,0,0,1,152,94.05c2,1,2,3.86-.53,5.78C148.73,101.88,144,101.92,143.42,99Z"/><path class="cls-12" d="M146.52,125c3.39-2,1.92-5.7-.74-6.11a3.18,3.18,0,0,0-2.13.49,2.65,2.65,0,0,0-.65.29,4.21,4.21,0,0,0-1.66,2.92,3,3,0,0,0,1,2.91C143.43,126.31,145.16,125.8,146.52,125Z"/><path class="cls-13" d="M155.32,145.83c3.38-2,1.92-5.7-.75-6.12a3.26,3.26,0,0,0-2.13.5,2.59,2.59,0,0,0-.64.29,4.17,4.17,0,0,0-1.66,2.92,3,3,0,0,0,1,2.91C152.22,147.13,154,146.62,155.32,145.83Z"/><path class="cls-14" d="M164.82,168.83c2.59-1.52,1.47-4.36-.56-4.69a2.58,2.58,0,0,0-1.64.38,2,2,0,0,0-.5.23,3.19,3.19,0,0,0-1.26,2.23,2.26,2.26,0,0,0,.77,2.23C162.45,169.82,163.78,169.43,164.82,168.83Z"/><path class="cls-5" d="M227.22,205.72l.44-.77c1.92-3.69,3.36-7.52,5.15-11.24s3.54-7.35,5.29-11c3.65-7.66,7.24-15.34,10.58-23.05a277.68,277.68,0,0,0,16-46.63c3.72-15.88,5.5-31.62,9.18-47.49a86.8,86.8,0,0,1,2.87-10.84c1-2.82,2.67-7,6.24-8.17,4.94-1.63,7,4,8.09,6.9a40.44,40.44,0,0,1,1.63,19.52c-2.07,14.78-8.68,29.55-16,44-7.39,14.64-15.21,29.16-22.45,43.84-6.37,12.91-12.91,25.89-20.9,38.38-.79,1.57-1.82,3-2.57,4.58a7,7,0,0,1-2.21,2.89C227.85,207.14,226.82,206.42,227.22,205.72Z"/><path class="cls-15" d="M242.48,144.62c-.57,1.51-1.16,3-1.8,4.51l.24.32C241.48,147.86,242,146.25,242.48,144.62Z"/><path class="cls-7" d="M33.77,183.42a2.41,2.41,0,0,1-2.46-3.5,4,4,0,0,1,5-2.28A2.25,2.25,0,0,1,37.75,180C37.85,181.58,35.8,183.34,33.77,183.42Z"/><path class="cls-6" d="M48.86,170.84c-3.78.13-6.07-3-4.56-6.5,1.63-3.78,6-5.7,9.32-4.22a4.19,4.19,0,0,1,2.64,4.29C56.44,167.44,52.64,170.71,48.86,170.84Z"/><path class="cls-16" d="M97.26,156.64a2,2,0,0,1-2-2.83A3.21,3.21,0,0,1,99.34,152a1.82,1.82,0,0,1,1.15,1.87C100.57,155.15,98.91,156.58,97.26,156.64Z"/><path class="cls-2" d="M213.27,236.19c9.54-10.38,13.29-30.75,15.52-39.4,3-11.47,5.68-23,7.93-34.45,5.58-28.32,8.54-56.81,6.12-83.68C241,58.25,236.93,36.86,224,22a28.93,28.93,0,0,0-20.24-10.32c-10.53-.66-21.87,5.11-31.24,11.85-12.18,8.75-22.69,20.17-32.94,30.76-11.28,11.66-33.33,24-48.35,29.54C63.8,93.94,51.42,121.28,61.82,141c5.69,10.81,39.76,31,49.61,38.21,11.23,8.28,22.13,16.91,33.61,24.92s23.24,15.48,33.73,24.54c6,5.2,14.59,16.49,25.87,13.18A19.12,19.12,0,0,0,213.27,236.19Z"/><path class="cls-17" d="M188.6,250.65a89.38,89.38,0,0,1-17.21,6.74c-11.86,3.55-23.78,5.32-35.57,7.27a275.89,275.89,0,0,1-67.35,2.4A190.6,190.6,0,0,1,37.74,262c-8.9-2.24-18-5-25.35-9.5S.05,240.7,4.81,230.74c4-8.27,12.91-14.89,21-20A204.12,204.12,0,0,1,72,189.34c8.37-2.72,17-4.82,25.15-4.93s15,1.94,21.6,4.66c14.85,6.13,27.3,15.89,39.69,24.89,6.09,4.43,12.12,8.92,18.18,13.38,3.11,2.29,6.17,4.61,9.32,6.84,2.59,1.83,6,3.32,7.51,6.09C195.39,243.74,193.29,248.08,188.6,250.65Z"/><path class="cls-4" d="M184.22,182.19c1.09,5.38,3.72,10.06,6.21,14.7,3.56,6.64,7.37,13.27,9.39,20.75.1.35.18.71.28,1.06.24-5.17.52-10.36.42-15.48-.15-7.6-.21-15.16-.89-22.62-.38-4.11-1-8.2-1.39-12.32C190,164.83,182.69,174.63,184.22,182.19Z"/><path class="cls-5" d="M200.84,59.77c-2-2.93-9.72-10.52-15.09-4.47-4.49,5.07,1.05,14.08,3,17.71,3.28,6.17,7.67,11.65,10.79,17.93,7.57,15.2,13.36,32,13.08,50.56a12.1,12.1,0,0,1,2.86,1.53,13.1,13.1,0,0,1,4.61,6.5c-.89-2.36,0-6.69,0-9.41-.07-3.18-.19-6.35-.4-9.49a192.83,192.83,0,0,0-2.19-19.24,175.26,175.26,0,0,0-9.91-35.77c-2.1-5.31-3.55-11.05-6.66-15.79Z"/><path class="cls-5" d="M183.41,68.86c-6.27-4.1-17-3.59-24.41,3.34-11.31,10.56-2.41,20.67,3.81,27.23,9.5,10,18.66,19.33,24.71,31.9a154.22,154.22,0,0,1,10.33,26.59c.37-5.7,2.12-12.94,8.1-16.1a7.59,7.59,0,0,1,3.42-.88c.11-26-12.21-47-23.67-67.84C185.14,72.07,184.26,70.58,183.41,68.86Z"/><path class="cls-5" d="M139.66,113.07l.35.2a.74.74,0,0,1,.29.89,74.84,74.84,0,0,0,8.78,11.09c13.84,15.05,26,31,32.75,50.44a14,14,0,0,1,3.21-5.58c3.64-3.93,7.64-5.71,11.53-5.46a133.68,133.68,0,0,0-6.25-19.73c-3.16-8.24-6.73-16.48-11.68-23.66-4.49-6.52-10.28-11.93-15.79-17.62-3.94-4.08-8.87-8.48-10.94-14l-.06,0c-4.48,1.07-11.51,2.93-14.23,7.47a11.54,11.54,0,0,0-.7,9.91A32.78,32.78,0,0,0,139.66,113.07Z"/><path class="cls-5" d="M109.41,130c-1,9.09,4.39,15.78,9.93,21.41,7.89,8,16.95,15,25.24,22.62a115,115,0,0,1,11,11.39c1.34,1.63,2.53,3.39,3.73,5.14a15.69,15.69,0,0,1,1.74-1.88c5.19-4.71,12.47-7.75,18.85-7.88A116,116,0,0,0,160.06,143c-6.07-7.79-13.58-14.43-19.51-22.32-1.23-1.64-2.59-3.46-3.82-5.42C127.54,110,110.77,117.77,109.41,130Z"/><path class="cls-4" d="M199.84,232.43c-1.73-8-3.22-16.07-6.78-23.35-3.47-7.09-8-13.72-10.56-21.34a26.14,26.14,0,0,1-1.06-4.25c-6.7-.24-17.59,4.59-20.61,10.1a195.43,195.43,0,0,1,19.79,17.83,112.38,112.38,0,0,1,11.29,13.49,61,61,0,0,0,6.1,7.79c.59.62,1.23,1.24,1.9,1.86C199.87,233.85,199.86,233.14,199.84,232.43Z"/><path class="cls-4" d="M201.09,166.32c.4,4,1.08,7.87,1.5,11.78a207.08,207.08,0,0,1,.89,30.4c-.32,7.7-.95,15.49-.65,23,.29,1.43.61,2.86.94,4.27-.5-2.1,2.52-7.9,3.27-10.36q1.61-5.26,3.08-10.53c2-7.15,3.75-14.3,5.21-21.43,1.87-9.18,3.92-18.45,4.08-27.42.14-7.28-.56-17.86-7.49-21.19-4.58-2.19-8.11.16-9.67,5.3A40,40,0,0,0,201.09,166.32Z"/><path class="cls-2" d="M188.6,250.65c-5.47,3-8.11,3.42-13.5,6-8.88,4.28-24,8.14-35.79,10.08-22.8,3.77-49.45,2.11-70.84.31A190.6,190.6,0,0,1,37.74,262c-8.9-2.24-18-5-25.35-9.5S.05,240.7,4.81,230.74c4-8.27,12.91-14.89,21-20A204.12,204.12,0,0,1,72,189.34c8.37-2.72,17-4.82,25.15-4.93s15,1.94,21.6,4.66c14.85,6.13,27.3,15.89,39.69,24.89,6.09,4.43,12.12,8.92,18.18,13.38,3.11,2.29,6.17,4.61,9.32,6.84,2.59,1.83,6,3.32,7.51,6.09C195.39,243.74,193.29,248.08,188.6,250.65Z"/><path class="cls-5" d="M86,206.43l.59.25a.71.71,0,0,1,.09.07,55.47,55.47,0,0,0,8.87,2.9c8.47,2.23,17.39,3.63,25.91,5.76a307.54,307.54,0,0,1,40,12.69c6.21,2.49,12.59,5,18.26,8.18,4.88,2.74,9.46,5.81,14.12,8.81a3.63,3.63,0,0,0-.42-3.77c-1.54-2.77-4.91-4.26-7.5-6.09-3.15-2.23-6.15-5.6-9.26-7.89-6.06-4.46-12.09-9-18.18-13.38l-5.7-4.17c-4.33-2.1-7.82-5.48-12.14-7.53-6.71-3.18-13.92-5.24-21.3-7.35a61,61,0,0,0-19-2.82c-5.44.19-13.35,1.44-17.67,6.49C79.74,202,82.32,204.59,86,206.43Z"/><path class="cls-5" d="M85.8,207.35c-5.62-2.59-12.73-3.56-19.57-3.74s-16,.11-22.56,5c-2.43,1.79-5.15,4.67-5.31,7.34-.14,2.36,1.45,4,3.31,5.06,3.7,2.14,8.36,3.15,13,3.79.38,0,.7-.08,1-.13s.51.12.5.32c.74.1,1.48.18,2.22.26,9.6,1,19.58,1,29.38,1.52,11.16.54,22.24,1.3,33.12,2.56,1.54.08,3.07.17,4.59.31.25,0,.33.15.31.3,2.18.29,4.36.59,6.52.92a300.5,300.5,0,0,1,32.17,6.74l1.8.32a.35.35,0,0,1,.27.24q5.19,1.44,10.27,3A114.37,114.37,0,0,1,188.51,246c1.27.56,2.54,1.12,3.85,1.63a8.41,8.41,0,0,0,1-1.56c-6.76-4.3-13.39-8.69-20.93-12.11a263.2,263.2,0,0,0-24.62-9.76A346.93,346.93,0,0,0,103,212.35"/><path class="cls-5" d="M137.48,235.31c-8.31-.33-18.31-.66-27.1,3.22-3.53,1.55-7.21,4.25-8.27,7.78-1.57,5.23,3,8.39,6.89,10.29,9.19,4.48,20.87,6.47,32.08,7.15.07,0,2.31-.35,2.38-.35,10-1.64,19.6-4.37,29.62-7.37,5.74-1.71,9.47-4.48,14.94-7.48,1.23-.68,2.86.62,3.71-.26-3.13-1.23-6.13-2.65-9.17-4a107.47,107.47,0,0,0-15-4.91l-3.38-.91A194.46,194.46,0,0,0,137.48,235.31Z"/><path class="cls-4" d="M117.68,230c-9.32-.22-19.21.08-29,2.5-7.91,2-19.31,6.84-19.11,15.73.14,5.74,5.71,9,10.61,11.06a66.4,66.4,0,0,0,16.52,4.19,296.06,296.06,0,0,0,31.67,2.28c2.49-.34,5-.7,7.46-1.11l1.86-.3a106.16,106.16,0,0,1-21.08-3.9c-6-1.81-18-5.51-15.49-13.85,2-6.87,10.08-9.87,16.55-11.14,9.38-1.83,18.67-1.34,27.38-.55,3.1.28,6.16.64,9.2,1.05q-2.72-.63-5.46-1.23c-9.23-2-18.68-3.5-28.3-4.62C119.55,230.07,118.62,230,117.68,230Z"/><path class="cls-5" d="M28.12,241.21a.44.44,0,0,1,.64.33c.68.27,1.39.51,2.1.72a62.39,62.39,0,0,0,13.34,2.2,115.14,115.14,0,0,0,25-.59.57.57,0,0,1,.36.06,17.39,17.39,0,0,1,6.63-7.27c7.82-5,17.84-6.31,26-7,3.18-.27,6.34-.42,9.49-.49l-3.25-.29c-12.84-1.07-25.91-1.41-38.89-2.06-5.08-.26-10.18-.55-15.09-1.25-7.85.8-35.12.82-31.37,11a8.61,8.61,0,0,0,5,4.66Z"/><path class="cls-5" d="M27.87,242.31c-4.59,2.47-1.11,5.67,1.24,7.31a50.54,50.54,0,0,0,11,5.54c5.12,1.94,11,2.58,16.83,3.19,8.08.85,16.3,1.35,24.24,2.54a25.81,25.81,0,0,1-9.54-5.77,9.34,9.34,0,0,1-2.33-10.5h0a113.27,113.27,0,0,1-27.85.39C37.25,244.59,32,244.05,27.87,242.31Z"/><path class="cls-6" d="M206.52,31.67c2.87-1.2,5.44-3.6,4.63-6.35-.62-2.1-2.9-3.31-5.35-3.74a11.77,11.77,0,0,0-4.44.61c-4.34,1.49-5.51,5.53-3.29,8.18C199.81,32.43,203.23,33.05,206.52,31.67Z"/><path class="cls-7" d="M170.75,46.85c-3.45-.72-4-5.2-1-8a9.25,9.25,0,0,1,1.08-.84c-.11-.19-.06-.42.34-.61,4.29-2,10.12-.56,8.56,4.29C178.6,45.31,174.15,47.55,170.75,46.85Z"/><path class="cls-7" d="M148.84,64.84A2.89,2.89,0,0,1,147.05,60a3.77,3.77,0,0,1,4-1.32,2,2,0,0,1,2,2.33C152.83,62.82,151,65.14,148.84,64.84Z"/><path class="cls-7" d="M117.77,104.2c-5.83,2.22-11.47-.5-11.39-5.82.07-5.71,5.7-10.54,11.83-10.43,3,0,6.25,1.54,6.94,4C127.41,95.76,123.6,102,117.77,104.2Z"/><path class="cls-6" d="M134.84,82.53c-5.84,2.21-11.47-.5-11.4-5.82.08-5.71,5.71-10.54,11.83-10.44,3,0,6.25,1.55,6.94,4.06C144.48,74.09,140.67,80.32,134.84,82.53Z"/><path class="cls-7" d="M86.79,118.11c-5.83,2.21-11.46-.51-11.39-5.82.08-5.71,5.71-10.54,11.83-10.44,3,.05,6.25,1.55,6.94,4.05C96.44,109.66,92.62,115.9,86.79,118.11Z"/><path class="cls-6" d="M91.48,134.88c-1.78-2.16-.08-5.81,3.23-7.08a4.46,4.46,0,0,1,3.44-.06c2.45.09,3.66,2.49,1.9,5C98.15,135.36,93.29,137.1,91.48,134.88Z"/><path class="cls-7" d="M105.7,155.26c2.63-2.84-.45-5.39-3.36-4.78a3.72,3.72,0,0,0-2,1.17,2.64,2.64,0,0,0-.54.47,3.15,3.15,0,0,0-.46,3,2.88,2.88,0,0,0,2.27,2C103.07,157.45,104.63,156.41,105.7,155.26Z"/><path class="cls-7" d="M123.56,169.32c2.63-2.85-.45-5.39-3.36-4.79a3.79,3.79,0,0,0-2,1.17,2.7,2.7,0,0,0-.54.48,3.18,3.18,0,0,0-.47,3,2.94,2.94,0,0,0,2.28,2C120.93,171.5,122.49,170.46,123.56,169.32Z"/><path class="cls-7" d="M143.07,184.92c2-2.18-.34-4.13-2.57-3.67a2.83,2.83,0,0,0-1.52.9,1.74,1.74,0,0,0-.41.36,2.43,2.43,0,0,0-.36,2.3,2.24,2.24,0,0,0,1.74,1.57A3.79,3.79,0,0,0,143.07,184.92Z"/><path class="cls-5" d="M222.77,193.07l.13-.79c.4-3.73.26-7.41.52-11.13s.52-7.34.75-11c.5-7.63.93-15.26,1.09-22.83.31-15.15-.52-30-3.38-44.24C219,88.62,214.12,75,211.16,60.55a64.47,64.47,0,0,1-1.65-10c-.13-2.7-.22-6.73,3-9,4.38-3.12,8.93.81,11.23,2.81a34,34,0,0,1,9.94,15.54c4.15,12.95,3.63,27.52,2.26,42.08-1.38,14.74-3.24,29.54-4.45,44.26-1.07,12.94-2.28,26-5.19,39.19-.14,1.57-.58,3.14-.69,4.7a5.43,5.43,0,0,1-1,3.18C224,194,222.66,193.79,222.77,193.07Z"/><path class="cls-18" d="M212.53,137.13c.05,1.45.08,2.9.06,4.37l.38.18C212.87,140.16,212.72,138.65,212.53,137.13Z"/><path class="cls-7" d="M14.7,243.87c-2,.79-4-.15-4-2a4.1,4.1,0,0,1,4.19-3.68,2.48,2.48,0,0,1,2.44,1.4C18.12,240.89,16.76,243.08,14.7,243.87Z"/><path class="cls-7" d="M24.87,228.08c-3.82,1.46-7.5-.29-7.43-3.74.06-3.71,3.76-6.87,7.77-6.82,2,0,4.09,1,4.53,2.6C31.21,222.55,28.69,226.62,24.87,228.08Z"/><path class="cls-7" d="M68.54,199c-1.66.64-3.27-.12-3.24-1.62a3.31,3.31,0,0,1,3.39-3,2,2,0,0,1,2,1.14C71.3,196.62,70.21,198.39,68.54,199Z"/><path class="cls-19" d="M220,247.64s.34-4,3.74-2.77,7.7,22.1,7.7,22.1l12.64,2.18a13.45,13.45,0,0,1,7.4,8c3.48,10.48-.35,9-7.21-1.75-.37-.58-2,3.69-2.4,3.06s.61-5.95.28-6.53l-11.35.53a3.3,3.3,0,0,1-3.29-2.26Z"/><path class="cls-19" d="M187.89,290.11l.09,0c1.91-.76,8.65-.34,12.83,1.06,0,0-3.48-10.75-5.3-15.48-.19-.51,3.6-2.53,3.6-2.53s4.94,18.91,2.51,19.42c-1.57.33-10.49-1.3-10.49-1.3,4.64,4.43,9.53,12.64,8.89,16.4C197.51,311,189.64,297.41,187.89,290.11Z"/><path class="cls-20" d="M212.3,261.72a63.45,63.45,0,0,1-3,5.62,59.34,59.34,0,0,1-16.12,17.74,56.6,56.6,0,0,1-9.42,5.52,58,58,0,0,1-21.07,5.3,49.94,49.94,0,0,1-12.18-.74c-7.07-1.34-12.65-4.23-15.36-8-3.22-4.48-2.43-10.23,4.6-16.16,1.29-1.08,2.61-2.12,4-3.14,2-1.5,4.12-2.93,6.27-4.28a135,135,0,0,1,21.54-10.79c2.62-1.05,5.24-2,7.81-2.92a213.55,213.55,0,0,1,38.12-9.38C233.7,243.66,212.3,261.72,212.3,261.72Z"/><path class="cls-21" d="M201.4,247.78c1.37,11.08,5.64,16.16,4.67,21.5-1.1,6-9.16,12.76-12.72,15.34A67.3,67.3,0,0,1,183,290.45a52.11,52.11,0,0,1-19.92,5.1,54.57,54.57,0,0,1-12.64-.64c-7.06-1.34-12.48-4.68-15.2-8.47l1.5.09c29.62.84,63.27-8.41,57.1-20.79-12.4-24.89,2.4-21.9,2.4-21.9Z"/><path class="cls-20" d="M243.35,222.09c-1.95,7.51-2.91,14.46-3.92,20.77-1.69,10.56-3.49,19.32-10.26,25.91-13,12.63-23,9.85-30.73,3.75-11.93-9.39-7.86-24.34-7.86-24.34a3.13,3.13,0,0,1,.35-1.22h0c2.32-4.94,15.77-15.66,22.64-13.06,14.24,5.37,19.47-24.79,19.47-24.79C238.1,202.65,243.35,222.09,243.35,222.09Z"/><path class="cls-21" d="M239.43,242.86c-1.69,10.56-3.49,19.32-10.26,25.91-13,12.63-23,9.85-30.73,3.75-11.93-9.39-7-24.2-7-24.2s-1.21,9.28,20.28,12.64c0,0,14.62,2,21.17-8.26l1.91-13.9Z"/><path class="cls-21" d="M236.47,255.79s-23.37-1.72-28.41-22.2l10.13-11.13L238,244.09"/><path class="cls-20" d="M269.53,232.83s8-33.52-22.21-36.93c-7.46-.84-30.36-1-33.38,29-1.82,3.42-9.24,18.72,24.48,27.9,1.5,1.41,7.78,7.6,12.36.84C251.76,253.69,274.87,253.68,269.53,232.83Z"/><path class="cls-22" d="M263.51,218l.2,0c2.37.58,3.3,5.55,2.07,11.09s-4.18,9.55-6.53,9-3.52-5.84-2.32-11.23C258.07,221.69,261.09,217.63,263.51,218Z"/><path class="cls-23" d="M258.74,227.52c-.41,2.5.6,4.73,2,5s2.59-1.45,3-3.95-.35-4.77-1.74-5.08S259.15,225,258.74,227.52Z"/><ellipse class="cls-24" cx="263.37" cy="225.12" rx="1.57" ry="1.04" transform="translate(4.58 455.48) rotate(-82.2)"/><path class="cls-25" d="M250.41,254.55a14.79,14.79,0,0,0,1.43-3,30.41,30.41,0,0,1-1.76,2.62Z"/><path class="cls-25" d="M238.82,253.52l.33-.39c-1.94-2.1-4.25-4.14-4.25-4.14S236.86,251.41,238.82,253.52Z"/><path class="cls-26" d="M245.76,205.14s-5.17-7.53-10.26,2A9.56,9.56,0,0,1,245.76,205.14Z"/><path class="cls-26" d="M260.27,209.1s8-3.95,8.09,7A10.17,10.17,0,0,0,260.27,209.1Z"/><path class="cls-25" d="M261.89,240.83a4.52,4.52,0,0,0,2.56-.51,4.07,4.07,0,0,1-4.46-1.24l-.36.35A3.35,3.35,0,0,0,261.89,240.83Z"/><path class="cls-27" d="M257.39,243.19a22.24,22.24,0,0,0-9.13,8.5c-1.64,2.68-5.16,2.91-7.34-3.87a50.81,50.81,0,0,1-2.22-13.4Z"/><path class="cls-28" d="M248,252.05c-1.73,2.33-5,2.22-7.09-4.23,0-.09,0-.19-.08-.28C245.82,245.05,248,250.19,248,252.05Z"/><path class="cls-29" d="M245.91,247.81a6.44,6.44,0,0,1,2.1,4.24c-1.22,1.65-3.24,2.08-5-.12C243.11,250,244.22,247.58,245.91,247.81Z"/><path class="cls-25" d="M245.23,253.68h0a3.32,3.32,0,0,0,3.22-1.85,22.24,22.24,0,0,1,9-8.39l.56-.24L238.46,234v.41a51.67,51.67,0,0,0,2.24,13.49C241.81,251.38,243.42,253.43,245.23,253.68Zm11.56-10.48a23.26,23.26,0,0,0-8.72,8.34,2.84,2.84,0,0,1-2.76,1.61h0c-.95-.13-2.75-1-4.16-5.43a50.69,50.69,0,0,1-2.2-12.89Z"/><path class="cls-30" d="M248.27,221.48l15.65-7.41s-5.68,7.35-4.73,20.09c.39,5.35,2.57,10-3.67,10.66-13.11,1.44-17-9.3-17-9.3Z"/><path class="cls-25" d="M250.64,245a19.89,19.89,0,0,0,4.9,0c1.9-.21,3.16-.8,3.86-1.81,1-1.49.73-3.65.38-6.16-.14-1-.28-2-.36-3-.92-12.47,4.51-19.63,4.56-19.7a7.11,7.11,0,0,0-2.18,2.87A33.8,33.8,0,0,0,259,234.19c.08,1,.22,2.05.36,3,.34,2.38.63,4.44-.28,5.75-.61.88-1.76,1.4-3.52,1.59-12.8,1.41-16.7-9-16.74-9.14l-.44.21A15.46,15.46,0,0,0,250.64,245Z"/><path class="cls-30" d="M240.64,234.6l0,0,.05,0Z"/><path class="cls-30" d="M235.14,231.23l5.46,3.34c-.43.33-3.73,2.64-8.25-.42Z"/><path class="cls-25" d="M240.65,234.53l-.08.05-.25.14a3.57,3.57,0,0,1-.39.19l-.51.21a2.63,2.63,0,0,1-.3.09,2.45,2.45,0,0,1-.32.09,5,5,0,0,1-.69.14,6.15,6.15,0,0,1-.75.06,6.66,6.66,0,0,1-.77,0c-.26,0-.52,0-.77-.1s-.5-.09-.73-.17l-.68-.2-.6-.24-.26-.1-.24-.11-.38-.18-.35-.15.3.24.34.27.22.16.26.15.58.33c.22.09.44.19.69.28a2,2,0,0,0,.37.12l.39.1a7.19,7.19,0,0,0,.81.13,7.66,7.66,0,0,0,.83,0,5,5,0,0,0,.79-.11c.13,0,.26-.05.38-.1l.35-.12a4,4,0,0,0,.62-.28l.27-.15.23-.16a3,3,0,0,0,.36-.28A2.84,2.84,0,0,0,240.65,234.53Z"/><path class="cls-22" d="M233.21,219.09c-1.27,5.69.38,11,3.31,11.75s6.33-3.31,7.59-9-.08-10.88-3-11.6S234.47,213.41,233.21,219.09Z"/><path class="cls-23" d="M236.19,228.35c1.65.23,3.31-2,3.71-4.87s-.62-5.47-2.26-5.69-3.31,2-3.71,4.87S234.54,228.13,236.19,228.35Z"/><ellipse class="cls-24" cx="238.8" cy="220.54" rx="1.57" ry="1.04" transform="translate(-12.13 427.19) rotate(-82.2)"/><path class="cls-19" d="M261.6,203.38c-.26.4-1.45.06-1.34-.93s8.58-12.9,24.67-12.93c5.6,0,11.84,3,14.51,6.66,1.35,1.81,1.75,4.12.44,5.67-3.06,3.63-7.16-8-16.11-9.12C273.92,191.53,265.13,198.07,261.6,203.38Z"/><path class="cls-31" d="M299,199.27s-3.85-11.08-17.73-8.46C281.09,190.87,290.7,189.2,299,199.27Z"/><path class="cls-19" d="M244.21,198.85a.87.87,0,0,1-1.6-.07c-.34-.9,2-15.75,16.25-24.59,5-3.08,11.84-3.88,15.79-2.25,2,.81,3.35,2.57,2.87,4.62-1.14,4.79-9.87-3-18.29,1C250,181.94,245,192.36,244.21,198.85Z"/><path class="cls-31" d="M277.07,175.43s-7.7-8.1-19.5.75C257.44,176.32,265.67,170.31,277.07,175.43Z"/><path class="cls-19" d="M186.1,269.17c-.89-1.68-2.5-.71-2.52,1.4,0,2.35,2.51,12.75,5.9,27.68-3-.41-13.15-2.25-17.2-.07-2.45,1.31-2.33,5.93-.91,9.7s5.84,11.9,8.4,11.56,4.16-9.07-4.6-20.57c9.29.43,15.09,2.29,15.55.95C193.06,293,187.47,271.76,186.1,269.17Z"/><path class="cls-19" d="M209.37,256.25s.34-4,3.75-2.76,7.7,22.1,7.7,22.1l12.63,2.18s4.46.08,5.22.52c.16.09-2.07,1.42-1.89,1.54.47.29-.55-.47,0,0a13.13,13.13,0,0,1,4.07,6c3.83,11.52-1.18,8.61-9.33-5.21l-11.35.53a3.3,3.3,0,0,1-3.29-2.26Z"/></g></g></g></svg>