<svg xmlns="http://www.w3.org/2000/svg" xmlns:xlink="http://www.w3.org/1999/xlink" viewBox="0 0 319.07 334.71"><defs><style>.cls-1{isolation:isolate;}.cls-2{fill:#221f1f;stroke:#eee8d2;stroke-width:4px;}.cls-19,.cls-2,.cls-20,.cls-28{stroke-miterlimit:10;}.cls-3{fill:url(#linear-gradient);}.cls-4{fill:#ffda22;}.cls-5{fill:#f93a3a;}.cls-6{fill:#ba2025;}.cls-7{fill:#ffc10d;}.cls-8{fill:url(#linear-gradient-2);}.cls-9{fill:url(#linear-gradient-3);}.cls-10{fill:url(#linear-gradient-4);}.cls-11{fill:url(#linear-gradient-5);}.cls-12{fill:url(#linear-gradient-6);}.cls-13{fill:url(#linear-gradient-7);}.cls-14{fill:url(#linear-gradient-8);}.cls-15,.cls-18{mix-blend-mode:multiply;}.cls-15{fill:url(#linear-gradient-9);}.cls-16{fill:url(#linear-gradient-10);}.cls-17{fill:url(#linear-gradient-11);}.cls-18{fill:url(#linear-gradient-12);}.cls-19{fill:#895800;stroke:#473300;}.cls-20,.cls-26{fill:#e476ff;}.cls-20{stroke:#47201f;}.cls-21{fill:#9d13bf;}.cls-22{fill:#7a3819;}.cls-23{fill:#83381b;}.cls-24{fill:#550f0e;}.cls-25{fill:#f4c813;}.cls-27{fill:#f3ba19;}.cls-28,.cls-30{fill:#ece5e3;}.cls-28{stroke:#5f4d45;}.cls-29{fill:#0b1e34;}.cls-31{fill:#fdbd2c;}</style><linearGradient id="linear-gradient" x1="10108.11" y1="-10001.26" x2="10314.53" y2="-10001.26" gradientTransform="matrix(-0.06, 0.59, -0.58, 0.22, -5110.49, -3635.06)" gradientUnits="userSpaceOnUse"><stop offset="0.01" stop-color="#e68625"/><stop offset="1" stop-color="#f9a748"/></linearGradient><linearGradient id="linear-gradient-2" x1="-32.59" y1="-78.96" x2="-38.54" y2="-80.89" gradientTransform="matrix(0.81, -0.09, -0.09, 0.96, 265.26, 124.13)" xlink:href="#linear-gradient"/><linearGradient id="linear-gradient-3" x1="-66.74" y1="-52.63" x2="-83.69" y2="-58.13" gradientTransform="matrix(0.81, -0.09, -0.09, 0.96, 265.26, 124.13)" xlink:href="#linear-gradient"/><linearGradient id="linear-gradient-4" x1="-101.09" y1="-50.33" x2="-118.04" y2="-55.83" gradientTransform="matrix(0.81, -0.09, -0.09, 0.96, 265.26, 124.13)" xlink:href="#linear-gradient"/><linearGradient id="linear-gradient-5" x1="-105.31" y1="-25.97" x2="-114.16" y2="-28.84" gradientTransform="matrix(0.81, -0.09, -0.09, 0.96, 265.26, 124.13)" xlink:href="#linear-gradient"/><linearGradient id="linear-gradient-6" x1="8620.54" y1="-7625.69" x2="8612.67" y2="-7628.24" gradientTransform="matrix(-0.08, 0.79, -0.77, 0.29, -5033.93, -4480.82)" xlink:href="#linear-gradient"/><linearGradient id="linear-gradient-7" x1="8648.39" y1="-7635.37" x2="8640.52" y2="-7637.93" gradientTransform="matrix(-0.08, 0.79, -0.77, 0.29, -5033.93, -4480.82)" xlink:href="#linear-gradient"/><linearGradient id="linear-gradient-8" x1="8679.03" y1="-7646.55" x2="8672.99" y2="-7648.51" gradientTransform="matrix(-0.08, 0.79, -0.77, 0.29, -5033.93, -4480.82)" xlink:href="#linear-gradient"/><linearGradient id="linear-gradient-9" x1="8750.67" y1="-7706.94" x2="8596.59" y2="-7756.96" gradientTransform="matrix(-0.08, 0.79, -0.77, 0.29, -5033.93, -4480.82)" xlink:href="#linear-gradient"/><linearGradient id="linear-gradient-10" x1="-157.9" y1="30.4" x2="-162.74" y2="28.83" gradientTransform="matrix(0.81, -0.09, -0.09, 0.96, 265.26, 124.13)" xlink:href="#linear-gradient"/><linearGradient id="linear-gradient-11" x1="13850.87" y1="-7135.89" x2="14057.29" y2="-7135.89" gradientTransform="matrix(0.2, 0.44, -0.63, 0.4, -7153.14, -3086.67)" xlink:href="#linear-gradient"/><linearGradient id="linear-gradient-12" x1="11547.66" y1="-5536.54" x2="11393.58" y2="-5586.56" gradientTransform="matrix(0.26, 0.6, -0.84, 0.53, -7442.76, -3722.58)" xlink:href="#linear-gradient"/></defs><g class="cls-1"><g id="Layer_1" data-name="Layer 1"><g id="Butterfly_02"><path class="cls-2" d="M208.21,246.11c10.61-8,21.86-27.82,27-36.05,6.87-10.92,13.63-22,20-33.05,15.88-27.44,30.16-55.74,40.29-83.85,7.7-21.35,14.39-44.3,12.56-63-.69-7-3.16-13.12-8.46-16-6.45-3.53-16.21-.7-25.13,3.65C263,23.43,251.27,32.25,240.12,40.3c-12.29,8.86-31.75,15.49-43.77,17.1-21.92,2.94-41.72,27.52-43.66,50.51-1.06,12.58,12,42.38,15.13,52.45,3.59,11.5,6.81,23.26,10.67,34.55s8.13,22.11,10.9,34.2c1.59,6.95,2.17,20.8,10.83,20.47C202.76,249.48,205.46,248.19,208.21,246.11Z"/><path class="cls-3" d="M186.14,254.21a51.25,51.25,0,0,1-13.94,2.23c-9.12.42-17.52-1-25.91-2.19a120.94,120.94,0,0,1-44.13-15.77A88.46,88.46,0,0,1,84.72,225c-4.73-4.71-9.34-10-12.09-16.57S69.86,193,77.24,184.14c6.11-7.37,14.73-11.72,22.1-14.79A127.6,127.6,0,0,1,138.21,160c6.54-.52,13-.33,18.23,1.77s8.78,6,11.8,10.6c6.83,10.28,10.55,23.62,14.56,36.17,2,6.17,3.88,12.39,5.81,18.59,1,3.17,1.95,6.38,3,9.51.86,2.57,2.37,5,2.16,8.25A11.14,11.14,0,0,1,186.14,254.21Z"/><path class="cls-4" d="M213.09,183.08c-1.64,5.79-2,11.28-2.41,16.7-.61,7.75-1.06,15.55-3,23.74-.1.39-.2.77-.29,1.16,2.4-5.22,4.84-10.45,7-15.7,3.21-7.81,6.45-15.55,9.26-23.35,1.55-4.31,3-8.64,4.47-13C224.31,166.89,215.4,174.94,213.09,183.08Z"/><path class="cls-5" d="M276.94,62.5c0-3.53-1.65-13.38-7.71-8.65-5.08,4-5.45,14.67-5.8,18.9-.58,7.2-.16,14-.89,21.23-1.77,17.58-5.37,36.32-13.61,55.21a8.2,8.2,0,0,1,1.16,2.33,16.26,16.26,0,0,1,.12,7.89c.47-2.66,2.94-6.83,4.08-9.62,1.34-3.27,2.64-6.54,3.87-9.81q3.84-10.14,7-20.24a290.06,290.06,0,0,0,9.2-39.24c1-6,2.53-12.24,2.61-17.93Z"/><path class="cls-5" d="M261.84,67.07c-2.23-5.88-9.3-8.26-17.07-3.18-11.83,7.72-10.52,20.46-9.4,28.85,1.72,12.8,3.53,24.79,1.94,39.27a239.32,239.32,0,0,1-4.95,30c2.72-5.73,7-12.65,12.18-14.25a3.81,3.81,0,0,1,2.57,0c11.35-26.49,12.62-51.32,14.35-75.71C261.54,70.82,261.63,69.06,261.84,67.07Z"/><path class="cls-5" d="M214.63,100.4c.05.11.1.2.14.31a1.09,1.09,0,0,1-.19,1,87.19,87.19,0,0,0,.79,13.71c2.31,19.12,3.16,38.69-1,60.39a19.36,19.36,0,0,1,4.48-4.83c4-3,7.37-3.77,9.75-2.45a219,219,0,0,0,4.58-21.85c1.55-9.28,2.86-18.67,2.81-27.34,0-7.88-1.39-15-2.44-22.28-.75-5.23-2-11.06-.9-17.29h0c-3.33-.11-8.63-.12-12.35,3.79a19.86,19.86,0,0,0-4.76,9.94A51.79,51.79,0,0,0,214.63,100.4Z"/><path class="cls-5" d="M187.94,109.49c-4.6,9-4.05,17.31-2.95,24.56,1.56,10.33,4.34,19.86,6.31,29.94a120.88,120.88,0,0,1,2.1,14.61c.15,2,.14,4.15.15,6.26a17.61,17.61,0,0,1,1.93-1.44c5.37-3.41,11.35-4.55,15.48-2.95a165.73,165.73,0,0,0,3.73-44c-.5-9.6-2.42-18.41-2.78-28.08-.08-2-.16-4.24-.09-6.57C208.2,94,194.11,97.39,187.94,109.49Z"/><path class="cls-4" d="M201.25,238.64c2.38-8.66,4.92-17.29,5.81-25.69.87-8.19.82-16.2,2.52-24.66a46.38,46.38,0,0,1,1.17-4.64c-4.18-2.05-13.25-.06-17.57,4.75A189.19,189.19,0,0,1,198.09,212a128.85,128.85,0,0,1,1.35,16.83,73.54,73.54,0,0,0,.52,9.61c.11.78.24,1.6.4,2.41C200.65,240.1,201,239.37,201.25,238.64Z"/><path class="cls-4" d="M230.79,171.43c-1.48,4.16-2.74,8.34-4.17,12.44-3.63,10.4-7.89,20.91-12.64,31.3-3.55,7.78-7.35,15.57-10.42,23.35-.44,1.55-.86,3.09-1.27,4.63.6-2.29,5.05-7.4,6.6-9.71q3.31-4.94,6.55-9.93Q222,213.37,228.08,203c5.19-8.87,10.54-17.79,14.54-26.91,3.25-7.4,7.4-18.4,4.41-23.67-2-3.48-5.25-2-8.49,2.79A70.27,70.27,0,0,0,230.79,171.43Z"/><path class="cls-2" d="M186.14,254.21a51.25,51.25,0,0,1-13.94,2.23c-9.12.42-17.52-1-25.91-2.19a120.94,120.94,0,0,1-44.13-15.77A88.46,88.46,0,0,1,84.72,225c-4.73-4.71-9.34-10-12.09-16.57S69.86,193,77.24,184.14c6.11-7.37,14.73-11.72,22.1-14.79A127.6,127.6,0,0,1,138.21,160c6.54-.52,13-.33,18.23,1.77s8.78,6,11.8,10.6c6.83,10.28,10.55,23.62,14.56,36.17,2,6.17,3.88,12.39,5.81,18.59,1,3.17,1.95,6.38,3,9.51.86,2.57,2.37,5,2.16,8.25A11.14,11.14,0,0,1,186.14,254.21Z"/><path class="cls-5" d="M139.74,181.27c.09.15.19.29.27.43a.32.32,0,0,1,0,.09,29.28,29.28,0,0,0,4.41,5.36c4.45,4.57,9.55,8.42,14.08,12.9a162.75,162.75,0,0,1,20,23.78,94.55,94.55,0,0,1,8.13,13.29c1.92,4.12,3.52,8.5,5.2,12.81a9.83,9.83,0,0,0,1.87-5c.21-3.24-1.3-5.68-2.16-8.25-1-3.13-2-6.34-3-9.51-1.93-6.2-3.83-12.42-5.81-18.59q-.92-2.88-1.83-5.81c-1.86-3.31-2.63-7.71-4.5-11-2.9-5.06-6.62-9.12-10.42-13.28-3-3.32-6.5-6.42-10.92-8-3.56-1.28-9.17-2.14-14.12,1.85C137.65,175.06,138.18,178.4,139.74,181.27Z"/><path class="cls-5" d="M191.21,250.78c-2.45-6.22-4.78-12.51-8.11-18a155.26,155.26,0,0,0-11.51-16.63,173.7,173.7,0,0,0-23.54-24.18c-3.2-2.72-6.84-5.68-8.84-9.76h0c-2.47-4.17-6.6-7.08-10.9-9.11s-10.26-4.21-16.6-1c-2.33,1.18-5.32,3.39-6.58,6.07a7,7,0,0,0-.08,6.07,18.84,18.84,0,0,0,6.69,7.41c.26,0,.49.1.68.12s.27.26.18.47l1.31.86c5.69,3.65,12.07,6.37,18.13,9.5a219.33,219.33,0,0,1,20.07,11.58c1,.49,1.89,1,2.81,1.55.15.09.14.25.06.4,1.27.88,2.53,1.77,3.77,2.7a143.38,143.38,0,0,1,17.65,15.59l1,.81a.34.34,0,0,1,.07.32q2.7,2.86,5.25,5.9a67.8,67.8,0,0,1,5.39,8c.57.92,1.15,1.83,1.76,2.71A11,11,0,0,0,191.21,250.78Z"/><path class="cls-5" d="M160.11,224.71c-5.17-2.59-11.43-5.62-18.74-4.05a14.1,14.1,0,0,0-8.67,5.72c-3.27,4.92-1.73,9.37-.06,12.37,3.93,7.06,10.53,12.26,17.41,16l.14.08c7.11,1,14.3,2,22,1.63a51.25,51.25,0,0,0,13.94-2.23,11.39,11.39,0,0,0,3-1.56c-1.46-2.11-2.76-4.37-4.11-6.59a56.52,56.52,0,0,0-7.47-9.07c-.58-.62-1.17-1.24-1.76-1.85A87,87,0,0,0,160.11,224.71Z"/><path class="cls-4" d="M149.75,213.94c-5.87-2.74-12.33-5.12-19.65-5.29-5.91-.15-15.32,1.75-19,10.9-2.41,5.9-.27,10.75,2,14.16a33.29,33.29,0,0,0,8.75,8.76A131.57,131.57,0,0,0,141,253.36q2.6.49,5.25.89l1.32.19a49.42,49.42,0,0,1-11.78-9.69c-3.08-3.48-9.13-10.49-3.9-18.34,4.3-6.46,10.74-7.35,15.43-6.9,6.79.67,12.53,3.68,17.76,6.84,1.85,1.13,3.66,2.33,5.42,3.57-1-.93-2-1.84-3-2.73a138.42,138.42,0,0,0-16.09-12.39C150.92,214.51,150.34,214.22,149.75,213.94Z"/><path class="cls-5" d="M87.6,201.15c.27-.06.35.24.26.51a14.71,14.71,0,0,0,1,1.3,28.93,28.93,0,0,0,7.57,5.87A50.85,50.85,0,0,0,112.73,215a.24.24,0,0,1,.2.16,18.88,18.88,0,0,1,7.4-5.64c7.2-3,14.16-1.61,19.66-.1a65,65,0,0,1,6.28,2.07l-2-1.18c-7.75-4.57-16-8.44-24-12.63a70.65,70.65,0,0,1-9.11-5.36c-5.37-1.29-22.82-8.65-24.84,2.75a8.36,8.36,0,0,0,1.15,6.11Z"/><path class="cls-5" d="M87,202.21c-4,1.28-3.18,5.49-2.39,7.8a33.28,33.28,0,0,0,4.6,8.63c2.43,3.36,5.94,5.62,9.38,7.81,4.8,3.05,9.84,5.79,14.4,9.16a19,19,0,0,1-3.59-8.49,14.89,14.89,0,0,1,3.07-11.35s0,0,0,0a49.45,49.45,0,0,1-18-7.14C92,207.07,88.81,205.09,87,202.21Z"/><path class="cls-6" d="M292.78,35.33a7.19,7.19,0,0,0,5.73-5.24,5.14,5.14,0,0,0-1.8-5.27,5.49,5.49,0,0,0-3.1-.58c-3.43.35-5.93,4.16-5.66,7.47A3.8,3.8,0,0,0,292.78,35.33Z"/><path class="cls-7" d="M263.31,41.16c-1.9-1.67-.31-6.4,2.87-8.46a6.49,6.49,0,0,1,1.06-.57.56.56,0,0,1,.48-.53c3.6-.84,6.72,2.16,3.61,6.7C269,41.71,265.18,42.79,263.31,41.16Z"/><path class="cls-8" d="M241.47,53.61c-1.24-.86-1.08-3.76,1-5.45,1.37-1.14,2.44-1,3.13-.27.82.29.94,1.64.28,2.92C244.9,52.63,242.74,54.51,241.47,53.61Z"/><path class="cls-9" d="M206.73,86c-4.69.68-7.11-3.62-4.75-9,2.53-5.81,8.23-9.23,12.1-7.47a5.24,5.24,0,0,1,2.68,6C216.57,80,211.42,85.34,206.73,86Z"/><path class="cls-10" d="M178.63,91.25c-4.69.69-7.11-3.62-4.76-9C176.4,76.41,182.1,73,186,74.76a5.22,5.22,0,0,1,2.67,6C188.47,85.23,183.32,90.57,178.63,91.25Z"/><path class="cls-11" d="M174.34,109.66c-.2-2.69,2.47-6,5.14-6.36a2.07,2.07,0,0,1,2.23.86c1.53.76,1.26,3.54-.94,5.59C178.4,112,174.53,112.41,174.34,109.66Z"/><path class="cls-12" d="M174.57,134.33c2.92-2.19,2.06-5.63-.06-5.8a2.71,2.71,0,0,0-1.78.66,2.57,2.57,0,0,0-.55.34,5.29,5.29,0,0,0-1.6,2.94,2.74,2.74,0,0,0,.56,2.71C171.94,135.85,173.4,135.21,174.57,134.33Z"/><path class="cls-13" d="M179.89,153.52c2.92-2.19,2.05-5.63-.07-5.8a2.73,2.73,0,0,0-1.78.66,2.57,2.57,0,0,0-.55.34,5.29,5.29,0,0,0-1.6,2.94,2.76,2.76,0,0,0,.56,2.71C177.26,155,178.71,154.4,179.89,153.52Z"/><path class="cls-14" d="M185.59,174.73c2.23-1.67,1.57-4.31-.05-4.44a2.13,2.13,0,0,0-1.37.51,2,2,0,0,0-.42.26,4,4,0,0,0-1.22,2.25,2.08,2.08,0,0,0,.43,2.07C183.57,175.9,184.68,175.41,185.59,174.73Z"/><path class="cls-5" d="M233,204.63l.43-.78c1.88-3.7,3.39-7.5,5.17-11.23s3.52-7.36,5.27-11c3.63-7.67,7.23-15.34,10.62-23a357.86,357.86,0,0,0,17.06-46.11c4.42-15.55,7.25-30.8,11.63-46.34,1-3.53,1.89-7.08,3.28-10.65,1.09-2.79,2.79-6.94,5.8-8.38,4.15-2,5.36,3.24,6,5.91,1.24,5.52,1,11.86-.4,18.57-3,14.35-9.64,29.1-16.84,43.6-7.29,14.69-14.92,29.31-22.09,44-6.31,12.93-12.76,26-20.35,38.63-.77,1.57-1.74,3.05-2.48,4.62a8.89,8.89,0,0,1-2.05,3C233.41,205.93,232.64,205.34,233,204.63Z"/><path class="cls-15" d="M250.79,144.7c-.6,1.5-1.21,3-1.86,4.49.06.09.11.19.16.28C249.69,147.89,250.25,146.3,250.79,144.7Z"/><path class="cls-7" d="M77.85,200.24c-1.65.25-2.51-1.25-1.68-3.14s2.91-3.23,4.28-2.62a1.81,1.81,0,0,1,1,2.09A4.63,4.63,0,0,1,77.85,200.24Z"/><path class="cls-6" d="M91.22,186.85c-3.08.46-4.67-2.31-3.13-5.82,1.66-3.77,5.4-6,7.94-4.87A3.34,3.34,0,0,1,97.8,180C97.68,182.92,94.3,186.4,91.22,186.85Z"/><path class="cls-16" d="M131.78,169c-1.34.19-2-1-1.36-2.55s2.35-2.61,3.46-2.12a1.47,1.47,0,0,1,.77,1.7A3.73,3.73,0,0,1,131.78,169Z"/><path class="cls-2" d="M216.11,233.72c9.66-10.25,14.76-29.17,17.51-37.25,3.65-10.72,7.09-21.48,10.09-32.12,7.42-26.33,12.43-52.61,12.33-77-.08-18.51-2.15-37.73-13-50.29a22.1,22.1,0,0,0-17.92-7.83c-9.7.23-20.66,6.41-29.88,13.32-12,9-22.62,20.25-32.95,30.74-11.39,11.55-32.79,24.58-47.14,30.85C89,115.6,75.35,141.57,83.41,158.79c4.4,9.43,34.36,25.13,42.9,31,9.75,6.67,19.16,13.69,29.15,20.1s20.29,12.31,29.29,19.75c5.16,4.28,12.2,13.91,22.91,10A22.3,22.3,0,0,0,216.11,233.72Z"/><path class="cls-17" d="M192.11,248.89a99.73,99.73,0,0,1-16.48,7.54c-11.27,4.18-22.45,6.76-33.52,9.48a268.12,268.12,0,0,1-62.58,7.55,168.4,168.4,0,0,1-28.05-2.18c-8.08-1.35-16.27-3.14-22.73-6.66s-10.5-9.8-5.29-19.29c4.32-7.87,13.15-14.64,21-20A232.44,232.44,0,0,1,89,202.14c8-3.15,16.11-5.75,23.69-6.51a45.87,45.87,0,0,1,19.64,2.54c13.26,4.42,24,12.35,34.77,19.59,5.29,3.56,10.52,7.19,15.78,10.79,2.69,1.84,5.34,3.72,8.09,5.51,2.25,1.46,5.26,2.56,6.46,5C199,242,196.66,246.17,192.11,248.89Z"/><path class="cls-4" d="M193.5,186.68c.58,4.82,2.64,8.89,4.58,12.93,2.77,5.79,5.77,11.54,7,18.22.06.32.11.64.17.95.63-4.74,1.31-9.51,1.62-14.18.47-6.94,1-13.84,1-20.61,0-3.73-.24-7.41-.3-11.15C200.2,170.34,192.68,179.89,193.5,186.68Z"/><path class="cls-5" d="M218.64,73.45c-1.58-2.52-8.16-8.84-13.61-2.88-4.57,5-.16,12.79,1.33,16,2.55,5.38,6.18,10,8.57,15.53,5.8,13.29,9.83,28.19,8.09,45.18a8.81,8.81,0,0,1,2.53,1.16A9.42,9.42,0,0,1,229.3,154c-.63-2.1.56-6.12.73-8.6.19-2.9.32-5.79.39-8.65a169.66,169.66,0,0,0-.5-17.41,140.92,140.92,0,0,0-6.33-31.91c-1.52-4.68-2.41-9.81-4.92-13.9C218.67,73.49,218.65,73.47,218.64,73.45Z"/><path class="cls-5" d="M201.77,83.15c-5.48-3.25-15.43-1.93-22.87,5-11.32,10.55-3.88,19.08,1.36,24.58,8,8.4,15.74,16.19,20.35,27.19a118,118,0,0,1,7.45,23.48c.79-5.24,3-12,8.78-15.36a8.21,8.21,0,0,1,3.24-1.08c2.17-23.73-7.56-42-16.52-60.12C203.12,86,202.43,84.66,201.77,83.15Z"/><path class="cls-5" d="M157.73,127l.31.16a.58.58,0,0,1,.2.78,51.91,51.91,0,0,0,7.25,9.44c11.62,12.66,21.61,26.26,26.31,43.5a15.89,15.89,0,0,1,3.42-5.35c3.68-3.88,7.54-5.84,11.12-5.91a105.93,105.93,0,0,0-4.22-17.54c-2.27-7.28-4.92-14.53-8.93-20.7-3.64-5.6-8.57-10.08-13.22-14.84-3.33-3.42-7.55-7-9-12l-.06,0c-4.23,1.34-10.9,3.59-13.77,8a11,11,0,0,0-1.45,9.12A24.8,24.8,0,0,0,157.73,127Z"/><path class="cls-5" d="M128.36,144.9c-1.66,8.39,2.82,14.07,7.5,18.77,6.67,6.71,14.51,12.32,21.57,18.67a81.29,81.29,0,0,1,9.31,9.53c1.11,1.39,2.07,2.9,3,4.4a18.73,18.73,0,0,1,1.77-1.85c5.18-4.72,12.16-8.08,18.08-8.7a85.78,85.78,0,0,0-15.38-33c-5-6.63-11.44-12.1-16.3-18.84a53.61,53.61,0,0,1-3.1-4.65C146.74,125.23,130.6,133.64,128.36,144.9Z"/><path class="cls-4" d="M204,231.35c-1-7.19-1.71-14.43-4.42-20.8-2.65-6.21-6.36-11.9-8.09-18.66a22.6,22.6,0,0,1-.63-3.81c-6.19.32-16.67,5.6-19.9,10.87a140.46,140.46,0,0,1,16.91,14.73,79,79,0,0,1,9.38,11.43,43.82,43.82,0,0,0,5,6.63c.5.52,1,1,1.61,1.55C203.88,232.65,203.93,232,204,231.35Z"/><path class="cls-4" d="M210.39,170.82c.06,3.6.38,7.11.45,10.65a186.33,186.33,0,0,1-1.59,27.72c-.91,7.06-2.12,14.23-2.44,21.1.16,1.28.33,2.56.53,3.83-.29-1.89,3-7.42,3.85-9.73q1.91-4.95,3.7-9.88c2.4-6.69,4.61-13.36,6.53-20,2.46-8.55,5.1-17.18,6-25.39.71-6.67.9-16.29-5.25-18.77-4.06-1.64-7.52.78-9.38,5.61A38.32,38.32,0,0,0,210.39,170.82Z"/><path class="cls-2" d="M192.11,248.89c-5.31,3.18-7.79,3.78-13,6.58-8.56,4.62-22.88,9.35-34,12.07-21.42,5.26-46,5.87-65.64,5.92a168.4,168.4,0,0,1-28.05-2.18c-8.08-1.35-16.27-3.14-22.73-6.66s-10.5-9.8-5.29-19.29c4.32-7.87,13.15-14.64,21-20A232.44,232.44,0,0,1,89,202.14c8-3.15,16.11-5.75,23.69-6.51a45.87,45.87,0,0,1,19.64,2.54c13.26,4.42,24,12.35,34.77,19.59,5.29,3.56,10.52,7.19,15.78,10.79,2.69,1.84,5.34,3.72,8.09,5.51,2.25,1.46,5.26,2.56,6.46,5C199,242,196.66,246.17,192.11,248.89Z"/><path class="cls-5" d="M100.61,216.64l.53.19a.55.55,0,0,1,.08.06,44.64,44.64,0,0,0,8,1.94c7.67,1.36,15.82,1.94,23.55,3.2a252.73,252.73,0,0,1,36,8.42c5.55,1.78,11.26,3.55,16.26,6,4.3,2.12,8.3,4.56,12.37,6.93a3.17,3.17,0,0,0-.08-3.41c-1.21-2.41-4.21-3.5-6.47-5-2.74-1.79-5.25-4.63-7.94-6.47-5.26-3.6-10.49-7.23-15.78-10.79-1.65-1.11-3.29-2.23-4.95-3.36-3.84-1.57-6.81-4.38-10.64-5.91-6-2.37-12.47-3.68-19.14-5A54.38,54.38,0,0,0,115,202.4c-5.05.6-12.48,2.38-16.88,7.34C95.15,213.1,97.34,215.26,100.61,216.64Z"/><path class="cls-5" d="M100.34,217.5c-5-1.91-11.51-2.24-17.83-1.85S67.72,217,61.21,222c-2.39,1.83-5.14,4.68-5.5,7.14-.31,2.17,1,3.52,2.67,4.36,3.25,1.66,7.49,2.21,11.78,2.43l.91-.2c.31-.09.46.07.43.25l2,.06c8.81.18,18.06-.6,27.1-.95,10.29-.39,20.49-.58,30.47-.3,1.42,0,2.83-.08,4.22-.08.24,0,.3.11.27.25,2,.09,4,.19,6,.32a258.07,258.07,0,0,1,29.27,3.6l1.64.15a.26.26,0,0,1,.23.19q4.7.9,9.27,2a90.25,90.25,0,0,1,10.43,3.41c1.13.41,2.26.82,3.43,1.18a9.73,9.73,0,0,0,1.08-1.5c-5.92-3.39-11.71-6.88-18.42-9.41a209.47,209.47,0,0,0-22-7,289.45,289.45,0,0,0-40.58-7.21"/><path class="cls-5" d="M146,239c-7.67.36-16.91.86-25.36,5.1-3.39,1.7-7,4.46-8.28,7.77-1.87,4.9,2.1,7.42,5.56,8.85,8.16,3.36,18.82,4.26,29.15,4,.07,0,2.16-.5,2.23-.5a253.44,253.44,0,0,0,28-9.1c5.45-2,9.13-4.85,14.44-8,1.19-.72,2.6.34,3.45-.53-2.8-.88-5.46-1.94-8.17-2.94a86.89,86.89,0,0,0-13.51-3.29c-1-.2-2-.38-3-.57A174.62,174.62,0,0,0,146,239Z"/><path class="cls-4" d="M128.06,235.68c-8.61.54-17.8,1.61-27.07,4.6-7.48,2.41-18.43,7.78-18.95,15.89-.33,5.24,4.57,7.79,8.94,9.27A55.74,55.74,0,0,0,106,268a274.61,274.61,0,0,0,29.16-.44q3.49-.75,7-1.6l1.74-.43a91.58,91.58,0,0,1-19.21-1.89c-5.45-1.17-16.23-3.59-13.25-11.42,2.45-6.44,10.12-9.82,16.22-11.49C136.44,238.25,145,238,153,238q4.26,0,8.43.23c-1.64-.25-3.3-.48-5-.69-8.39-1.08-17-1.71-25.84-2Z"/><path class="cls-5" d="M44.22,253.05a.36.36,0,0,1,.57.25c.6.19,1.24.35,1.88.49a54.53,54.53,0,0,0,12.18,1,111.4,111.4,0,0,0,23.22-2.53.4.4,0,0,1,.33,0,20.36,20.36,0,0,1,6.72-7.18c7.65-5.24,17-7.18,24.63-8.45q4.45-.74,8.82-1.2h-3c-11.8,0-23.89.78-35.86,1.21-4.68.17-9.38.32-13.87.06-7.34,1.36-32.59,3.55-29.93,12.55.58,2,2.23,3.13,4.22,3.86Z"/><path class="cls-5" d="M43.9,254.07c-4.46,2.63-1.48,5.28.56,6.58a38.19,38.19,0,0,0,9.72,4.2c4.58,1.36,10,1.48,15.32,1.57,7.42.13,15-.06,22.26.4a19.18,19.18,0,0,1-8.38-4.52c-2.22-2.23-3.21-5.33-1.32-9.41h0a108.64,108.64,0,0,1-25.83,2.57C52.4,255.41,47.54,255.34,43.9,254.07Z"/><path class="cls-6" d="M226.14,47.32c2.75-1.33,5.33-3.73,4.8-6.18-.41-1.86-2.42-2.79-4.66-3a12.41,12.41,0,0,0-4.16.91c-4.14,1.71-5.54,5.49-3.7,7.74C219.86,48.55,223,48.84,226.14,47.32Z"/><path class="cls-7" d="M191.8,64c-3.13-.38-3.3-4.44-.25-7.26a9.27,9.27,0,0,1,1.07-.85c-.09-.17,0-.39.37-.59,4.13-2.14,9.41-1.32,7.58,3.24C199.19,62,194.89,64.41,191.8,64Z"/><path class="cls-7" d="M170.07,82.23c-1.95-.09-3.07-2.22-1.27-4.31a4.06,4.06,0,0,1,3.81-1.52,1.51,1.51,0,0,1,1.68,2C173.93,80.07,172.07,82.32,170.07,82.23Z"/><path class="cls-7" d="M138.16,120.68c-5.58,2.49-10.58.45-10.09-4.41.53-5.23,6.13-10.09,11.79-10.48,2.8-.2,5.67.91,6.11,3.15C147.77,112.19,143.74,118.2,138.16,120.68Z"/><path class="cls-6" d="M155.7,99.52c-5.58,2.48-10.58.44-10.09-4.42.52-5.22,6.12-10.09,11.79-10.48,2.79-.2,5.66.92,6.1,3.15C165.3,91,161.27,97,155.7,99.52Z"/><path class="cls-7" d="M108.36,135.86c-5.57,2.49-10.57.45-10.08-4.41.52-5.23,6.12-10.09,11.78-10.49,2.8-.19,5.67.92,6.11,3.15C118,127.37,113.94,133.37,108.36,135.86Z"/><path class="cls-6" d="M111.37,150.82c-1.47-1.84.39-5.31,3.56-6.73a4.33,4.33,0,0,1,3.19-.34c2.26-.11,3.19,2,1.36,4.39C117.51,150.73,112.87,152.7,111.37,150.82Z"/><path class="cls-7" d="M122.91,168.31c2.67-2.81,0-4.89-2.72-4.1a4.36,4.36,0,0,0-1.93,1.23,2.93,2.93,0,0,0-.54.47,3.12,3.12,0,0,0-.67,2.78,2.13,2.13,0,0,0,1.94,1.69C120.31,170.52,121.84,169.44,122.91,168.31Z"/><path class="cls-7" d="M138.34,179.74c2.66-2.81,0-4.89-2.73-4.11a4.41,4.41,0,0,0-1.93,1.23,4,4,0,0,0-.54.47,3.14,3.14,0,0,0-.67,2.79,2.15,2.15,0,0,0,1.94,1.69C135.73,181.94,137.26,180.87,138.34,179.74Z"/><path class="cls-7" d="M155.17,192.44c2-2.15,0-3.74-2.09-3.15a3.4,3.4,0,0,0-1.48,1,2.71,2.71,0,0,0-.41.36,2.36,2.36,0,0,0-.51,2.13,1.63,1.63,0,0,0,1.48,1.3A4.26,4.26,0,0,0,155.17,192.44Z"/><path class="cls-5" d="M228.34,193.55l.18-.74c.68-3.44.84-6.79,1.37-10.21s1.06-6.75,1.58-10.12c1.07-7,2.08-14,2.82-21,1.5-13.87,1.91-27.41.39-40.16-1.54-13-5-25.06-6.54-38a54.91,54.91,0,0,1-.73-9c.09-2.46.33-6.14,3.44-8.45,4.31-3.19,8.21,0,10.18,1.67A24.64,24.64,0,0,1,249,71c2.82,11.51,1.17,24.87-1.25,38.28-2.45,13.58-5.36,27.26-7.65,40.81-2,11.92-4.18,24-7.93,36.23-.25,1.45-.79,2.92-1,4.35a5.81,5.81,0,0,1-1.22,3C229.42,194.31,228.18,194.22,228.34,193.55Z"/><path class="cls-18" d="M223.31,143.23c-.06,1.32-.16,2.65-.29,4a3.4,3.4,0,0,1,.34.12C223.39,146,223.36,144.6,223.31,143.23Z"/><path class="cls-7" d="M31.58,256.55c-2,.88-3.73.18-3.55-1.52a4.67,4.67,0,0,1,4.17-3.7c1-.07,2,.31,2.15,1.09C35,253.56,33.55,255.66,31.58,256.55Z"/><path class="cls-7" d="M42.25,241.31c-3.66,1.63-6.92.33-6.59-2.83.36-3.39,4-6.58,7.75-6.86,1.83-.14,3.71.57,4,2C48.56,235.75,45.91,239.67,42.25,241.31Z"/><path class="cls-7" d="M85,211.27c-1.59.72-3,.15-2.87-1.23a3.79,3.79,0,0,1,3.38-3c.8-.06,1.61.25,1.73.88C87.76,208.85,86.61,210.56,85,211.27Z"/><path class="cls-19" d="M218.25,246.81s.05-4.07,3.57-3.06,9.39,21.71,9.39,21.71l12.9,1.27a13.57,13.57,0,0,1,8,7.55c4.29,10.31.31,9.11-7.39-1.23-.41-.56-1.76,3.87-2.19,3.26s.18-6.05-.21-6.6L231,271.08a3.35,3.35,0,0,1-3.49-2Z"/><path class="cls-19" d="M189,292l.09,0c1.87-.91,8.69-1,13,.12,0,0-4.29-10.58-6.47-15.22-.24-.49,3.44-2.81,3.44-2.81s6.37,18.71,4,19.4c-1.57.45-10.68-.54-10.68-.54,5,4.12,10.54,12,10.16,15.88C200.25,312.31,191.32,299.22,189,292Z"/><path class="cls-20" d="M211.55,261.58c-.81,2.05-1.69,4-2.64,5.88A59.87,59.87,0,0,1,194,286.53a58,58,0,0,1-9.09,6.26A58.75,58.75,0,0,1,164,299.68a50.74,50.74,0,0,1-12.34.15c-7.22-.83-13.06-3.34-16.08-7-3.56-4.29-3.2-10.13,3.46-16.63,1.22-1.18,2.47-2.33,3.77-3.45,1.93-1.67,3.94-3.26,6-4.78a135.47,135.47,0,0,1,20.92-12.46c2.57-1.25,5.13-2.42,7.66-3.52a215.41,215.41,0,0,1,37.73-12.26C231.79,241.8,211.55,261.58,211.55,261.58Z"/><path class="cls-21" d="M199.53,248.32c2.2,11.07,6.93,15.89,6.29,21.33-.94,7.87-8.45,14-11.85,16.88a58,58,0,0,1-9.09,6.26A58.75,58.75,0,0,1,164,299.68a50.74,50.74,0,0,1-12.34.15c-7.22-.83-13.06-3.34-16.08-7h0c29.91-1.33,64.74-13.87,57.59-25.88-12-20.11.81-22.26.81-22.26Z"/><path class="cls-20" d="M239.94,219.34a211.22,211.22,0,0,0-2.43,21.22c-.93,10.78-2.1,19.74-8.45,26.88-12.15,13.68-22.45,11.62-30.7,6-12.71-8.6-9.7-24-9.7-24a3.18,3.18,0,0,1,.25-1.25h0c2-5.15,14.74-16.94,21.86-14.83C225.53,237.8,228.59,207,228.59,207,233.21,200.13,239.94,219.34,239.94,219.34Z"/><path class="cls-21" d="M237.51,240.56c-.93,10.78-2.1,19.74-8.45,26.88-12.15,13.68-22.45,11.62-30.7,6-12.71-8.6-9.7-24-9.7-24s.29,9.52,22.21,11.33c0,0,14.88.95,20.73-9.87l.9-14.16Z"/><path class="cls-21" d="M235.47,253.82s-23.5.47-30.09-19.81l9.22-12.45,21.54,20.35"/><path class="cls-20" d="M270.4,226.36s3.43-34.67-27.31-33.94c-7.59.18-30.55,3.14-29.45,33.62-1.35,3.67-6.68,20,28.34,24.58,1.7,1.21,8.84,6.55,12.49-.85C255.47,249.68,278.6,246.5,270.4,226.36Z"/><path class="cls-22" d="M213.76,226.41c.69-1.23,1.89-3.66,1.9-3.69s-1.62,2.19-2.3,3.4Z"/><path class="cls-23" d="M254.23,250.72a14.94,14.94,0,0,0,1-3.18,29.77,29.77,0,0,1-1.4,2.86Z"/><path class="cls-23" d="M242.48,251.29l.28-.44c-2.23-1.83-4.82-3.56-4.82-3.56S240.24,249.44,242.48,251.29Z"/><path class="cls-24" d="M253.92,201.11s-7.51-5.38-9.08,5.4A9.67,9.67,0,0,1,253.92,201.11Z"/><path class="cls-24" d="M265.79,203.88s-2.59-3.77-5.14,1A4.79,4.79,0,0,1,265.79,203.88Z"/><path class="cls-23" d="M267.46,229a4.51,4.51,0,0,0,2.23-1.41A4.11,4.11,0,0,1,265,228l-.22.47A3.42,3.42,0,0,0,267.46,229Z"/><path class="cls-25" d="M247.57,215.67l12-12.47s-2.63,8.78,2.9,20.44c2.33,4.9,6.07,8.47.44,11.39-11.84,6.14-19.4-2.58-19.4-2.58Z"/><path class="cls-26" d="M247.57,215.67,259.62,203s-2.67,9,2.86,20.66c2.33,4.9,6.07,8.47.44,11.39-11.84,6.14-19.4-2.58-19.4-2.58Z"/><path class="cls-23" d="M258.39,237a19.68,19.68,0,0,0,4.64-1.75c1.71-.89,2.69-1.91,3-3.11.44-1.79-.64-3.72-1.89-5.95-.48-.86-1-1.74-1.43-2.68-5.41-11.41-2.91-20.15-2.88-20.24a7.19,7.19,0,0,0-1,3.51,34.13,34.13,0,0,0,3.47,17c.45,1,1,1.85,1.44,2.72,1.19,2.12,2.22,4,1.84,5.51-.26,1.06-1.16,2-2.74,2.79-11.55,6-19-2.42-19.12-2.51l-.34.36a15.52,15.52,0,0,0,5.36,3.66A15.35,15.35,0,0,0,258.39,237Z"/><path class="cls-27" d="M245.16,230.82h0a.25.25,0,0,1,0-.06Z"/><path class="cls-26" d="M238.75,229.65l6.36,1.16c-.29.47-2.55,3.84-7.92,2.61Z"/><path class="cls-23" d="M245.15,230.75l-.06.09-.19.22c-.08.09-.17.2-.29.32l-.41.38a2.73,2.73,0,0,1-.25.2l-.26.2a7,7,0,0,1-1.29.71c-.24.1-.49.18-.74.26s-.5.15-.76.19-.5.09-.75.11l-.71,0h-1.2l-.43,0-.38,0,.37.12.42.13.26.07.3.05.67.1.75,0,.39,0,.41,0c.27,0,.54-.12.81-.18s.53-.19.78-.3a4.47,4.47,0,0,0,.71-.4c.11-.08.22-.14.32-.22l.28-.25a4.53,4.53,0,0,0,.49-.49l.2-.24.16-.23a3.58,3.58,0,0,0,.23-.4A3.28,3.28,0,0,0,245.15,230.75Z"/><g id="eye"><path class="cls-28" d="M246.8,218.7c.76,5.83,4.16,10.34,7.19,10s4.88-5.32,4.12-11.16-3.83-10.3-6.86-10S246,212.86,246.8,218.7Z"/><path class="cls-29" d="M254,226.59c1.68,0,3.05-2.42,3.05-5.39s-1.37-5.39-3.05-5.39-3,2.42-3,5.39S252.32,226.59,254,226.59Z"/><ellipse class="cls-30" cx="254.85" cy="218.27" rx="1.05" ry="1.58"/></g><g id="eye-2" data-name="eye"><path class="cls-28" d="M260.67,215.94c1.11,4.63,4.23,8,6.64,7.46s3.48-4.7,2.37-9.33-3.95-8-6.36-7.45S259.57,211.31,260.67,215.94Z"/><path class="cls-29" d="M267.14,221.68c1.35-.14,2.24-2.2,2-4.59s-1.55-4.22-2.9-4.08-2.25,2.2-2,4.59S265.79,221.83,267.14,221.68Z"/><ellipse class="cls-30" cx="267.12" cy="214.92" rx="0.85" ry="1.28" transform="translate(-20.94 29.01) rotate(-5.98)"/></g><path class="cls-19" d="M258.42,198c-.21.43-1.45.26-1.48-.75s6.83-14.09,22.94-16.33c5.61-.78,12.27,1.43,15.44,4.67,1.6,1.64,2.32,3.89,1.22,5.63-2.57,4.05-8.27-7.06-17.38-6.93C269.12,184.39,261.22,192.14,258.42,198Z"/><path class="cls-31" d="M295.28,188.71s-5.37-10.57-18.91-6.05C276.21,182.75,285.61,179.75,295.28,188.71Z"/><path class="cls-19" d="M240.38,195.8a.88.88,0,0,1-1.61.15c-.47-.86-.18-16,12.89-26.85,4.56-3.77,11.33-5.51,15.51-4.43,2.1.55,3.71,2.12,3.5,4.24-.47,5-10.28-1.61-18.17,3.52C243.81,178.08,240.3,189.19,240.38,195.8Z"/><path class="cls-31" d="M270.07,167.84s-8.82-7.06-19.42,3.43C250.54,171.43,258,164.27,270.07,167.84Z"/><path class="cls-19" d="M185.68,271c-1-1.63-2.57-.53-2.44,1.59.15,2.37,3.47,12.67,8,27.47-3.06-.18-13.41-1.29-17.34,1.2-2.37,1.5-1.92,6.14-.2,9.85s6.76,11.56,9.31,11,3.53-9.45-6.14-20.4c9.39-.24,15.37,1.2,15.74-.19C194.45,294.5,187.25,273.52,185.68,271Z"/><path class="cls-19" d="M208.19,256.28s.05-4.07,3.57-3.06,9.39,21.71,9.39,21.71l12.9,1.27s4.49-.25,5.29.14c.17.08-2,1.59-1.79,1.69.5.26-.58-.43,0,0a13.25,13.25,0,0,1,4.54,5.71c4.71,11.33-.55,8.77-9.79-4.57l-11.39,1.37a3.34,3.34,0,0,1-3.49-2Z"/></g></g></g></svg>