<svg id="Layer_1" data-name="Layer 1" xmlns="http://www.w3.org/2000/svg" viewBox="0 0 28 31"><defs><style>.cls-1{fill:#550f0e;}.cls-2,.cls-4{fill:#ece5e3;}.cls-2{stroke:#5f4d45;}.cls-2,.cls-5{stroke-miterlimit:10;}.cls-3{fill:#0b1e34;}.cls-5{fill:#da6ef4;stroke:#5b371f;stroke-width:0.5px;}</style></defs><g id="Butterfly_03"><path class="cls-1" d="M10.34,2.23S2.83-3.16,1.26,7.62A9.64,9.64,0,0,1,10.34,2.23Z"/><path class="cls-1" d="M22.21,5s-2.6-3.77-5.14,1A4.79,4.79,0,0,1,22.21,5Z"/><g id="eye"><path class="cls-2" d="M3.21,19.81c.76,5.83,4.17,10.34,7.2,10s4.87-5.32,4.12-11.16-3.83-10.3-6.87-10S2.46,14,3.21,19.81Z"/><path class="cls-3" d="M10.42,27.7c1.68,0,3-2.42,3-5.39s-1.36-5.39-3-5.39-3,2.42-3,5.39S8.74,27.7,10.42,27.7Z"/><ellipse class="cls-4" cx="11.27" cy="19.38" rx="1.05" ry="1.58"/></g><g id="eye-2" data-name="eye"><path class="cls-2" d="M17.09,17.05c1.1,4.63,4.22,8,6.63,7.46s3.48-4.7,2.38-9.33-4-8-6.37-7.45S16,12.42,17.09,17.05Z"/><path class="cls-3" d="M23.55,22.79c1.35-.14,2.25-2.2,2-4.59S24,14,22.64,14.12s-2.24,2.2-2,4.59S22.2,22.94,23.55,22.79Z"/><ellipse class="cls-4" cx="23.54" cy="16.03" rx="0.85" ry="1.28" transform="translate(-1.54 2.54) rotate(-5.98)"/></g></g><path class="cls-5" d="M3.21,19.81c.76,5.83,4.17,10.34,7.2,10s4.87-5.32,4.12-11.16-3.83-10.3-6.87-10S2.46,14,3.21,19.81Z"/><path class="cls-5" d="M17.09,17.05c1.1,4.63,4.22,8,6.63,7.46s3.48-4.7,2.38-9.33-4-8-6.37-7.45S16,12.42,17.09,17.05Z"/></svg>