<svg xmlns="http://www.w3.org/2000/svg" xmlns:xlink="http://www.w3.org/1999/xlink" viewBox="0 0 339.07 334.71"><defs><style>.cls-1{isolation:isolate;}.cls-2{fill:#221f1f;stroke:#eee8d2;stroke-width:4px;}.cls-19,.cls-2,.cls-20,.cls-28{stroke-miterlimit:10;}.cls-3{fill:url(#linear-gradient);}.cls-4{fill:#ffda22;}.cls-5{fill:#f93a3a;}.cls-6{fill:#ba2025;}.cls-7{fill:#ffc10d;}.cls-8{fill:url(#linear-gradient-2);}.cls-9{fill:url(#linear-gradient-3);}.cls-10{fill:url(#linear-gradient-4);}.cls-11{fill:url(#linear-gradient-5);}.cls-12{fill:url(#linear-gradient-6);}.cls-13{fill:url(#linear-gradient-7);}.cls-14{fill:url(#linear-gradient-8);}.cls-15,.cls-18{mix-blend-mode:multiply;}.cls-15{fill:url(#linear-gradient-9);}.cls-16{fill:url(#linear-gradient-10);}.cls-17{fill:url(#linear-gradient-11);}.cls-18{fill:url(#linear-gradient-12);}.cls-19{fill:#895800;stroke:#473300;}.cls-20,.cls-26{fill:#e476ff;}.cls-20{stroke:#47201f;}.cls-21{fill:#9d13bf;}.cls-22{fill:#7a3819;}.cls-23{fill:#83381b;}.cls-24{fill:#550f0e;}.cls-25{fill:#f4c813;}.cls-27{fill:#f3ba19;}.cls-28,.cls-30{fill:#ece5e3;}.cls-28{stroke:#5f4d45;}.cls-29{fill:#0b1e34;}.cls-31{fill:#fdbd2c;}</style><linearGradient id="linear-gradient" x1="9133.92" y1="-9079.14" x2="9340.34" y2="-9079.14" gradientTransform="matrix(-0.24, 0.52, -0.47, 0.21, -1861.16, -2683.13)" gradientUnits="userSpaceOnUse"><stop offset="0.01" stop-color="#e68625"/><stop offset="1" stop-color="#f9a748"/></linearGradient><linearGradient id="linear-gradient-2" x1="-1014.56" y1="-319.87" x2="-1020.51" y2="-321.8" gradientTransform="matrix(0.58, -0.1, -0.39, 0.84, 742.12, 240.35)" xlink:href="#linear-gradient"/><linearGradient id="linear-gradient-3" x1="-1048.71" y1="-293.53" x2="-1065.66" y2="-299.04" gradientTransform="matrix(0.58, -0.1, -0.39, 0.84, 742.12, 240.35)" xlink:href="#linear-gradient"/><linearGradient id="linear-gradient-4" x1="-1083.06" y1="-291.23" x2="-1100.01" y2="-296.73" gradientTransform="matrix(0.58, -0.1, -0.39, 0.84, 742.12, 240.35)" xlink:href="#linear-gradient"/><linearGradient id="linear-gradient-5" x1="-1087.27" y1="-266.87" x2="-1096.13" y2="-269.75" gradientTransform="matrix(0.58, -0.1, -0.39, 0.84, 742.12, 240.35)" xlink:href="#linear-gradient"/><linearGradient id="linear-gradient-6" x1="7806.85" y1="-6927.22" x2="7798.97" y2="-6929.78" gradientTransform="matrix(-0.32, 0.69, -0.62, 0.27, -1546.59, -3364.51)" xlink:href="#linear-gradient"/><linearGradient id="linear-gradient-7" x1="7834.7" y1="-6936.9" x2="7826.82" y2="-6939.46" gradientTransform="matrix(-0.32, 0.69, -0.62, 0.27, -1546.59, -3364.51)" xlink:href="#linear-gradient"/><linearGradient id="linear-gradient-8" x1="7865.33" y1="-6948.08" x2="7859.3" y2="-6950.04" gradientTransform="matrix(-0.32, 0.69, -0.62, 0.27, -1546.59, -3364.51)" xlink:href="#linear-gradient"/><linearGradient id="linear-gradient-9" x1="7936.98" y1="-7008.48" x2="7782.9" y2="-7058.5" gradientTransform="matrix(-0.32, 0.69, -0.62, 0.27, -1546.59, -3364.51)" xlink:href="#linear-gradient"/><linearGradient id="linear-gradient-10" x1="-1139.87" y1="-210.51" x2="-1144.71" y2="-212.08" gradientTransform="matrix(0.58, -0.1, -0.39, 0.84, 742.12, 240.35)" xlink:href="#linear-gradient"/><linearGradient id="linear-gradient-11" x1="13516.55" y1="-7188.91" x2="13722.96" y2="-7188.91" gradientTransform="matrix(0.06, 0.4, -0.69, 0.29, -5598.65, -3064.69)" xlink:href="#linear-gradient"/><linearGradient id="linear-gradient-12" x1="11212.13" y1="-5576.71" x2="11058.05" y2="-5626.72" gradientTransform="matrix(0.07, 0.53, -0.91, 0.38, -5679.18, -3585.69)" xlink:href="#linear-gradient"/></defs><g class="cls-1"><g id="Layer_1" data-name="Layer 1"><g id="Butterfly_02"><path class="cls-2" d="M189,243.75c9.9-7.31,24.28-24.9,30.59-32.24,8.39-9.72,16.73-19.56,24.86-29.41,20.11-24.4,39.45-49.51,55.93-74.33,12.51-18.86,24.91-39.08,30.1-55.36,1.95-6.11,2.38-11.37-.18-13.75-3.13-2.91-10.67-.16-18.17,3.88-9.75,5.26-20.65,13.29-30.92,20.63-11.31,8.07-26.69,14.4-35.33,16.15-15.77,3.18-37.54,25.19-46.74,45.31-5,11-6.5,36.67-7.85,45.37-1.54,9.94-3.41,20.12-4.69,29.87s-2.13,19.08-4.42,29.56c-1.32,6-5.69,18.09.25,17.56C184.19,246.83,186.45,245.63,189,243.75Z"/><path class="cls-3" d="M171.38,251.43a35.33,35.33,0,0,1-10.15,2.33c-6.29.62-11.45-.37-16.69-1.19A42.11,42.11,0,0,1,120.27,240a34.08,34.08,0,0,1-7.11-11.3,31.08,31.08,0,0,1-2.45-14.12c.41-5.68,3.43-13.35,11.45-21.33a71.16,71.16,0,0,1,20-13.53,100.48,100.48,0,0,1,29.37-9.22c4.57-.63,8.83-.65,11.66,1s3.83,5,4.29,8.92c1.07,8.79-1,20.33-2.62,31.17-.8,5.34-1.65,10.71-2.48,16.07-.42,2.75-.89,5.52-1.26,8.22-.3,2.23-.12,4.31-1.39,7.15A17.18,17.18,0,0,1,171.38,251.43Z"/><path class="cls-4" d="M214,188.58a129.4,129.4,0,0,0-7.36,14.64c-3.08,6.78-6.06,13.61-10.19,20.81l-.59,1c3.41-4.63,6.84-9.26,10.1-13.91,4.85-6.9,9.69-13.75,14.26-20.65,2.52-3.79,5-7.62,7.47-11.44C227.07,174.13,218.31,181.41,214,188.58Z"/><path class="cls-5" d="M298.37,81.52c1.22-3.08,3.49-11.63-2.22-7.33-4.78,3.6-8.71,13-10.39,16.65-2.87,6.31-4.91,12.21-7.9,18.57A300.12,300.12,0,0,1,249.72,158a6.11,6.11,0,0,1,0,2,23,23,0,0,1-2.63,6.89c1.22-2.34,4.32-6,6-8.52q3-4.34,6-8.67,6.06-9,11.64-17.87c7.31-11.69,13.88-23.25,19.68-34.51,2.71-5.26,5.91-10.76,7.92-15.73A.14.14,0,0,1,298.37,81.52Z"/><path class="cls-5" d="M286.64,85.94c.52-5.08-3.42-7-10.4-2.31-10.61,7.08-14.11,18.16-16.23,25.45-3.25,11.13-6.15,21.55-12.2,34.23-4,8.43-8.46,17.31-13.62,26.3,3.79-5.08,9-11.24,13.09-12.79a2,2,0,0,1,1.72,0c16.75-23.44,26.14-45.16,35.68-66.5C285.15,89.22,285.81,87.68,286.64,85.94Z"/><path class="cls-5" d="M243.41,116.35a2.26,2.26,0,0,1,0,.26,1.75,1.75,0,0,1-.47.87,115.86,115.86,0,0,0-4.17,11.94,275.43,275.43,0,0,1-21.42,52.76,30.79,30.79,0,0,1,4.67-4.35c3.76-2.75,6.26-3.49,7.41-2.41,3.9-6.5,7.33-12.94,10.59-19.2a255.41,255.41,0,0,0,11.29-23.95,199.88,199.88,0,0,0,6-19.38c1.3-4.55,2.46-9.6,5.34-15.07h0a13.08,13.08,0,0,0-9.62,3.65,33.93,33.93,0,0,0-6.61,8.81C245.25,112.36,244.28,114.38,243.41,116.35Z"/><path class="cls-5" d="M222.33,125a58.36,58.36,0,0,0-10.43,21.52c-2.5,9-3.91,17.22-6.05,26-1,4.1-2.1,8.28-3.6,12.7-.6,1.77-1.33,3.61-2.06,5.46a20.25,20.25,0,0,1,1.8-1.31c4.79-3.13,9.2-4.29,11.43-3a253,253,0,0,0,17.63-38.51c3-8.37,4.7-16,7.78-24.44.64-1.75,1.35-3.69,2.2-5.74C241.28,111,230.64,114.29,222.33,125Z"/><path class="cls-4" d="M186.9,237.41c4.57-7.63,9.25-15.23,12.74-22.59,3.39-7.17,6.11-14.16,10.16-21.6.7-1.27,1.5-2.66,2.39-4.08-2.11-1.67-8.9.32-13.46,4.64-1.24,6.57-2.74,13.33-4.8,20.44-1.37,4.73-2.89,9.58-4.87,14.66-1.11,2.86-2.19,5.71-3,8.38-.19.68-.38,1.39-.55,2.09C186,238.7,186.44,238.06,186.9,237.41Z"/><path class="cls-4" d="M229.87,177.91c-2.42,3.68-4.7,7.36-7.08,11-6,9.18-12.49,18.47-19.26,27.68-5.06,6.89-10.3,13.8-15,20.68-.83,1.36-1.64,2.71-2.44,4.07,1.19-2,5.94-6.59,7.77-8.66q3.93-4.41,7.82-8.85,7.92-9,15.55-18.23c6.55-7.89,13.21-15.83,19-23.9,4.74-6.56,11.31-16.27,11.11-20.79-.13-3-2.83-1.64-6.67,2.67A121.75,121.75,0,0,0,229.87,177.91Z"/><path class="cls-2" d="M171.38,251.43a35.33,35.33,0,0,1-10.15,2.33c-6.29.62-11.45-.37-16.69-1.19A42.11,42.11,0,0,1,120.27,240a34.08,34.08,0,0,1-7.11-11.3,31.08,31.08,0,0,1-2.45-14.12c.41-5.68,3.43-13.35,11.45-21.33a71.16,71.16,0,0,1,20-13.53,100.48,100.48,0,0,1,29.37-9.22c4.57-.63,8.83-.65,11.66,1s3.83,5,4.29,8.92c1.07,8.79-1,20.33-2.62,31.17-.8,5.34-1.65,10.71-2.48,16.07-.42,2.75-.89,5.52-1.26,8.22-.3,2.23-.12,4.31-1.39,7.15A17.18,17.18,0,0,1,171.38,251.43Z"/><path class="cls-5" d="M165.22,189.05l0,.36s0,.05,0,.08a15.62,15.62,0,0,0,1.13,4.56c1.42,3.86,3.53,7.08,5,10.86a86,86,0,0,1,5.32,20.2,65,65,0,0,1,.9,11.38c-.12,3.55-.55,7.32-.91,11a16.83,16.83,0,0,0,3-4.43c1.27-2.84,1.09-4.92,1.39-7.15.37-2.7.84-5.47,1.26-8.22.83-5.36,1.68-10.73,2.48-16.07.24-1.66.5-3.33.76-5-.12-2.85.88-6.66.74-9.46a41.76,41.76,0,0,0-2.45-11.3c-.9-2.82-2.17-5.42-4.59-6.69-2-1-5.44-1.61-10.15,2A9.17,9.17,0,0,0,165.22,189.05Z"/><path class="cls-5" d="M176,248.29c.48-5.36,1.08-10.78.74-15.52a96.49,96.49,0,0,0-2-14.2,81.34,81.34,0,0,0-7.54-20.46c-1.22-2.28-2.65-4.76-2.59-8.27h0a10,10,0,0,0-4.2-7.65c-2.16-1.63-5.46-3.38-10.82-.42a21.8,21.8,0,0,0-6.52,5.48,9.63,9.63,0,0,0-2.14,5.3,9.39,9.39,0,0,0,2,6.28,2.56,2.56,0,0,0,.41.09c.16,0,.1.22,0,.4.2.25.39.49.59.72,2.58,3,5.93,5.22,8.94,7.79a75.42,75.42,0,0,1,9.53,9.55,18,18,0,0,1,1.35,1.27c.07.08,0,.22-.09.35.55.73,1.09,1.48,1.61,2.25a59.94,59.94,0,0,1,6.52,13.12l.4.68c0,.06,0,.16-.06.28.55,1.62,1,3.28,1.5,5a42.4,42.4,0,0,1,.88,6.84c.07.78.14,1.57.25,2.32C175.08,249.11,175.53,248.72,176,248.29Z"/><path class="cls-5" d="M164,226.4c-2.59-2.11-5.75-4.59-11.22-3a17.55,17.55,0,0,0-7.8,5.23c-3.89,4.39-4.38,8.23-4.29,10.81a18.6,18.6,0,0,0,6.22,13.46l.07.07a53.38,53.38,0,0,0,14.26.8,35.33,35.33,0,0,0,10.15-2.33A12.85,12.85,0,0,0,174,250c-.26-1.8-.36-3.74-.51-5.63a30.74,30.74,0,0,0-1.9-7.72c-.18-.52-.37-1-.56-1.56A31.09,31.09,0,0,0,164,226.4Z"/><path class="cls-4" d="M160.72,217.29a18,18,0,0,0-11.4-4.08c-3.93,0-10.92,2-16.57,10-3.65,5.22-3.88,9.4-3.54,12.31a15.25,15.25,0,0,0,2.88,7.4,44.54,44.54,0,0,0,9.22,9c1.06.25,2.13.46,3.23.63l.83.13a19.84,19.84,0,0,1-4.61-8.13c-.87-2.95-2.53-8.9,3.68-15.9,5.12-5.76,9.76-6.72,12.76-6.45,4.34.39,7.17,2.86,9.6,5.47a36.78,36.78,0,0,1,2.43,3c-.34-.77-.69-1.54-1.06-2.3A52.85,52.85,0,0,0,161.6,218C161.31,217.75,161,217.51,160.72,217.29Z"/><path class="cls-5" d="M123.29,207.85c.2-.06.15.2,0,.44a7.5,7.5,0,0,0,.25,1.11,11.13,11.13,0,0,0,3.08,4.91,17.34,17.34,0,0,0,8.83,4.92c.06,0,.08.07.08.14a25.49,25.49,0,0,1,6.92-5.13,15.48,15.48,0,0,1,13.26-.64,23.61,23.61,0,0,1,3.52,1.64c-.3-.33-.6-.66-.91-1-3.64-3.77-7.84-6.93-11.8-10.36a25.3,25.3,0,0,1-4.29-4.42c-3.17-1-12.38-6.92-17.66,3.09a9.54,9.54,0,0,0-1.33,5.3Z"/><path class="cls-5" d="M122.5,208.79c-3.15,1.23-4,4.89-4.29,6.88a24.79,24.79,0,0,0,.13,7.41c.48,2.87,2.06,4.74,3.63,6.55,2.18,2.53,4.63,4.79,6.54,7.6a16.47,16.47,0,0,1,.5-7.31,24.31,24.31,0,0,1,6-10h0a17,17,0,0,1-9.65-5.73A9.57,9.57,0,0,1,122.5,208.79Z"/><path class="cls-6" d="M318.37,57.36A10,10,0,0,0,324,52.63c1.14-2,1.15-3.62.61-4.56a2.25,2.25,0,0,0-1.89-.41c-2.43.4-5.42,3.79-6.38,6.67C315.62,56.58,316.38,57.89,318.37,57.36Z"/><path class="cls-7" d="M296.53,63.27c-.7-1.4,2-5.58,4.84-7.47a10.15,10.15,0,0,1,.91-.52.81.81,0,0,1,.51-.48c2.71-.84,3.78,1.7.12,5.75C300.17,63.59,297.23,64.65,296.53,63.27Z"/><path class="cls-8" d="M277.56,74.75c-.54-.72.56-3.25,2.52-4.79,1.32-1,2-.91,2.2-.32.45.23.07,1.41-.82,2.54C280.2,73.8,278.1,75.5,277.56,74.75Z"/><path class="cls-9" d="M243,104c-3.4.73-3.55-3-.1-7.75,3.7-5.14,8.71-8.28,10.71-6.85,1,.7,1.11,2.76-.27,5.17C251.73,98.49,246.43,103.29,243,104Z"/><path class="cls-10" d="M222.33,109.37c-3.4.72-3.55-3-.1-7.75,3.7-5.15,8.71-8.29,10.71-6.86,1,.71,1.11,2.77-.27,5.18C231,103.84,225.72,108.64,222.33,109.37Z"/><path class="cls-11" d="M213.11,125.55c.8-2.34,3.72-5.27,5.65-5.69.76-.16,1.18.11,1.2.69.77.62-.36,3-2.55,4.9C215.05,127.45,212.3,128,213.11,125.55Z"/><path class="cls-12" d="M204.79,147.09c2.72-2,3.32-5,2-5.06a2.53,2.53,0,0,0-1.42.62,4.26,4.26,0,0,0-.49.31,9,9,0,0,0-2.09,2.62c-.55,1-.8,1.89-.55,2.34S203.7,147.89,204.79,147.09Z"/><path class="cls-13" d="M201.77,163.69c2.72-2,3.32-5,1.95-5.06a2.55,2.55,0,0,0-1.42.63,3.22,3.22,0,0,0-.49.31,9.11,9.11,0,0,0-2.09,2.61c-.55,1-.8,1.9-.55,2.35S200.68,164.49,201.77,163.69Z"/><path class="cls-14" d="M198.32,182.06c2.08-1.53,2.54-3.81,1.49-3.88a2,2,0,0,0-1.09.48,1.78,1.78,0,0,0-.37.24,6.79,6.79,0,0,0-1.6,2c-.42.76-.62,1.45-.43,1.8S197.48,182.67,198.32,182.06Z"/><path class="cls-5" d="M220,206.83l.55-.69c2.54-3.28,4.86-6.64,7.34-9.95l7.34-9.78c5.08-6.8,10.14-13.6,15.07-20.41,9.85-13.63,19.15-27.27,27.33-40.73,8.32-13.71,15.46-27.1,23.75-40.79,1.88-3.11,3.71-6.23,5.87-9.39,1.7-2.47,4.26-6.13,6.78-7.48,3.48-1.86,2.49,2.69,2,5a64.23,64.23,0,0,1-6.65,16.22c-6.93,12.62-16.49,25.67-26.32,38.54s-20.11,26-30,39c-8.69,11.47-17.51,23-27,34.3-1.07,1.4-2.22,2.71-3.26,4.1a14.82,14.82,0,0,1-2.4,2.65C219.78,208,219.47,207.46,220,206.83Z"/><path class="cls-15" d="M252.52,154q-1.36,2-2.8,4a1.79,1.79,0,0,1,0,.24C250.68,156.84,251.61,155.43,252.52,154Z"/><path class="cls-7" d="M117.05,207.33c-1.2.26-1.27-1-.06-2.69s3.07-2.91,3.78-2.41c.35.24.4,1-.08,1.8A6.76,6.76,0,0,1,117.05,207.33Z"/><path class="cls-6" d="M130.64,195.27c-2.23.49-2.35-1.89-.1-5,2.41-3.34,5.69-5.39,7-4.47.65.44.75,1.77-.15,3.34C136.34,191.66,132.87,194.78,130.64,195.27Z"/><path class="cls-16" d="M164.08,178.54c-1,.21-1-.83,0-2.18s2.48-2.35,3.06-2c.28.2.32.77-.07,1.46A5.45,5.45,0,0,1,164.08,178.54Z"/><path class="cls-2" d="M193.84,229.18c11.61-8,21.48-23.66,26.23-30.33,6.28-8.84,12.39-17.74,18.06-26.56,14-21.85,25.87-43.85,32.53-64.64,5.06-15.8,8.51-32.36,2.15-44C270.43,59.32,266,56,258.7,55.52c-8.88-.61-20.55,3.76-30.84,8.89-13.36,6.66-26.16,15.4-38.45,23.49-13.55,8.92-36.6,18.26-51.38,22.42-26.95,7.6-46.54,28.62-44,44,1.39,8.41,24.26,24.28,30.4,30,7,6.49,13.6,13.26,20.91,19.55s15,12.18,21.13,19.27c3.51,4.07,7.23,12.87,18.05,10.41A27.86,27.86,0,0,0,193.84,229.18Z"/><path class="cls-17" d="M167.82,240.14a118,118,0,0,1-17.06,5.06c-11.39,2.64-22.26,3.91-33.07,5.31a274.13,274.13,0,0,1-58.95,1.28,152.36,152.36,0,0,1-24.88-4.19c-7-1.81-13.9-4-18.8-7.56s-6.82-9.22.54-16.89c6.1-6.35,16-11.4,24.61-15.3a280.93,280.93,0,0,1,46.9-16.12c8.11-2,16.23-3.57,23.32-3.59a39.85,39.85,0,0,1,17.14,3.79c10.82,4.87,18.4,12.52,26.16,19.58,3.82,3.48,7.57,7,11.35,10.51,1.93,1.79,3.82,3.61,5.82,5.37,1.64,1.44,4.07,2.62,4.5,4.77C175.94,234.86,172.71,238.19,167.82,240.14Z"/><path class="cls-4" d="M186.33,187.18c-.81,4.16-.06,7.8.58,11.41.91,5.17,2,10.33,1.35,16.13,0,.27-.07.55-.11.82,1.89-4,3.83-8,5.41-12,2.34-5.88,4.75-11.72,6.59-17.5,1-3.18,1.84-6.34,2.82-9.54C196.94,173.8,187.47,181.32,186.33,187.18Z"/><path class="cls-5" d="M240.55,92.69c-.74-2.29-5-8.22-11.57-3.59-5.54,3.88-3.69,10.9-3.21,13.71.83,4.81,2.83,9.07,3.48,14,1.59,11.81,1.12,24.86-5.17,39.2a6.86,6.86,0,0,1,2,1.2,6.26,6.26,0,0,1,1.85,5.07c0-1.84,2.22-5.17,3.05-7.27q1.47-3.69,2.75-7.35a147.11,147.11,0,0,0,4.37-14.89A111,111,0,0,0,241.17,105c-.08-4.12.53-8.56-.61-12.26C240.56,92.71,240.55,92.7,240.55,92.69Z"/><path class="cls-5" d="M222.54,99.56c-4.09-3.22-13.49-2.93-22.17,2.38-13.21,8.06-8.81,16-5.57,21.08,4.93,7.82,9.81,15.1,10.94,24.87a86.37,86.37,0,0,1,.26,20.64c2.18-4.4,6.05-10,12.24-12.37a9,9,0,0,1,3.24-.65c8.55-20.07,4.77-36.44,1.65-52.65C223,102.06,222.71,100.9,222.54,99.56Z"/><path class="cls-5" d="M170.36,133.36l.24.16c.21.17.16.42,0,.68a33.69,33.69,0,0,0,4,8.65c7.05,11.76,12.36,24.19,11.85,39.28a19.29,19.29,0,0,1,4.59-4.28c4.42-3,8.47-4.35,11.74-4.12a80.82,80.82,0,0,0,1-15.31c-.05-6.4-.45-12.8-2.38-18.4-1.76-5.07-5-9.3-7.9-13.75-2.08-3.19-4.9-6.63-4.88-10.94h-.06c-4.22.8-10.9,2.17-14.72,5.66a10.82,10.82,0,0,0-3.84,7.65A17.68,17.68,0,0,0,170.36,133.36Z"/><path class="cls-5" d="M138.73,146.16c-3.84,7-1.34,12.24,1.61,16.64,4.2,6.27,9.77,11.7,14.42,17.7a51.58,51.58,0,0,1,5.82,8.9,33.9,33.9,0,0,1,1.54,4,22.9,22.9,0,0,1,2.12-1.44c6-3.6,13.29-5.89,18.84-5.92a59.18,59.18,0,0,0-4.84-29.39c-2.71-6.08-7-11.27-9.58-17.43a33.92,33.92,0,0,1-1.53-4.22C160.88,130.9,143.88,136.74,138.73,146.16Z"/><path class="cls-4" d="M183.46,226.15c1.12-6.21,2.45-12.45,1.75-18.11-.68-5.51-2.48-10.67-2.18-16.58a18.91,18.91,0,0,1,.48-3.3c-5.71-.24-16.69,3.4-21.09,7.63a89.87,89.87,0,0,1,11.29,14,50.81,50.81,0,0,1,5.35,10.52,28.68,28.68,0,0,0,2.73,6.08c.31.48.66,1,1,1.45C183,227.25,183.25,226.7,183.46,226.15Z"/><path class="cls-4" d="M206.07,175.05c-.95,3.08-1.63,6.1-2.54,9.13a176.7,176.7,0,0,1-9.13,23.5c-2.78,5.95-5.87,12-8.06,17.8-.22,1.11-.41,2.21-.59,3.32.26-1.64,4.75-6.09,6.2-8,2.07-2.7,4.11-5.41,6.09-8.12,4.05-5.5,7.9-11,11.48-16.51C214.13,189.1,218.92,182,222,175c2.48-5.63,5.32-13.81.42-16.44-3.24-1.73-7.05.05-10.07,4A38.1,38.1,0,0,0,206.07,175.05Z"/><path class="cls-2" d="M167.82,240.14c-5.7,2.27-8.11,2.57-13.62,4.54-9.06,3.23-23.37,6.08-34.19,7.48-20.91,2.71-43.38,1.21-61.27-.37a152.36,152.36,0,0,1-24.88-4.19c-7-1.81-13.9-4-18.8-7.56s-6.82-9.22.54-16.89c6.1-6.35,16-11.4,24.61-15.3a280.93,280.93,0,0,1,46.9-16.12c8.11-2,16.23-3.57,23.32-3.59a39.85,39.85,0,0,1,17.14,3.79c10.82,4.87,18.4,12.52,26.16,19.58,3.82,3.48,7.57,7,11.35,10.51,1.93,1.79,3.82,3.61,5.82,5.37,1.64,1.44,4.07,2.62,4.5,4.77C175.94,234.86,172.71,238.19,167.82,240.14Z"/><path class="cls-5" d="M93.64,205.06l.43.21a.08.08,0,0,1,.05,0,36.25,36.25,0,0,0,6.72,2.32c6.59,1.79,13.83,3,20.5,4.68a203.16,203.16,0,0,1,30.36,10.16A89.33,89.33,0,0,1,164.81,229c3.32,2.17,6.27,4.58,9.32,6.93,1-1.25,1.11-1.74.87-2.91-.43-2.16-2.86-3.34-4.5-4.77-2-1.76-3.49-4.39-5.42-6.18-3.78-3.51-7.53-7-11.35-10.51-1.19-1.08-2.37-2.17-3.56-3.27-3.06-1.66-5-4.3-8-5.92-4.75-2.52-10.3-4.17-16-5.87a49.41,49.41,0,0,0-15.47-2.35c-4.76.1-12,1-17.37,4.87C89.66,201.59,91.05,203.61,93.64,205.06Z"/><path class="cls-5" d="M93.15,205.77c-4-2.05-9.83-2.86-15.68-3.05s-13.82-.05-21.11,3.65c-2.67,1.37-6,3.57-7,5.64a2.84,2.84,0,0,0,1.21,3.93c2.5,1.69,6.19,2.51,10,3.05l.87-.09c.31-.05.4.1.33.25l1.83.22c8,.88,16.57,1,24.88,1.43,9.46.51,18.78,1.2,27.77,2.27,1.3.07,2.59.16,3.86.27.21,0,.24.12.17.24,1.79.24,3.57.49,5.33.77a225.08,225.08,0,0,1,25.59,5.49l1.45.26a.17.17,0,0,1,.15.18c2.68.78,5.31,1.59,7.88,2.45a70.48,70.48,0,0,1,8.52,3.77c.92.45,1.84.89,2.8,1.3a15.31,15.31,0,0,0,1.4-1.19c-4.45-3.39-8.74-6.84-14.13-9.55a163,163,0,0,0-18.08-7.76,245.27,245.27,0,0,0-34.87-9.51"/><path class="cls-5" d="M128.67,227.84c-7.06-.33-15.59-.67-24.45,2.25-3.55,1.17-7.61,3.23-9.67,5.95-3.06,4-.15,6.5,2.6,8,6.47,3.54,15.91,5.18,25.37,5.8.07,0,2.11-.25,2.17-.24,9.17-1.18,18.35-3.21,28-5.44,5.51-1.28,9.63-3.39,15.34-5.66,1.28-.51,2.27.5,3.28-.16-2.3-1-4.43-2.11-6.61-3.19a71,71,0,0,0-11.35-3.93l-2.62-.73A162.49,162.49,0,0,0,128.67,227.84Z"/><path class="cls-4" d="M113.3,223.57a115.49,115.49,0,0,0-25.87,1.68c-7.46,1.45-18.9,5.12-21.61,12-1.76,4.44,2,7,5.55,8.63a47.37,47.37,0,0,0,12.9,3.39,260.76,260.76,0,0,0,26.61,2q3.39-.35,6.81-.79l1.7-.22a81.93,81.93,0,0,1-16.93-3.19c-4.63-1.45-13.75-4.41-8.88-10.84,4-5.29,11.92-7.54,17.93-8.47,8.69-1.33,16.56-.87,23.82-.19,2.58.24,5.11.55,7.6.89-1.42-.34-2.86-.67-4.31-1-7.32-1.62-15-2.87-22.93-3.82Z"/><path class="cls-5" d="M32.32,231.45c.33-.11.49.06.45.26a15.38,15.38,0,0,0,1.57.58,49.86,49.86,0,0,0,10.8,1.82,113.42,113.42,0,0,0,21.8-.25.39.39,0,0,1,.29.06,25.44,25.44,0,0,1,8.09-5.57c8.4-3.84,17.47-4.72,24.72-5.17,2.83-.18,5.62-.27,8.35-.29l-2.7-.26c-10.74-.94-21.92-1.31-32.92-1.93-4.3-.24-8.61-.51-12.62-1.1-7,.56-30.59.34-30.67,8.23,0,1.74,1.16,2.86,2.77,3.65Z"/><path class="cls-5" d="M31.75,232.3c-4.78,1.87-2.81,4.38-1.32,5.66a28.06,28.06,0,0,0,7.67,4.38c3.78,1.54,8.68,2.09,13.48,2.61,6.71.72,13.65,1.19,20.11,2.18a13.38,13.38,0,0,1-6.35-4.55c-1.4-2.08-1.44-4.81,1.4-8.14h0a110.55,110.55,0,0,1-24.19.06C39.1,234.14,34.7,233.68,31.75,232.3Z"/><path class="cls-6" d="M254.6,71c2.87-.9,5.87-2.73,6.07-4.87.14-1.62-1.43-2.58-3.41-2.94a13,13,0,0,0-4,.44c-4.24,1.11-6.56,4.22-5.51,6.29C248.56,71.54,251.32,72.05,254.6,71Z"/><path class="cls-7" d="M218.77,82.43c-2.74-.58-1.77-4.05,1.79-6.21.4-.24.8-.45,1.2-.64,0-.15.09-.33.5-.47,4.34-1.48,8.92-.35,6,3.39C226.05,81.32,221.48,83,218.77,82.43Z"/><path class="cls-7" d="M194,96.15c-1.74-.24-2.18-2.15,0-3.77a4.59,4.59,0,0,1,3.88-1c1.09,0,1.54.82,1,1.82C198.09,94.63,195.78,96.4,194,96.15Z"/><path class="cls-7" d="M154.34,126.31c-5.75,1.66-9.73-.49-7.94-4.59,1.93-4.42,8.36-8.1,13.62-8,2.59.06,4.89,1.25,4.67,3.19C165.42,119.87,160.1,124.65,154.34,126.31Z"/><path class="cls-6" d="M176.14,109.71c-5.76,1.66-9.73-.49-7.94-4.6,1.92-4.41,8.36-8.1,13.61-8,2.6.06,4.89,1.25,4.68,3.19C187.22,103.26,181.89,108.05,176.14,109.71Z"/><path class="cls-7" d="M123.07,136.8c-5.76,1.66-9.74-.49-7.94-4.6,1.92-4.41,8.35-8.1,13.61-8,2.59.07,4.89,1.25,4.67,3.19C134.15,130.35,128.82,135.14,123.07,136.8Z"/><path class="cls-6" d="M121.65,149.8c-.83-1.68,1.83-4.49,5.1-5.44a4.25,4.25,0,0,1,3,0c2.09.09,2.35,1.95,0,3.85C127.26,150.23,122.5,151.53,121.65,149.8Z"/><path class="cls-7" d="M127.29,165.68c3.21-2.17,1.38-4.17-1.34-3.73a5.49,5.49,0,0,0-2.09.89,4.33,4.33,0,0,0-.62.36,3.23,3.23,0,0,0-1.38,2.32,1.44,1.44,0,0,0,1.3,1.6C124.31,167.35,126,166.56,127.29,165.68Z"/><path class="cls-7" d="M138.14,176.7c3.2-2.17,1.37-4.17-1.34-3.73a5.47,5.47,0,0,0-2.1.89,4.86,4.86,0,0,0-.61.36,3.19,3.19,0,0,0-1.38,2.32,1.43,1.43,0,0,0,1.29,1.6C135.16,178.37,136.85,177.58,138.14,176.7Z"/><path class="cls-7" d="M149.91,188.93c2.45-1.66,1.05-3.19-1-2.86a4,4,0,0,0-1.6.69,2.9,2.9,0,0,0-.48.27,2.44,2.44,0,0,0-1.05,1.77,1.1,1.1,0,0,0,1,1.23A5,5,0,0,0,149.91,188.93Z"/><path class="cls-5" d="M216.08,195.92l.37-.61c1.56-2.88,2.64-5.73,4.07-8.6s2.84-5.67,4.24-8.5c2.91-5.9,5.77-11.79,8.37-17.64,5.21-11.71,9.33-23.22,11.48-34.23,2.2-11.2,2.45-21.78,4.6-33A46.18,46.18,0,0,1,251,85.64c.77-2.09,2-5.2,5.47-6.92,4.8-2.37,7.45.71,8.79,2.27,2.76,3.25,3.81,7.41,3.52,12.1-.63,10-5.83,21.31-11.75,32.55-6,11.39-12.42,22.81-18.26,34.18a294.59,294.59,0,0,1-17.23,30.25c-.64,1.22-1.53,2.42-2.13,3.63a6.55,6.55,0,0,1-1.94,2.45C216.85,196.66,215.75,196.48,216.08,195.92Z"/><path class="cls-18" d="M225.45,152.59c-.42,1.12-.87,2.25-1.37,3.38.1,0,.18.1.27.14C224.76,154.94,225.12,153.76,225.45,152.59Z"/><path class="cls-7" d="M19.87,233.39c-2,.59-3.44-.15-2.81-1.59a5.66,5.66,0,0,1,4.82-2.8c.92,0,1.73.42,1.65,1.1C23.79,231.12,21.9,232.8,19.87,233.39Z"/><path class="cls-7" d="M33.78,221.27c-3.77,1.1-6.38-.28-5.2-3,1.27-2.87,5.5-5.28,8.94-5.21,1.7,0,3.21.79,3.06,2C41.06,217.06,37.56,220.18,33.78,221.27Z"/><path class="cls-7" d="M81,199.19c-1.65.48-2.78-.12-2.27-1.29a4.59,4.59,0,0,1,3.9-2.27c.74,0,1.39.35,1.33.9C84.13,197.35,82.6,198.71,81,199.19Z"/><path class="cls-19" d="M193.31,242.42s.86-4,4.11-2.28,4.85,23.15,4.85,23.15l12.38,3.82a13.58,13.58,0,0,1,6.38,9c2.13,10.95-1.52,9-7-2.69-.3-.62-2.5,3.44-2.81,2.76s1.39-5.89,1.13-6.51l-11.44-.94a3.33,3.33,0,0,1-3-2.69Z"/><path class="cls-19" d="M155.63,280.83l.1,0c2-.51,8.7.78,12.71,2.73,0,0-2.08-11.22-3.29-16.21-.13-.53,3.93-2.06,3.93-2.06s2.5,19.6,0,19.79c-1.63.13-10.35-2.66-10.35-2.66,4.07,5,7.91,13.9,6.78,17.59C162.57,303,156.43,288.38,155.63,280.83Z"/><path class="cls-20" d="M183.78,255.55c-1.2,1.85-2.46,3.6-3.76,5.24a59.85,59.85,0,0,1-18.46,15.68,57.82,57.82,0,0,1-10.15,4.32,58.86,58.86,0,0,1-21.81,2.58,51,51,0,0,1-12.12-2.32c-6.91-2.27-12.13-5.89-14.36-10-2.63-4.91-1.11-10.56,6.72-15.6,1.42-.91,2.89-1.79,4.38-2.63,2.22-1.24,4.51-2.4,6.84-3.48a137,137,0,0,1,23-8c2.77-.71,5.52-1.35,8.22-1.91a215.17,215.17,0,0,1,39.42-4.46C207.58,240.22,183.78,255.55,183.78,255.55Z"/><path class="cls-21" d="M174.66,240.15c-.06,11.29,3.62,17,1.89,22.16-2.49,7.52-11.08,12-15,14.16a57.82,57.82,0,0,1-10.15,4.32,58.86,58.86,0,0,1-21.81,2.58,51,51,0,0,1-12.12-2.32c-6.91-2.27-12.13-5.89-14.36-10h0c29.58,4.68,66.21-.63,61.61-13.83C157,235.09,170,235.53,170,235.53Z"/><path class="cls-20" d="M220.05,219.85a212.85,212.85,0,0,0-6.63,20.31c-3.06,10.36-6,18.91-13.65,24.64-14.64,11-24.32,6.89-31.29-.23-10.73-11-4.71-25.42-4.71-25.42a3.07,3.07,0,0,1,.5-1.17h0c3-4.65,17.84-13.65,24.4-10.15,13.57,7.23,22.73-22.32,22.73-22.32C217.3,199.68,220.05,219.85,220.05,219.85Z"/><path class="cls-21" d="M213.42,240.16c-3.06,10.36-6,18.91-13.65,24.64-14.64,11-24.32,6.89-31.29-.23-10.73-11-4.71-25.42-4.71-25.42s-1.62,9.39,19.49,15.55c0,0,14.4,3.91,22.29-5.53l3.72-13.68Z"/><path class="cls-21" d="M208.77,252.73s-23.11-4.24-25.51-25.42L194.78,217l17,24.25"/><path class="cls-20" d="M248.49,232.82s10.3-33.28-20-38.72c-7.46-1.34-30.55-3-35.57,27.05-2.06,3.33-10.55,18.27,22.85,29.75,1.42,1.53,7.34,8.18,12.4,1.67C229.2,252.68,252.5,254.19,248.49,232.82Z"/><path class="cls-22" d="M193,221.53c.92-1.06,2.58-3.2,2.6-3.23s-2,1.82-2.94,2.87Z"/><path class="cls-23" d="M227.77,253.46a14.57,14.57,0,0,0,1.64-2.92,29.72,29.72,0,0,1-1.95,2.52Z"/><path class="cls-23" d="M216.15,251.66l.36-.37c-1.82-2.25-4-4.46-4-4.46S214.32,249.4,216.15,251.66Z"/><path class="cls-24" d="M237.4,204.79s-6.28-6.78-10,3.46A9.68,9.68,0,0,1,237.4,204.79Z"/><path class="cls-24" d="M248.47,209.87s-1.78-4.21-5.23-.06A4.78,4.78,0,0,1,248.47,209.87Z"/><path class="cls-23" d="M245.09,234.77a4.5,4.5,0,0,0,2.47-.94,4.12,4.12,0,0,1-4.65-.48l-.3.41A3.41,3.41,0,0,0,245.09,234.77Z"/><path class="cls-25" d="M228.26,217.78,242.53,208s-4.34,8.08-1.25,20.61c1.3,5.27,4.24,9.51-1.85,11.25-12.83,3.65-18.49-6.41-18.49-6.41Z"/><path class="cls-26" d="M228.26,217.78l14.35-10s-4.42,8.28-1.33,20.81c1.3,5.27,4.24,9.51-1.85,11.25-12.83,3.65-18.49-6.41-18.49-6.41Z"/><path class="cls-23" d="M234.6,240.87a20.49,20.49,0,0,0,4.89-.79c1.85-.53,3-1.34,3.54-2.46.78-1.66.11-3.76-.67-6.2-.29-.94-.6-1.91-.85-2.92-3-12.26,1.18-20.32,1.22-20.4a7.19,7.19,0,0,0-1.69,3.24,34.14,34.14,0,0,0,0,17.3c.25,1,.56,2,.86,3,.74,2.32,1.38,4.33.7,5.78-.46,1-1.52,1.69-3.25,2.18-12.51,3.57-18.16-6.18-18.22-6.28l-.4.28a15.65,15.65,0,0,0,13.86,7.32Z"/><path class="cls-27" d="M222.87,232.14l0,0,0-.05Z"/><path class="cls-26" d="M216.82,229.71l6,2.41c-.38.41-3.27,3.26-8.29,1Z"/><path class="cls-23" d="M222.87,232.07l-.08.07-.22.18c-.1.07-.21.16-.35.25s-.3.19-.48.3l-.28.14a2.75,2.75,0,0,1-.3.14,6.63,6.63,0,0,1-.67.25c-.23.09-.49.13-.74.2s-.51.08-.77.11-.52,0-.78,0-.51,0-.76,0l-.71-.09-.63-.14-.29-.05-.25-.07-.42-.12-.36-.09.33.19.39.21.25.12.28.11c.19.07.4.16.63.23l.73.17a2.57,2.57,0,0,0,.4.05l.4,0c.27,0,.55,0,.83,0a7.56,7.56,0,0,0,.83-.14,5,5,0,0,0,.77-.25c.12,0,.24-.09.36-.15l.33-.18a5.16,5.16,0,0,0,.57-.39l.24-.2.2-.19a3,3,0,0,0,.31-.34A2.15,2.15,0,0,0,222.87,232.07Z"/><g id="eye"><path class="cls-28" d="M226.9,220.59c-.42,5.87,2,11,5,11.25s5.84-4.24,6.26-10.11-1.69-10.86-4.72-11.14S227.33,214.72,226.9,220.59Z"/><path class="cls-29" d="M232.38,229.76c1.64.34,3.47-1.76,4.06-4.67s-.26-5.55-1.9-5.89-3.47,1.76-4.07,4.67S230.73,229.42,232.38,229.76Z"/><ellipse class="cls-30" cx="234.88" cy="221.78" rx="1.58" ry="1.05" transform="translate(-29.42 407.52) rotate(-78.46)"/></g><g id="eye-2" data-name="eye"><path class="cls-28" d="M241.05,220.66c.15,4.77,2.54,8.66,5,8.64s4.34-3.91,4.19-8.67-2.28-8.6-4.74-8.57S240.9,215.9,241.05,220.66Z"/><path class="cls-29" d="M246.23,227.59c1.35.13,2.64-1.71,2.88-4.11s-.68-4.44-2-4.58-2.65,1.71-2.88,4.11S244.88,227.45,246.23,227.59Z"/><ellipse class="cls-30" cx="247.57" cy="220.95" rx="1.28" ry="0.85" transform="translate(3.66 445.94) rotate(-84.44)"/></g><path class="cls-19" d="M242.44,202.59c-.3.38-1.47,0-1.3-1s9.51-12.44,25.74-11.41c5.65.36,11.74,3.85,14.2,7.67,1.24,1.92,1.49,4.27.06,5.75-3.32,3.46-6.69-8.57-15.64-10.26C255.64,191.44,246.35,197.46,242.44,202.59Z"/><path class="cls-31" d="M280.41,200.91s-3.15-11.43-17.32-9.71C262.91,191.26,272.72,190.2,280.41,200.91Z"/><path class="cls-19" d="M225.19,196.87a.88.88,0,0,1-1.61-.17c-.28-.94,3-15.76,18-23.73,5.22-2.78,12.2-3.14,16.08-1.24,1.95,1,3.21,2.82,2.59,4.86-1.46,4.75-9.76-3.64-18.51-.19C232.11,180.19,226.44,190.38,225.19,196.87Z"/><path class="cls-31" d="M259.88,175.42s-7.23-8.68-19.71-.53C240,175,248.72,169.5,259.88,175.42Z"/><path class="cls-19" d="M156.55,259.61c-.67-1.79-2.41-1-2.71,1.07-.33,2.35.87,13.12,2.32,28.52-3-.8-12.88-4-17.23-2.31-2.62,1-3.11,5.65-2.17,9.62s4.32,12.67,6.92,12.67,5.35-8.55-1.94-21.21c9.25,1.63,14.83,4.24,15.46,3C160.44,284.39,157.59,262.39,156.55,259.61Z"/><path class="cls-19" d="M181.55,249.68s.87-4,4.12-2.28,4.85,23.15,4.85,23.15l12.38,3.82s4.45.66,5.16,1.2c.15.11-2.25,1.16-2.09,1.3.43.36-.49-.53,0,0a13.36,13.36,0,0,1,3.31,6.51c2.34,12-2.3,8.47-8.68-6.44L189.16,276a3.33,3.33,0,0,1-3-2.69Z"/></g></g></g></svg>