<svg xmlns="http://www.w3.org/2000/svg" xmlns:xlink="http://www.w3.org/1999/xlink" viewBox="0 0 352.2 334.71"><defs><style>.cls-1{isolation:isolate;}.cls-2{fill:#221f1f;stroke:#eee8d2;stroke-width:4px;}.cls-17,.cls-18,.cls-2,.cls-26{stroke-miterlimit:10;}.cls-3{fill:url(#linear-gradient);}.cls-4{fill:#ffda22;}.cls-5{fill:#f93a3a;}.cls-6{fill:#ba2025;}.cls-7{fill:#ffc10d;}.cls-8{fill:url(#linear-gradient-2);}.cls-9{fill:url(#linear-gradient-3);}.cls-10{fill:url(#linear-gradient-4);}.cls-11{fill:url(#linear-gradient-5);}.cls-12{fill:url(#linear-gradient-6);}.cls-13{fill:url(#linear-gradient-7);}.cls-14{fill:url(#linear-gradient-8);}.cls-15,.cls-31{mix-blend-mode:multiply;}.cls-15{fill:url(#linear-gradient-9);}.cls-16{fill:url(#linear-gradient-10);}.cls-17{fill:#895800;stroke:#473300;}.cls-18,.cls-24{fill:#e476ff;}.cls-18{stroke:#47201f;}.cls-19{fill:#9d13bf;}.cls-20{fill:#7a3819;}.cls-21{fill:#83381b;}.cls-22{fill:#550f0e;}.cls-23{fill:#f4c813;}.cls-25{fill:#f3ba19;}.cls-26,.cls-28{fill:#ece5e3;}.cls-26{stroke:#5f4d45;}.cls-27{fill:#0b1e34;}.cls-29{fill:#fdbd2c;}.cls-30{fill:url(#linear-gradient-11);}.cls-31{fill:url(#linear-gradient-12);}</style><linearGradient id="linear-gradient" x1="7769.23" y1="-7918.33" x2="7975.64" y2="-7918.33" gradientTransform="matrix(-0.32, 0.46, -0.41, 0.23, -545.12, -1558.02)" gradientUnits="userSpaceOnUse"><stop offset="0.01" stop-color="#e68625"/><stop offset="1" stop-color="#f9a748"/></linearGradient><linearGradient id="linear-gradient-2" x1="-2178.25" y1="-752.04" x2="-2184.2" y2="-753.97" gradientTransform="matrix(0.46, -0.16, -0.52, 0.75, 903.14, 322.76)" xlink:href="#linear-gradient"/><linearGradient id="linear-gradient-3" x1="-2212.41" y1="-725.71" x2="-2229.35" y2="-731.21" gradientTransform="matrix(0.46, -0.16, -0.52, 0.75, 903.14, 322.76)" xlink:href="#linear-gradient"/><linearGradient id="linear-gradient-4" x1="-2246.76" y1="-723.4" x2="-2263.7" y2="-728.9" gradientTransform="matrix(0.46, -0.16, -0.52, 0.75, 903.14, 322.76)" xlink:href="#linear-gradient"/><linearGradient id="linear-gradient-5" x1="-2250.97" y1="-699.04" x2="-2259.83" y2="-701.92" gradientTransform="matrix(0.46, -0.16, -0.52, 0.75, 903.14, 322.76)" xlink:href="#linear-gradient"/><linearGradient id="linear-gradient-6" x1="6697.23" y1="-6047.95" x2="6689.36" y2="-6050.51" gradientTransform="matrix(-0.43, 0.62, -0.54, 0.31, -164.03, -2112.29)" xlink:href="#linear-gradient"/><linearGradient id="linear-gradient-7" x1="6725.09" y1="-6057.63" x2="6717.21" y2="-6060.19" gradientTransform="matrix(-0.43, 0.62, -0.54, 0.31, -164.03, -2112.29)" xlink:href="#linear-gradient"/><linearGradient id="linear-gradient-8" x1="6755.72" y1="-6068.81" x2="6749.68" y2="-6070.77" gradientTransform="matrix(-0.43, 0.62, -0.54, 0.31, -164.03, -2112.29)" xlink:href="#linear-gradient"/><linearGradient id="linear-gradient-9" x1="6827.36" y1="-6129.21" x2="6673.28" y2="-6179.23" gradientTransform="matrix(-0.43, 0.62, -0.54, 0.31, -164.03, -2112.29)" xlink:href="#linear-gradient"/><linearGradient id="linear-gradient-10" x1="-2303.56" y1="-642.68" x2="-2308.4" y2="-644.25" gradientTransform="matrix(0.46, -0.16, -0.52, 0.75, 903.14, 322.76)" xlink:href="#linear-gradient"/><linearGradient id="linear-gradient-11" x1="12114.58" y1="-7189.61" x2="12320.99" y2="-7189.61" gradientTransform="matrix(-0.03, 0.29, -0.69, 0.26, -4529.87, -1479.69)" xlink:href="#linear-gradient"/><linearGradient id="linear-gradient-12" x1="10074.66" y1="-5577.23" x2="9920.58" y2="-5627.25" gradientTransform="matrix(-0.04, 0.39, -0.92, 0.34, -4499.94, -1831.49)" xlink:href="#linear-gradient"/></defs><g class="cls-1"><g id="Layer_1" data-name="Layer 1"><g id="Butterfly_02"><path class="cls-2" d="M174.65,256.89c9.4-7.38,24.94-23.95,31.66-30.89,8.91-9.21,17.83-18.51,26.58-27.8,21.67-23,43-46.46,62-69.33C309.38,111.5,324.12,93,332.41,78.73c3.1-5.35,4.84-9.79,3.55-11.45-1.57-2-8,1.26-14.7,5.61-8.74,5.66-19.09,13.78-28.78,21.24-10.67,8.22-23.93,15.51-30.9,18.09-12.7,4.71-35,25.92-47.3,43.92-6.75,9.85-14.74,31.46-18.09,38.9-3.83,8.49-8,17.24-11.56,25.54s-6.72,16.21-11.26,25.25c-2.61,5.2-9.14,15.85-4.53,14.63C170.2,260.1,172.22,258.8,174.65,256.89Z"/><path class="cls-3" d="M159.33,265.6a36.93,36.93,0,0,1-8.25,3.28c-4.89,1.33-8.51,1.18-12.22,1.18-7.18,0-12-2.83-14.88-7.3a16.64,16.64,0,0,1-2.31-8.5,27.52,27.52,0,0,1,2-11.47c1.83-4.8,6.16-11.6,14.33-19.3a107.52,107.52,0,0,1,18.64-13.9,115.81,115.81,0,0,1,24.55-11.53c3.61-1.12,6.81-1.68,8.49-.65s1.52,3.71.83,6.89c-1.56,7.2-6.23,17.11-10.35,26.37-2,4.55-4.12,9.15-6.18,13.73-1.06,2.35-2.15,4.72-3.16,7a29.34,29.34,0,0,1-3,6.14A27.68,27.68,0,0,1,159.33,265.6Z"/><path class="cls-4" d="M208.22,207.59c-3.69,4.66-6.57,8.95-9.46,13.18-4.13,6.07-8.21,12.15-13.25,18.7l-.72.93c3.8-4.3,7.63-8.61,11.33-12.92,5.5-6.39,11-12.74,16.27-19.09,2.91-3.5,5.77-7,8.68-10.53C222,193.82,213.42,201,208.22,207.59Z"/><path class="cls-5" d="M300.44,107.23c1.75-2.74,5.75-10.17.3-5.84-4.56,3.63-10,12-12.29,15.26-3.84,5.63-7,10.83-10.92,16.53a499.38,499.38,0,0,1-34.2,44.21,7.26,7.26,0,0,1-.55,1.68,35.71,35.71,0,0,1-3.83,6.09c1.55-2.11,4.87-5.61,6.84-7.9,2.3-2.67,4.57-5.35,6.82-8q7-8.28,13.55-16.44c8.64-10.72,16.68-21.21,24.07-31.37,3.45-4.74,7.33-9.75,10.17-14.16Z"/><path class="cls-5" d="M290.43,112.44c1.76-4.31-.69-5.36-7.19-.57-9.88,7.29-15.49,17-19,23.36-5.43,9.71-10.41,18.79-18.37,30.16-5.28,7.56-11,15.56-17.3,23.73,4.21-4.73,9.81-10.56,13.27-12.38.67-.35,1.08-.41,1.31-.27,18.89-21.75,31.78-41.1,44.69-60.16C288.43,115.37,289.35,114,290.43,112.44Z"/><path class="cls-5" d="M249.77,143.46a2,2,0,0,1-.08.22,2.79,2.79,0,0,1-.58.78c-2.45,3.72-4.47,7.19-6.35,10.52a436,436,0,0,1-30.27,46.83,49.52,49.52,0,0,1,4.68-4.24c3.56-2.79,5.64-3.73,6.21-3,4.68-5.94,9-11.75,13.12-17.41,5.37-7.35,10.67-14.76,14.93-21.46,3.85-6.09,6.66-11.42,9.72-17a110,110,0,0,1,8.06-13.28h0c-1.66.28-4.38.86-8.21,4.3a56.78,56.78,0,0,0-7.34,8.21C252.23,139.89,251,141.7,249.77,143.46Z"/><path class="cls-5" d="M231.59,153.45A94.34,94.34,0,0,0,218,172.78c-4.29,7.82-7.56,14.88-11.52,22.46-1.86,3.56-3.81,7.19-6.12,11.07-.93,1.56-2,3.19-3,4.83.54-.46,1.11-.9,1.7-1.33,4.44-3.24,8.07-4.78,9.4-4A407.3,407.3,0,0,0,232,171.36c4.47-7.37,7.83-14,12.41-21.41.95-1.55,2-3.26,3.2-5.08C249.62,139.23,240.72,143.41,231.59,153.45Z"/><path class="cls-4" d="M174.76,251.88c5.49-7,11.05-13.92,15.65-20.52,4.48-6.42,8.4-12.62,13.45-19.35.86-1.16,1.83-2.42,2.88-3.72-1.13-1.12-6.77,1.42-11.36,5.62-2.69,5.65-5.64,11.49-9.1,17.7-2.3,4.12-4.74,8.37-7.6,12.87-1.6,2.53-3.18,5.05-4.47,7.37-.33.6-.66,1.22-1,1.82Z"/><path class="cls-4" d="M223.05,196.61c-2.8,3.39-5.51,6.75-8.27,10.09-7,8.45-14.35,17.05-21.91,25.62-5.66,6.41-11.45,12.86-16.87,19.22-1,1.24-2,2.48-2.92,3.71,1.43-1.83,6.23-6.27,8.17-8.24q4.14-4.19,8.25-8.4,8.38-8.58,16.59-17.25c7-7.44,14.18-14.93,20.72-22.43,5.32-6.09,12.88-15.06,13.94-18.81.7-2.46-1.69-1-5.73,3.11C230.61,187.69,226.74,192.16,223.05,196.61Z"/><path class="cls-2" d="M159.33,265.6a36.93,36.93,0,0,1-8.25,3.28c-4.89,1.33-8.51,1.18-12.22,1.18-7.18,0-12-2.83-14.88-7.3a16.64,16.64,0,0,1-2.31-8.5,27.52,27.52,0,0,1,2-11.47c1.83-4.8,6.16-11.6,14.33-19.3a107.52,107.52,0,0,1,18.64-13.9,115.81,115.81,0,0,1,24.55-11.53c3.61-1.12,6.81-1.68,8.49-.65s1.52,3.71.83,6.89c-1.56,7.2-6.23,17.11-10.35,26.37-2,4.55-4.12,9.15-6.18,13.73-1.06,2.35-2.15,4.72-3.16,7a29.34,29.34,0,0,1-3,6.14A27.68,27.68,0,0,1,159.33,265.6Z"/><path class="cls-5" d="M171.47,214.33c0,.1-.05.2-.08.3a.21.21,0,0,1,0,.07,12.85,12.85,0,0,0-.38,3.66c0,3,.76,5.45.87,8.41A80.93,80.93,0,0,1,168,252.32c-1,3-2.38,6.19-3.65,9.34a27.46,27.46,0,0,0,3.43-4.09,29.34,29.34,0,0,0,3-6.14c1-2.31,2.1-4.68,3.16-7,2.06-4.58,4.15-9.18,6.18-13.73l1.91-4.29c.69-2.36,2.46-5.67,3.11-8a35.62,35.62,0,0,0,1.19-9.11c.08-2.24-.17-4.25-1.65-5-1.2-.6-3.66-.64-8.17,3A14.37,14.37,0,0,0,171.47,214.33Z"/><path class="cls-5" d="M163.63,262.39a121.39,121.39,0,0,0,4.72-13.06,89.06,89.06,0,0,0,2.29-11.58,55,55,0,0,0-.16-16.1,11.63,11.63,0,0,1,.27-6.57h0c.79-3,.11-4.75-1.1-5.84s-3.19-2.12-8,1.06a34.34,34.34,0,0,0-6.37,5.42,15,15,0,0,0-3,4.7,6.8,6.8,0,0,0-.22,5,1,1,0,0,0,.29,0c.11,0,0,.17-.14.34.08.18.16.35.25.52,1.12,2.19,3.06,3.59,4.62,5.34a28,28,0,0,1,4.6,6.73,6.48,6.48,0,0,1,.67.89c0,.05,0,.18-.16.3.22.54.43,1.09.61,1.67a34.13,34.13,0,0,1,1.37,10.1c0,.18.09.34.12.52s0,.13-.12.24c0,1.28-.09,2.6-.22,4a39.74,39.74,0,0,1-1.17,5.59c-.16.64-.32,1.29-.44,1.9C162.74,263.19,163.18,262.8,163.63,262.39Z"/><path class="cls-5" d="M160.51,245.68c-1.38-1.43-3.09-3.09-7.63-1.06a25.87,25.87,0,0,0-7.26,5.39c-4.11,4.17-5.51,7.44-6.13,9.58-1.47,5-.64,8.31,1.06,10.43l0,0a36.41,36.41,0,0,0,10.5-1.18,36.93,36.93,0,0,0,8.25-3.28,16.31,16.31,0,0,0,2.32-1.54c.29-1.47.74-3.07,1.14-4.64a25,25,0,0,0,.64-6.19c0-.41,0-.82,0-1.23A13,13,0,0,0,160.51,245.68Z"/><path class="cls-4" d="M160.5,238.49a8.05,8.05,0,0,0-7.48-1.91c-3,.54-8.73,3.06-15.15,10.54-4.15,4.84-5.44,8.36-6,10.74a10,10,0,0,0,.17,5.81A16.65,16.65,0,0,0,136.6,270c.73.07,1.48.11,2.26.11h.58a10.44,10.44,0,0,1-1.28-6.19c.14-2.35.49-7.1,7-13.75,5.4-5.48,9.14-6.88,11.33-7.05,3.16-.24,4.61,1.45,5.74,3.32a14.22,14.22,0,0,1,1,2.15c-.05-.6-.1-1.2-.17-1.78A25.63,25.63,0,0,0,161,239,5.32,5.32,0,0,0,160.5,238.49Z"/><path class="cls-5" d="M134.9,235.5c.17-.08.06.14-.12.36a6.16,6.16,0,0,0-.11.89,5.51,5.51,0,0,0,1,3.7,6.61,6.61,0,0,0,5.31,3s.05,0,0,.1a39.62,39.62,0,0,1,6.58-5.18c5.2-3.16,8.06-2.82,10.14-2.26a8.92,8.92,0,0,1,2.21.91l-.42-.7c-1.73-2.68-4-4.76-6.09-7.11a9.41,9.41,0,0,1-2-3.13c-2.12-.41-7.45-4.17-14.11,4.88a13.59,13.59,0,0,0-2.42,4.59Z"/><path class="cls-5" d="M134.05,236.38c-2.69,1.44-4.34,4.61-5.07,6.3a27.3,27.3,0,0,0-1.89,6.17,6.94,6.94,0,0,0,1,5c1,1.83,2.2,3.39,2.88,5.49a19.82,19.82,0,0,1,2.34-6.17,40.05,40.05,0,0,1,7.17-9.12h0a6.44,6.44,0,0,1-5.72-3.53A5.3,5.3,0,0,1,134.05,236.38Z"/><path class="cls-6" d="M322,84.44a15.58,15.58,0,0,0,5.52-4.68c1.4-1.84,1.83-3.17,1.67-3.88-.23-.27-.68-.31-1.31-.1-1.93.65-5.09,3.87-6.58,6.4C320.1,84.16,320.32,85.15,322,84.44Z"/><path class="cls-7" d="M304,92.22c-.15-1.07,3-4.91,5.65-6.86.3-.22.57-.4.82-.55a1.23,1.23,0,0,1,.51-.47c2.26-1,2.38.93-1.45,4.78C306.61,92,304.11,93.28,304,92.22Z"/><path class="cls-8" d="M286.61,104.28c-.21-.53,1.3-2.78,3.19-4.32,1.26-1,1.73-1,1.74-.56.27.14-.33,1.17-1.3,2.23C288.86,103.15,286.82,104.83,286.61,104.28Z"/><path class="cls-9" d="M252.8,133.22c-2.74,1-1.87-2,2-6.46,4.17-4.78,8.77-8.05,9.89-7.12.56.46.1,2.16-1.59,4.36C260.82,127.47,255.55,132.17,252.8,133.22Z"/><path class="cls-10" d="M235.8,140.38c-2.74,1.05-1.87-2,2-6.46,4.16-4.78,8.77-8,9.89-7.12.56.46.09,2.17-1.59,4.36C243.82,134.63,238.54,139.33,235.8,140.38Z"/><path class="cls-11" d="M224.52,155.09c1.23-2.06,4.22-4.89,5.78-5.49.61-.23.85-.06.72.42.41.42-1.1,2.6-3.24,4.43C225.48,156.42,223.27,157.2,224.52,155.09Z"/><path class="cls-12" d="M212.48,174.15c2.59-2,3.84-4.58,2.83-4.48a3.27,3.27,0,0,0-1.24.71c-.13.08-.28.19-.45.32a14.85,14.85,0,0,0-2.27,2.46,4.07,4.07,0,0,0-1,2C210.39,175.62,211.45,175,212.48,174.15Z"/><path class="cls-13" d="M205.75,188.4c2.58-2,3.84-4.58,2.83-4.47a3,3,0,0,0-1.24.71,3.92,3.92,0,0,0-.45.32,15.21,15.21,0,0,0-2.27,2.45,4.11,4.11,0,0,0-1.05,2C203.66,189.87,204.72,189.22,205.75,188.4Z"/><path class="cls-14" d="M198.22,204.19c2-1.55,2.94-3.51,2.17-3.44a2.56,2.56,0,0,0-.95.55,2.11,2.11,0,0,0-.35.25,11.64,11.64,0,0,0-1.74,1.87,3.11,3.11,0,0,0-.8,1.56C196.61,205.31,197.43,204.81,198.22,204.19Z"/><path class="cls-5" d="M207.84,222.05l.6-.65c2.79-3.08,5.44-6.18,8.19-9.26l8.15-9.13c5.64-6.33,11.27-12.67,16.8-19,11.07-12.66,21.73-25.26,31.49-37.56,9.94-12.53,18.9-24.64,28.82-37.15,2.24-2.83,4.45-5.68,6.93-8.6,1.94-2.28,4.85-5.67,7.1-7.12,3.12-2,1.16,1.91.15,3.9a99.63,99.63,0,0,1-9.36,14.41c-8.6,11.44-19.29,23.59-30.13,35.6-11,12.18-22.11,24.33-33,36.51-9.61,10.7-19.35,21.5-29.49,32.14-1.17,1.31-2.39,2.55-3.55,3.85a24.09,24.09,0,0,1-2.52,2.53C207.4,223,207.29,222.64,207.84,222.05Z"/><path class="cls-15" d="M246.5,173.72l-3.17,3.67c0,.06,0,.14-.05.2C244.36,176.31,245.43,175,246.5,173.72Z"/><path class="cls-7" d="M130.35,235.87c-1,.38-.68-.68.68-2.24s3.08-2.82,3.49-2.5c.2.15,0,.74-.55,1.51A10.6,10.6,0,0,1,130.35,235.87Z"/><path class="cls-6" d="M143.8,224c-1.8.69-1.25-1.28,1.27-4.17,2.71-3.1,5.73-5.24,6.48-4.65.37.29.08,1.39-1,2.81C149.06,220.28,145.61,223.34,143.8,224Z"/><path class="cls-16" d="M173.44,205.71c-.79.3-.55-.56.55-1.81s2.49-2.29,2.82-2c.16.13,0,.6-.44,1.22A8.66,8.66,0,0,1,173.44,205.71Z"/><path class="cls-17" d="M176.23,253.45s1.21-3.88,4.3-1.92S183.35,275,183.35,275l12,4.88a13.57,13.57,0,0,1,5.57,9.53c1.17,11.1-2.29,8.82-6.74-3.29-.24-.64-2.79,3.21-3,2.51s1.89-5.75,1.68-6.39l-11.31-1.93a3.32,3.32,0,0,1-2.76-2.94Z"/><path class="cls-17" d="M135.36,288.44l.1,0c2-.33,8.61,1.54,12.43,3.82,0,0-1.1-11.36-1.87-16.43-.08-.54,4.1-1.72,4.1-1.72s.78,19.75-1.73,19.73c-1.62,0-10.08-3.56-10.08-3.56,3.63,5.38,6.68,14.54,5.23,18.11C140.35,311.12,135.51,296,135.36,288.44Z"/><path class="cls-18" d="M165.61,265.7q-2.06,2.61-4.2,4.89a60.08,60.08,0,0,1-19.76,14A58,58,0,0,1,131.16,288a58.69,58.69,0,0,1-22,.68,51.07,51.07,0,0,1-11.87-3.37c-6.69-2.85-11.57-6.91-13.43-11.25-2.2-5.12-.19-10.62,8-14.95,1.5-.79,3-1.54,4.6-2.24,2.32-1,4.7-2,7.12-2.87a135.9,135.9,0,0,1,23.6-6c2.82-.48,5.61-.87,8.34-1.2a215.29,215.29,0,0,1,39.67-1C190.64,252.5,165.61,265.7,165.61,265.7Z"/><path class="cls-19" d="M157.86,249.57c-1.05,11.24,2.13,17.2,0,22.24-3.14,7.27-12.09,11-16.17,12.81A58,58,0,0,1,131.16,288a58.69,58.69,0,0,1-22,.68,51.07,51.07,0,0,1-11.87-3.37c-6.69-2.85-11.57-6.91-13.43-11.25h0c29.06,7.24,66,5.13,62.58-8.42-5.74-22.68,7.1-21.11,7.1-21.11Z"/><path class="cls-18" d="M204.84,233.28c-3.55,7-6,13.65-8.37,19.66-3.95,10.07-7.63,18.33-15.74,23.37-15.54,9.65-24.83,4.74-31.15-2.95-9.74-11.86-2.49-25.73-2.49-25.73a3.2,3.2,0,0,1,.6-1.13h0c3.36-4.38,19-12.05,25.18-8,12.9,8.39,24.59-20.26,24.59-20.26C203.85,213,204.84,233.28,204.84,233.28Z"/><path class="cls-19" d="M196.47,252.94c-3.95,10.07-7.63,18.33-15.74,23.37-15.54,9.65-24.83,4.74-31.15-2.95-9.74-11.86-2.49-25.73-2.49-25.73s-2.43,9.21,18.07,17.18c0,0,14,5.14,22.69-3.57l4.89-13.31Z"/><path class="cls-19" d="M190.75,265.07s-22.66-6.24-23.21-27.55l12.37-9.32,14.87,25.64"/><path class="cls-18" d="M229.29,236s3.54-34.65-27.21-34c-7.58.16-30.55,3-29.55,33.53-1.36,3.66-6.75,20,28.26,24.67,1.7,1.21,8.82,6.57,12.49-.82C214.28,259.24,237.42,256.13,229.29,236Z"/><path class="cls-20" d="M172.65,235.83c.7-1.22,1.9-3.65,1.91-3.67s-1.63,2.18-2.31,3.39Z"/><path class="cls-21" d="M213,260.28a15.1,15.1,0,0,0,1-3.18,30.62,30.62,0,0,1-1.41,2.85Z"/><path class="cls-21" d="M201.29,260.81l.28-.44c-2.23-1.84-4.81-3.58-4.81-3.58S199.05,259,201.29,260.81Z"/><path class="cls-22" d="M212.89,210.67s-7.49-5.4-9.1,5.36A9.66,9.66,0,0,1,212.89,210.67Z"/><path class="cls-22" d="M224.75,213.47s-2.58-3.78-5.14,1A4.78,4.78,0,0,1,224.75,213.47Z"/><path class="cls-21" d="M226.34,238.54a4.54,4.54,0,0,0,2.23-1.39,4.1,4.1,0,0,1-4.65.43l-.22.47A3.37,3.37,0,0,0,226.34,238.54Z"/><path class="cls-23" d="M206.49,225.21l12-12.44s-2.66,8.78,2.84,20.46c2.31,4.9,6,8.48.39,11.38-11.85,6.11-19.38-2.64-19.38-2.64Z"/><path class="cls-24" d="M206.49,225.21l12.09-12.65s-2.7,9,2.8,20.67c2.31,4.9,6,8.48.39,11.38-11.85,6.11-19.38-2.64-19.38-2.64Z"/><path class="cls-21" d="M217.25,246.59a20.11,20.11,0,0,0,4.63-1.73c1.72-.89,2.7-1.9,3-3.11.44-1.78-.63-3.71-1.88-5.95-.48-.86-1-1.75-1.41-2.69-5.38-11.43-2.85-20.15-2.82-20.24a7.25,7.25,0,0,0-1,3.5,34.33,34.33,0,0,0,3.42,17c.46,1,1,1.86,1.44,2.72,1.18,2.13,2.2,4,1.81,5.53-.26,1-1.15,2-2.75,2.78-11.56,6-19-2.49-19.1-2.58l-.34.36a15.63,15.63,0,0,0,15,4.44Z"/><path class="cls-25" d="M204,240.35H204l0-.06Z"/><path class="cls-24" d="M197.62,239.16l6.36,1.18c-.29.47-2.56,3.83-7.93,2.59Z"/><path class="cls-21" d="M204,240.28l-.06.08c0,.06-.11.13-.18.22s-.18.21-.3.32l-.41.38-.25.2c-.09.06-.17.14-.27.2a7.07,7.07,0,0,1-.61.38,6.13,6.13,0,0,1-.68.33c-.23.1-.48.18-.73.26s-.51.14-.76.18-.51.09-.75.11l-.72.05h-.94l-.26,0-.43,0-.38,0,.37.13.42.12.27.08.29,0,.67.1.75,0,.4,0,.4,0c.27,0,.54-.12.81-.17s.53-.19.78-.3a4.07,4.07,0,0,0,.71-.4,2.57,2.57,0,0,0,.32-.22l.29-.24a3.83,3.83,0,0,0,.49-.5l.19-.24c.06-.08.12-.15.17-.23a3.54,3.54,0,0,0,.23-.39A3.28,3.28,0,0,0,204,240.28Z"/><g id="eye"><path class="cls-26" d="M205.71,228.23c.74,5.84,4.13,10.36,7.16,10s4.89-5.31,4.16-11.15-3.8-10.31-6.83-10S205,222.39,205.71,228.23Z"/><path class="cls-27" d="M212.89,236.14c1.68,0,3.05-2.41,3.06-5.38s-1.35-5.39-3-5.4-3,2.41-3.06,5.38S211.21,236.14,212.89,236.14Z"/><ellipse class="cls-28" cx="213.76" cy="227.83" rx="1.58" ry="1.05" transform="matrix(0, -1, 1, 0, -14.75, 440.85)"/></g><g id="eye-2" data-name="eye"><path class="cls-26" d="M219.59,225.52c1.09,4.63,4.2,8,6.62,7.47s3.49-4.68,2.4-9.32-3.93-8-6.34-7.47S218.51,220.88,219.59,225.52Z"/><path class="cls-27" d="M226,231.28c1.35-.14,2.25-2.19,2-4.59s-1.54-4.22-2.89-4.09-2.26,2.2-2,4.59S224.69,231.42,226,231.28Z"/><ellipse class="cls-28" cx="226.04" cy="224.51" rx="0.85" ry="1.28" transform="translate(-21.52 23.98) rotate(-5.8)"/></g><path class="cls-17" d="M217.39,207.52c-.21.43-1.44.25-1.47-.75s6.87-14.08,23-16.26c5.61-.76,12.27,1.47,15.43,4.72,1.59,1.64,2.31,3.9,1.2,5.63-2.58,4-8.25-7.09-17.36-7C228.14,194,220.22,201.72,217.39,207.52Z"/><path class="cls-29" d="M254.29,198.4s-5.34-10.59-18.89-6.11C235.24,192.38,244.64,189.41,254.29,198.4Z"/><path class="cls-17" d="M199.36,205.31a.88.88,0,0,1-1.61.15c-.46-.86-.13-16.05,13-26.82,4.57-3.75,11.34-5.47,15.52-4.37,2.1.55,3.71,2.13,3.49,4.25-.49,4.94-10.28-1.64-18.18,3.46C202.86,187.6,199.3,198.7,199.36,205.31Z"/><path class="cls-29" d="M229.15,177.45s-8.8-7.09-19.44,3.36C209.6,181,217,173.84,229.15,177.45Z"/><path class="cls-17" d="M138.12,267.38c-.51-1.85-2.31-1.24-2.79.83-.53,2.32-.28,13.14-.16,28.61-2.88-1.05-12.49-5.06-17-3.79-2.7.77-3.58,5.35-3,9.39s3.19,13,5.79,13.23,6.06-8.06-.09-21.31c9.07,2.44,14.4,5.52,15.14,4.3C139.84,292.4,138.92,270.24,138.12,267.38Z"/><path class="cls-17" d="M163.9,259.67s1.2-3.89,4.29-1.92S171,281.23,171,281.23l12,4.89s4.37,1,5,1.64c.13.12-2.35,1-2.2,1.11.4.39-.44-.58,0,0a13.28,13.28,0,0,1,2.72,6.77c1.29,12.2-3,8.24-8.08-7.17l-11.32-1.93a3.34,3.34,0,0,1-2.76-2.94Z"/><path class="cls-2" d="M178.52,232.5c12.36-6.68,24.73-19.11,30.49-24.42,7.64-7,15.12-14.1,22.18-21.09,17.49-17.3,33-34.58,43.43-50.63,7.94-12.19,14.56-24.87,11.1-33.22-1.3-3.13-4.71-5.35-11.34-5.28-8.07.09-19.75,4.08-30.31,8.57-13.72,5.83-27.34,13.19-40.37,20-14.35,7.54-37.57,16-52.07,20-26.45,7.36-48.89,24.38-49.73,35.78-.45,6.24,17.37,16.78,21.86,20.69,5.12,4.46,9.81,9.15,15.25,13.44s11.34,8.24,15.52,13.2c2.39,2.86,4,9.25,14.5,6.73A39.42,39.42,0,0,0,178.52,232.5Z"/><path class="cls-30" d="M152.23,242.34a165.69,165.69,0,0,1-16.8,4.85c-11.06,2.68-21.36,4.3-31.64,6a322.93,322.93,0,0,1-54.67,4.55A151,151,0,0,1,27,256.14C21,255.2,15,254,11.22,251.59s-4.38-6.52,4-12.74c7-5.15,17.13-9.55,25.89-13a394.62,394.62,0,0,1,46.64-15c7.9-2,15.73-3.68,22.27-4.12a37.25,37.25,0,0,1,15,1.8c9,3,14.39,8.3,20.09,13.14,2.81,2.38,5.54,4.8,8.3,7.21,1.42,1.23,2.78,2.49,4.26,3.69,1.22,1,3.21,1.72,3.16,3.31C160.81,237.87,157.14,240.58,152.23,242.34Z"/><path class="cls-4" d="M180.29,201.36c-1.61,3.18-1.68,5.87-1.84,8.55-.22,3.83-.25,7.64-2.08,12.05l-.28.63c2.58-3.12,5.19-6.26,7.47-9.33,3.39-4.57,6.82-9.11,9.72-13.57,1.59-2.46,3-4.89,4.58-7.35C192.85,190.64,182.56,196.88,180.29,201.36Z"/><path class="cls-5" d="M249.92,126.94c-.21-1.68-2.88-5.88-9.94-2-5.91,3.26-5.66,8.42-5.8,10.51-.23,3.57.73,6.66.32,10.29-1,8.79-4.12,18.64-12.9,29.82a4.09,4.09,0,0,1,1.58.78c1.13,1,1.07,2.25.67,3.7.38-1.38,3.11-4,4.32-5.66,1.41-1.91,2.77-3.81,4.05-5.69q4-5.85,7.13-11.47a88.5,88.5,0,0,0,8.6-21.07c.77-3.1,2.26-6.48,2-9.19C249.93,127,249.92,127,249.92,126.94Z"/><path class="cls-5" d="M231.87,133.21c-3.1-2.17-11.84-1.38-21,3.14-13.86,6.88-11.44,12.55-9.51,16.21,2.94,5.58,5.93,10.76,4.95,18.05a60,60,0,0,1-4,15.51c2.92-3.44,7.64-7.88,13.86-10.05a11.81,11.81,0,0,1,3.13-.69c12-15.63,11.94-27.72,12.43-39.72C231.76,135.07,231.75,134.21,231.87,133.21Z"/><path class="cls-5" d="M176.7,161.83l.18.11c.16.12.07.31-.17.51a16.07,16.07,0,0,0,1.87,6.27c4.07,8.42,6.4,17.44,2.8,28.84a27.18,27.18,0,0,1,5.13-3.51c4.7-2.53,8.71-3.79,11.69-3.81a61.64,61.64,0,0,0,4.12-11.59c1.28-4.81,2.24-9.6,1.62-13.7-.57-3.71-2.69-6.69-4.45-9.86-1.25-2.28-3.15-4.69-2.23-7.94l-.06,0c-4.06.85-10.51,2.29-14.76,5.15-3.2,2.15-4.55,4.25-5.13,6A11.29,11.29,0,0,0,176.7,161.83Z"/><path class="cls-5" d="M144.85,173.4c-5,5.52-3.78,9.29-2,12.42,2.57,4.46,6.59,8.21,9.64,12.44a24.26,24.26,0,0,1,3.53,6.34,17.16,17.16,0,0,1,.59,2.92c.68-.4,1.42-.8,2.25-1.21,6.3-3.07,13.5-5.24,18.62-5.61,3.07-8.18,3.42-15.49,1.63-21.82-1.25-4.41-4.16-8-5.24-12.53a18.06,18.06,0,0,1-.54-3.08C168.46,160.56,151.55,166,144.85,173.4Z"/><path class="cls-4" d="M169.56,230.86c2.32-4.74,4.85-9.52,5.37-13.73s-.07-7.89,1.43-12.35a15.2,15.2,0,0,1,1.12-2.52c-5.22.17-16.11,3.58-21,7a43.17,43.17,0,0,1,7.52,9.81,23.91,23.91,0,0,1,2.76,7.59,13.53,13.53,0,0,0,1.26,4.41,9.88,9.88,0,0,0,.66,1C168.93,231.71,169.25,231.29,169.56,230.86Z"/><path class="cls-4" d="M201,191c-1.52,2.37-2.77,4.68-4.24,7a185.78,185.78,0,0,1-13.3,18.24c-3.8,4.65-7.9,9.37-11.13,13.89-.43.85-.84,1.69-1.23,2.53.58-1.25,5.65-4.87,7.38-6.39q3.7-3.24,7.31-6.48c4.87-4.39,9.57-8.77,14-13.13,5.72-5.61,11.63-11.28,15.89-16.68,3.46-4.39,7.78-10.72,3.8-12.4-2.63-1.11-6.52.46-10.14,3.63A43.07,43.07,0,0,0,201,191Z"/><path class="cls-2" d="M152.23,242.34c-5.73,2-8,2.43-13.51,4.25-9,3-22.85,6-33.12,7.72-19.87,3.31-40.3,3.55-56.48,3.45A151,151,0,0,1,27,256.14C21,255.2,15,254,11.22,251.59s-4.38-6.52,4-12.74c7-5.15,17.13-9.55,25.89-13a394.62,394.62,0,0,1,46.64-15c7.9-2,15.73-3.68,22.27-4.12a37.25,37.25,0,0,1,15,1.8c9,3,14.39,8.3,20.09,13.14,2.81,2.38,5.54,4.8,8.3,7.21,1.42,1.23,2.78,2.49,4.26,3.69,1.22,1,3.21,1.72,3.16,3.31C160.81,237.87,157.14,240.58,152.23,242.34Z"/><path class="cls-5" d="M91,220.47l.36.13,0,0A30.41,30.41,0,0,0,97.12,222c5.71.95,12.16,1.38,18,2.27A171.61,171.61,0,0,1,141,230a64.67,64.67,0,0,1,10.76,4.08,83.14,83.14,0,0,1,7.16,4.64c1.2-1,1.38-1.37,1.41-2.25,0-1.59-2-2.33-3.16-3.31-1.48-1.2-2.31-3.09-3.73-4.32-2.76-2.41-5.49-4.83-8.3-7.21l-2.61-2.25c-2.48-1.06-3.7-2.93-6.19-4-3.86-1.61-8.65-2.51-13.54-3.44a49.32,49.32,0,0,0-13.8-.82c-4.42.36-11.29,1.48-17.05,4.72C88.06,218.1,88.92,219.54,91,220.47Z"/><path class="cls-5" d="M90.42,221c-3.28-1.3-8.49-1.55-13.85-1.34s-12.74.8-20.24,4c-2.75,1.19-6.25,3-7.6,4.66-1.2,1.43-.69,2.33.3,2.89,1.95,1.12,5.19,1.51,8.63,1.68l.83-.12c.29-.06.35.05.25.17l1.65,0c7.16.17,15.09-.27,22.67-.44,8.62-.19,17.08-.25,25.16,0q1.78,0,3.51,0c.19,0,.19.08.1.17,1.61.07,3.2.15,4.77.25a215.36,215.36,0,0,1,22.48,2.57l1.28.11c.1,0,.13.06.11.13,2.31.41,4.57.86,6.76,1.36a51.26,51.26,0,0,1,7.09,2.32c.75.27,1.51.55,2.31.8a17.87,17.87,0,0,0,1.54-1c-3.4-2.28-6.64-4.62-11.06-6.33A125.71,125.71,0,0,0,132,228.28a219.87,219.87,0,0,0-30.21-5"/><path class="cls-5" d="M118.64,235.48c-6.46.18-14.26.45-23,3.18-3.51,1.1-7.69,2.9-10.16,5.07-3.65,3.22-1.48,4.9.74,5.87,5.25,2.27,13.62,2.93,22.22,2.82l2.06-.32c8.71-1.45,17.6-3.54,27-5.8,5.36-1.3,9.6-3.14,15.33-5.2,1.3-.46,2,.24,3.07-.32-1.92-.6-3.65-1.32-5.44-2a58.79,58.79,0,0,0-9.67-2.26l-2.27-.39A169.31,169.31,0,0,0,118.64,235.48Z"/><path class="cls-4" d="M105.33,233.2a140.35,140.35,0,0,0-24.23,2.85c-7.19,1.54-18.51,5-22.44,10.34-2.54,3.45.38,5.16,3.34,6.16a42.23,42.23,0,0,0,11.21,1.76c7.53.39,15.77.2,24.14-.09,2.13-.32,4.28-.65,6.44-1l1.62-.27a80.19,80.19,0,0,1-15-1.37c-4-.81-11.78-2.48-6-7.62,4.8-4.22,12.57-6.4,18.3-7.46a109.75,109.75,0,0,1,22-1.6c2.33,0,4.6.1,6.83.21-1.24-.17-2.5-.34-3.77-.49-6.43-.77-13.25-1.24-20.38-1.48Z"/><path class="cls-5" d="M28.94,244.08c.32-.11.44,0,.36.17a11.75,11.75,0,0,0,1.33.33,48.53,48.53,0,0,0,9.6.71,132.82,132.82,0,0,0,20.17-1.51.36.36,0,0,1,.25,0,37,37,0,0,1,8.63-4.68c8.55-3.4,17.1-4.62,23.89-5.4q4-.47,7.77-.73c-.81,0-1.63,0-2.45,0-9.71-.05-20,.35-30,.56-3.92.08-7.85.14-11.42-.06-6.62.85-28.32,2.12-30,8.07-.38,1.31.48,2.07,1.8,2.57Z"/><path class="cls-5" d="M28.23,244.75c-4.79,1.7-3.5,3.47-2.38,4.34A18.61,18.61,0,0,0,32,251.92c3.18.93,7.59,1,11.92,1.14,6,.13,12.34.06,18.11.41-2.31-.66-4.1-1.61-4.93-3s-.33-3.53,3-6.2h0a126.46,126.46,0,0,1-22.34,1.52C34.64,245.69,30.67,245.61,28.23,244.75Z"/><path class="cls-6" d="M267.39,109.77c2.83-.86,6-2.42,6.61-4,.47-1.23-.78-1.85-2.54-2a16.69,16.69,0,0,0-3.8.57c-4.15,1.1-6.93,3.58-6.39,5.08C261.7,110.54,264.14,110.75,267.39,109.77Z"/><path class="cls-7" d="M231.94,120.55c-2.41-.27-.79-2.94,2.94-4.78.42-.21.83-.39,1.24-.55,0-.11.15-.26.56-.39,4.31-1.38,8.3-.81,4.83,2.19C238.89,119.27,234.32,120.82,231.94,120.55Z"/><path class="cls-7" d="M206.22,132.39c-1.56-.07-1.56-1.48.82-2.84a6.07,6.07,0,0,1,3.79-1c1-.09,1.25.52.53,1.3C210.33,131,207.83,132.47,206.22,132.39Z"/><path class="cls-7" d="M163.37,157.51c-5.65,1.6-8.88.22-6.38-3,2.7-3.44,9.4-6.6,14.22-6.82,2.39-.11,4.26.64,3.66,2.11C174.94,152,169,155.91,163.37,157.51Z"/><path class="cls-6" d="M186.93,143.68c-5.65,1.6-8.88.23-6.37-3,2.69-3.44,9.39-6.61,14.21-6.83,2.39-.11,4.26.64,3.66,2.12C198.5,138.16,192.59,142.08,186.93,143.68Z"/><path class="cls-7" d="M132.33,167.31c-5.66,1.6-8.89.22-6.38-3,2.69-3.44,9.39-6.6,14.22-6.82,2.38-.12,4.26.64,3.65,2.11C143.89,161.78,138,165.71,132.33,167.31Z"/><path class="cls-6" d="M128.32,177.18c-.41-1.22,2.62-3.49,5.84-4.41a4.93,4.93,0,0,1,2.76-.2c1.91,0,1.77,1.33-.77,2.9C133.41,177.16,128.75,178.43,128.32,177.18Z"/><path class="cls-7" d="M130.24,188.79c3.41-1.84,2.13-3.23-.46-2.73a7.54,7.54,0,0,0-2.12.8,4.69,4.69,0,0,0-.64.31,3.76,3.76,0,0,0-1.76,1.82c-.21.6,0,1,.87,1.13A9.16,9.16,0,0,0,130.24,188.79Z"/><path class="cls-7" d="M138,196.41c3.41-1.83,2.13-3.22-.46-2.72a7.43,7.43,0,0,0-2.12.8,4.69,4.69,0,0,0-.64.31,3.76,3.76,0,0,0-1.76,1.82c-.21.6,0,1,.86,1.13A9.06,9.06,0,0,0,138,196.41Z"/><path class="cls-7" d="M146.3,204.9c2.61-1.4,1.63-2.47-.35-2.09a6,6,0,0,0-1.63.61,4.4,4.4,0,0,0-.49.24,2.85,2.85,0,0,0-1.34,1.4c-.16.46,0,.8.66.86A7,7,0,0,0,146.3,204.9Z"/><path class="cls-5" d="M205.94,206.12l.47-.48c2-2.27,3.62-4.47,5.54-6.72s3.79-4.44,5.67-6.66c3.92-4.62,7.78-9.22,11.39-13.79,7.23-9.13,13.42-18,17.69-26.45,4.35-8.57,6.77-16.55,11.07-25.09a43,43,0,0,1,3.29-5.93,14.58,14.58,0,0,1,6.49-5.54c4.91-2.08,6.73.07,7.63,1.17,1.88,2.27,2,5.34.75,8.89-2.67,7.6-9.8,16.39-17.59,25.21s-16.2,17.92-23.94,26.83c-6.81,7.84-13.8,15.76-22.18,23.82-.84,1-1.91,1.91-2.72,2.86a8.58,8.58,0,0,1-2.29,2C206.5,206.63,205.52,206.56,205.94,206.12Z"/><path class="cls-31" d="M223.57,172.94c-.62.87-1.27,1.74-2,2.63a1.57,1.57,0,0,1,.23.09C222.45,174.75,223,173.84,223.57,172.94Z"/><path class="cls-7" d="M17,246.3c-2,.57-3.14.09-2.26-1a8,8,0,0,1,5-2.4c.84-.05,1.51.21,1.29.73C21.13,244.35,19,245.73,17,246.3Z"/><path class="cls-7" d="M32.4,236.33c-3.71,1-5.83.17-4.19-1.91s6.16-4.3,9.33-4.46c1.56-.08,2.8.4,2.4,1.35C40,232.71,36.11,235.27,32.4,236.33Z"/><path class="cls-7" d="M80.52,216.83c-1.61.46-2.54.08-1.82-.83a6.46,6.46,0,0,1,4.06-1.95c.68,0,1.22.18,1,.59C83.83,215.25,82.14,216.37,80.52,216.83Z"/></g></g></g></svg>