<svg xmlns="http://www.w3.org/2000/svg" xmlns:xlink="http://www.w3.org/1999/xlink" viewBox="0 0 307.2 334.71"><defs><style>.cls-1{isolation:isolate;}.cls-2{fill:#221f1f;stroke:#eee8d2;stroke-width:4px;}.cls-19,.cls-2,.cls-20,.cls-28{stroke-miterlimit:10;}.cls-3{fill:url(#linear-gradient);}.cls-4{fill:#ffda22;}.cls-5{fill:#f93a3a;}.cls-6{fill:#ba2025;}.cls-7{fill:#ffc10d;}.cls-8{fill:url(#linear-gradient-2);}.cls-9{fill:url(#linear-gradient-3);}.cls-10{fill:url(#linear-gradient-4);}.cls-11{fill:url(#linear-gradient-5);}.cls-12{fill:url(#linear-gradient-6);}.cls-13{fill:url(#linear-gradient-7);}.cls-14{fill:url(#linear-gradient-8);}.cls-15,.cls-18{mix-blend-mode:multiply;}.cls-15{fill:url(#linear-gradient-9);}.cls-16{fill:url(#linear-gradient-10);}.cls-17{fill:url(#linear-gradient-11);}.cls-18{fill:url(#linear-gradient-12);}.cls-19{fill:#895800;stroke:#473300;}.cls-20,.cls-26{fill:#e476ff;}.cls-20{stroke:#47201f;}.cls-21{fill:#9d13bf;}.cls-22{fill:#7a3819;}.cls-23{fill:#83381b;}.cls-24{fill:#550f0e;}.cls-25{fill:#f4c813;}.cls-27{fill:#f3ba19;}.cls-28,.cls-30{fill:#ece5e3;}.cls-28{stroke:#5f4d45;}.cls-29{fill:#0b1e34;}.cls-31{fill:#fdbd2c;}</style><linearGradient id="linear-gradient" x1="10629.41" y1="-9864.89" x2="10835.82" y2="-9864.89" gradientTransform="matrix(0, 0.61, -0.7, 0.16, -6757.44, -4789.83)" gradientUnits="userSpaceOnUse"><stop offset="0.01" stop-color="#e68625"/><stop offset="1" stop-color="#f9a748"/></linearGradient><linearGradient id="linear-gradient-2" x1="180.72" y1="35.28" x2="174.86" y2="33.38" gradientTransform="matrix(1, 0.06, -0.06, 1, 47.28, -0.85)" xlink:href="#linear-gradient"/><linearGradient id="linear-gradient-3" x1="148.15" y1="64.06" x2="131.45" y2="58.64" gradientTransform="matrix(1, 0.06, -0.06, 1, 47.28, -0.85)" xlink:href="#linear-gradient"/><linearGradient id="linear-gradient-4" x1="114.02" y1="68.54" x2="97.32" y2="63.12" gradientTransform="matrix(1, 0.06, -0.06, 1, 47.28, -0.85)" xlink:href="#linear-gradient"/><linearGradient id="linear-gradient-5" x1="111.47" y1="92.89" x2="102.76" y2="90.06" gradientTransform="matrix(1, 0.06, -0.06, 1, 47.28, -0.85)" xlink:href="#linear-gradient"/><linearGradient id="linear-gradient-6" x1="9099.63" y1="-7522.4" x2="9091.76" y2="-7524.95" gradientTransform="matrix(-0.01, 0.82, -0.92, 0.21, -6758.11, -5745.53)" xlink:href="#linear-gradient"/><linearGradient id="linear-gradient-7" x1="9127.48" y1="-7532.08" x2="9119.61" y2="-7534.64" gradientTransform="matrix(-0.01, 0.82, -0.92, 0.21, -6758.11, -5745.53)" xlink:href="#linear-gradient"/><linearGradient id="linear-gradient-8" x1="9158.12" y1="-7543.26" x2="9152.08" y2="-7545.22" gradientTransform="matrix(-0.01, 0.82, -0.92, 0.21, -6758.11, -5745.53)" xlink:href="#linear-gradient"/><linearGradient id="linear-gradient-9" x1="9229.76" y1="-7603.65" x2="9075.68" y2="-7653.67" gradientTransform="matrix(-0.01, 0.82, -0.92, 0.21, -6758.11, -5745.53)" xlink:href="#linear-gradient"/><linearGradient id="linear-gradient-10" x1="62.64" y1="152.33" x2="57.87" y2="150.79" gradientTransform="matrix(1, 0.06, -0.06, 1, 47.28, -0.85)" xlink:href="#linear-gradient"/><linearGradient id="linear-gradient-11" x1="13984.26" y1="-6731.35" x2="14190.67" y2="-6731.35" gradientTransform="matrix(0.26, 0.51, -0.65, 0.38, -7888.74, -4345.62)" xlink:href="#linear-gradient"/><linearGradient id="linear-gradient-12" x1="11736.86" y1="-5230.12" x2="11582.78" y2="-5280.14" gradientTransform="matrix(0.34, 0.68, -0.86, 0.51, -8294.74, -5135)" xlink:href="#linear-gradient"/></defs><g class="cls-1"><g id="Layer_1" data-name="Layer 1"><g id="Butterfly_02"><path class="cls-2" d="M201.09,246.59c12.28-7.25,24-26.81,29.52-34.89,7.31-10.72,14.45-21.6,21.17-32.54,16.62-27.08,31.15-55.27,40.54-83.72,7.14-21.62,12.84-45,8.43-64.94-1.65-7.47-5.42-14.18-12.34-17.84-8.42-4.45-20.23-2.59-30.83,1-13.78,4.63-27.31,12.59-40.26,19.8-14.27,7.93-37.72,12.69-52.48,13-26.93.6-48.74,24.23-48.53,48.23.11,13.13,19.73,46,24.78,57,5.78,12.52,11.12,25.28,17.21,37.61s12.63,24.22,17.46,37.27c2.76,7.5,5.06,22.15,15.79,22.79A17.07,17.07,0,0,0,201.09,246.59Z"/><path class="cls-3" d="M174.57,252.6a70.14,70.14,0,0,1-17.08.76c-11.3-.6-21.9-3-32.47-5.26a201.11,201.11,0,0,1-56.67-21.64,144,144,0,0,1-23.23-16.2c-6.41-5.49-12.74-11.57-16.92-18.82s-5.2-16.52,3-25.05c6.77-7.07,17-10.67,25.8-13.06a166.36,166.36,0,0,1,47.28-5.4c8.06.21,16.08,1.14,22.87,3.95s11.6,7.37,15.87,12.51c9.67,11.61,15.82,26.09,22.24,39.75,3.15,6.73,6.23,13.5,9.34,20.25,1.6,3.46,3.15,6.94,4.81,10.36,1.36,2.81,3.51,5.54,3.61,8.94C183.11,247.94,179.53,251.64,174.57,252.6Z"/><path class="cls-4" d="M200,180.76c-1.38,5.9-1.19,11.65-1.1,17.3.13,8.1.46,16.26-1,24.67-.07.4-.15.79-.23,1.19,2.4-5.22,4.83-10.45,6.92-15.74,3.1-7.86,6.25-15.64,8.86-23.55,1.43-4.35,2.68-8.76,4.08-13.14C212.09,165,201.92,172.44,200,180.76Z"/><path class="cls-5" d="M265.63,61c-.38-3.71-3.57-14.28-10.57-10C249.2,54.63,250,65.86,250,70.27c.1,7.52,1.4,14.7,1.31,22.27-.19,18.31-2.53,37.65-10.63,56.59a10.8,10.8,0,0,1,1.72,2.59,15.23,15.23,0,0,1,1,8.33c.28-2.75,2.87-6.86,4-9.67q1.94-4.94,3.7-9.89,3.62-10.25,6.35-20.53a233.91,233.91,0,0,0,7-40.27c.51-6.21,1.75-12.61,1.19-18.6C265.64,61.07,265.63,61,265.63,61Z"/><path class="cls-5" d="M247.37,64.11c-3.44-6.45-12.49-9.76-21.58-5.3C212,65.6,215,79.17,217.39,88.13c3.6,13.68,7.22,26.52,6.89,41.59a200.38,200.38,0,0,1-2.74,31c2.72-5.72,7.23-12.52,13.52-13.63a5.72,5.72,0,0,1,3.2.32c11.09-26.61,9.84-52.62,9.21-78.11C247.44,68,247.35,66.19,247.37,64.11Z"/><path class="cls-5" d="M192.48,93.84c.06.12.14.22.2.34a.92.92,0,0,1-.13,1,82.78,82.78,0,0,0,2.55,14.53c5.05,20.4,8.34,41.12,5.66,63.5a16.56,16.56,0,0,1,5-4.58c4.67-2.72,8.74-3.13,11.84-1.47a176.46,176.46,0,0,0,3.21-22.49c.88-9.59,1.43-19.34.39-28.48-.95-8.3-3.44-15.92-5.58-23.74-1.53-5.6-3.74-11.88-3.09-18.32h-.06c-4.16-.5-10.75-1.11-14.93,2.59a15.45,15.45,0,0,0-4.78,9.92A41.5,41.5,0,0,0,192.48,93.84Z"/><path class="cls-5" d="M160.32,100.37c-4.7,9-3.07,17.77-.88,25.53,3.12,11.07,7.67,21.42,11.26,32.26A122.88,122.88,0,0,1,175,173.79c.41,2.16.65,4.39.9,6.61a15.32,15.32,0,0,1,2.24-1.29c6.28-3,13.59-3.51,18.91-1.35a144,144,0,0,0-.38-45.91c-1.71-10.17-5.1-19.67-6.66-29.9-.32-2.12-.67-4.47-.85-6.93C183.75,86.38,166.61,88.33,160.32,100.37Z"/><path class="cls-4" d="M191.58,237.92c2-8.85,4.15-17.65,4.3-26.4.15-8.52-.82-17,.32-25.68a37.54,37.54,0,0,1,.94-4.75c-5.44-2.64-16.49-1.58-21.32,3a200.73,200.73,0,0,1,8.79,25.39,125.24,125.24,0,0,1,3.61,17.88A70.7,70.7,0,0,0,190,237.54c.23.85.49,1.72.78,2.59C191,239.39,191.3,238.66,191.58,237.92Z"/><path class="cls-4" d="M220.65,170.5c-1.35,4.22-2.44,8.47-3.76,12.63a283.45,283.45,0,0,1-12.15,31.53c-3.53,7.79-7.36,15.56-10.3,23.41-.37,1.57-.72,3.15-1,4.72.48-2.34,5.43-7.21,7.09-9.47,2.37-3.22,4.72-6.45,7-9.71,4.67-6.63,9.16-13.34,13.39-20.13,5.44-8.76,11.06-17.54,15-26.69,3.2-7.43,7.11-18.54,2.79-24.44-2.85-3.88-6.76-2.74-10.23,2A54.66,54.66,0,0,0,220.65,170.5Z"/><path class="cls-2" d="M174.57,252.6a70.14,70.14,0,0,1-17.08.76c-11.3-.6-21.9-3-32.47-5.26a201.11,201.11,0,0,1-56.67-21.64,144,144,0,0,1-23.23-16.2c-6.41-5.49-12.74-11.57-16.92-18.82s-5.2-16.52,3-25.05c6.77-7.07,17-10.67,25.8-13.06a166.36,166.36,0,0,1,47.28-5.4c8.06.21,16.08,1.14,22.87,3.95s11.6,7.37,15.87,12.51c9.67,11.61,15.82,26.09,22.24,39.75,3.15,6.73,6.23,13.5,9.34,20.25,1.6,3.46,3.15,6.94,4.81,10.36,1.36,2.81,3.51,5.54,3.61,8.94C183.11,247.94,179.53,251.64,174.57,252.6Z"/><path class="cls-5" d="M108.56,170.49l.39.48a.42.42,0,0,1,0,.1,44.41,44.41,0,0,0,6.1,6.15c6,5.32,12.83,9.95,19,15.19a244.23,244.23,0,0,1,27.62,27.33c4.08,4.77,8.29,9.61,11.62,14.92,2.87,4.56,5.35,9.36,7.93,14.09a7.7,7.7,0,0,0,1.75-5.06c-.1-3.4-2.25-6.13-3.61-8.94-1.66-3.42-3.21-6.9-4.81-10.36-3.11-6.75-6.19-13.52-9.34-20.25-1-2.09-2-4.2-2.94-6.31-2.69-3.71-4.15-8.43-6.85-12.08-4.18-5.66-9.27-10.35-14.47-15.17-4.16-3.85-8.82-7.5-14.49-9.68-4.57-1.76-11.64-3.3-17.35.34C105.25,163.7,106.29,167.29,108.56,170.49Z"/><path class="cls-5" d="M180.49,249.57c-3.77-6.84-7.38-13.72-12.15-19.93a220.8,220.8,0,0,0-16.21-18.83,270.39,270.39,0,0,0-32-28.15c-4.28-3.22-9.14-6.76-12.09-11.29h0c-3.55-4.67-9-8.21-14.59-10.84s-13.23-5.59-20.75-3c-2.77,1-6.24,3-7.5,5.65a6.46,6.46,0,0,0,.59,6.37c2.14,3.52,5.56,6.23,9.17,8.57.33.09.61.16.86.21a.35.35,0,0,1,.27.51c.57.36,1.15.71,1.73,1.06,7.49,4.49,15.73,8.08,23.63,12.08,9,4.54,17.82,9.29,26.28,14.48,1.24.63,2.46,1.27,3.66,1.95a.27.27,0,0,1,.12.42q2.53,1.62,5,3.28a230.53,230.53,0,0,1,23.73,18.43c.44.33.9.65,1.35,1a.39.39,0,0,1,.12.35q3.68,3.33,7.19,6.81a96.49,96.49,0,0,1,7.63,9c.81,1,1.63,2.06,2.49,3.06A10.66,10.66,0,0,0,180.49,249.57Z"/><path class="cls-5" d="M138.84,218.57c-6.73-3.32-14.85-7.23-23.76-6.4-3.57.33-7.76,1.79-10.13,5-3.51,4.81-1.09,9.68,1.33,13,5.69,7.89,14.49,14.12,23.47,18.82l.18.1c9,1.89,18,3.72,27.56,4.22a70.14,70.14,0,0,0,17.08-.76,11.84,11.84,0,0,0,3.58-1.3c-2.06-2.39-3.93-4.92-5.87-7.4A84.45,84.45,0,0,0,162,233.49c-.8-.72-1.6-1.44-2.41-2.15A143.36,143.36,0,0,0,138.84,218.57Z"/><path class="cls-4" d="M124.73,206c-7.61-3.56-15.91-6.79-25-7.82-7.36-.82-18.85.11-22.45,9.31-2.32,5.94.89,11.3,4.07,15.15A52,52,0,0,0,93.18,232.9a220.8,220.8,0,0,0,25.21,13.67c2.19.55,4.41,1.06,6.63,1.53l1.66.35a80.06,80.06,0,0,1-15.76-11.54c-4.22-4-12.53-12.09-6.93-19.76,4.61-6.32,12.52-6.53,18.4-5.51,8.53,1.47,16,5.3,22.86,9.23,2.44,1.39,4.82,2.86,7.16,4.37q-2-1.63-4-3.22A229.71,229.71,0,0,0,127,207.15C126.25,206.77,125.49,206.4,124.73,206Z"/><path class="cls-5" d="M46,185.48c.33,0,.46.29.39.57.45.52.93,1,1.42,1.49a47.29,47.29,0,0,0,10.09,7,84.6,84.6,0,0,0,20.93,8.34.41.41,0,0,1,.27.2,18,18,0,0,1,8.56-5.1c8.6-2.39,17.42-.09,24.44,2.14,2.73.86,5.42,1.83,8,2.89-.85-.49-1.7-1-2.56-1.46-10.15-5.7-20.81-10.72-31.26-16a122.22,122.22,0,0,1-11.93-6.68c-6.83-2-29.37-11.72-30.58.06a8.87,8.87,0,0,0,2.12,6.56Z"/><path class="cls-5" d="M45.31,186.52c-4.85.9-3.33,5.43-2.08,7.95a43.82,43.82,0,0,0,6.71,9.62c3.4,3.81,8,6.59,12.55,9.29,6.32,3.76,12.9,7.22,18.95,11.29A23.49,23.49,0,0,1,76,215.32a12.15,12.15,0,0,1,2.52-11.61h0a82.82,82.82,0,0,1-23.18-9.57C52.09,192.22,47.94,189.77,45.31,186.52Z"/><path class="cls-6" d="M282.24,34.2c2.88-.21,6-1.75,6.52-4.86a6.06,6.06,0,0,0-2.84-5.76,8.9,8.9,0,0,0-3.92-1,6.11,6.11,0,0,0-6.19,7.22C276.37,32.58,278.94,34.44,282.24,34.2Z"/><path class="cls-7" d="M246.25,37c-2.54-2-1.11-6.77,2.61-8.58a7.38,7.38,0,0,1,1.25-.47c0-.24.13-.46.54-.51,4.38-.48,8.6,3,5.25,7.47C253.38,38.22,248.76,38.92,246.25,37Z"/><path class="cls-8" d="M220.51,47.61c-1.63-1-1.77-4.08.59-5.63a3,3,0,0,1,3.86.07c1,.4,1.36,1.84.68,3.11C224.67,47,222.19,48.7,220.51,47.61Z"/><path class="cls-9" d="M181,77.8c-5.76.18-9.26-4.63-6.94-10.06,2.48-5.83,9.18-8.77,14.2-6.48,2.47,1.13,4.5,3.83,4,6.65C192.56,72.58,186.76,77.61,181,77.8Z"/><path class="cls-10" d="M146.66,80.1c-5.76.18-9.26-4.62-6.94-10,2.48-5.84,9.18-8.78,14.2-6.48,2.47,1.13,4.5,3.82,4,6.64C158.21,74.88,152.42,79.91,146.66,80.1Z"/><path class="cls-11" d="M143.42,99c-.55-2.86,2.4-6,5.67-6.11A3.31,3.31,0,0,1,152,94.05c2,1,2,3.86-.53,5.78C148.73,101.88,144,101.92,143.42,99Z"/><path class="cls-12" d="M146.52,125c3.39-2,1.92-5.7-.74-6.11a3.18,3.18,0,0,0-2.13.49,2.65,2.65,0,0,0-.65.29,4.21,4.21,0,0,0-1.66,2.92,3,3,0,0,0,1,2.91C143.43,126.31,145.16,125.8,146.52,125Z"/><path class="cls-13" d="M155.32,145.83c3.38-2,1.92-5.7-.75-6.12a3.26,3.26,0,0,0-2.13.5,2.59,2.59,0,0,0-.64.29,4.17,4.17,0,0,0-1.66,2.92,3,3,0,0,0,1,2.91C152.22,147.13,154,146.62,155.32,145.83Z"/><path class="cls-14" d="M164.82,168.83c2.59-1.52,1.47-4.36-.56-4.69a2.58,2.58,0,0,0-1.64.38,2,2,0,0,0-.5.23,3.19,3.19,0,0,0-1.26,2.23,2.26,2.26,0,0,0,.77,2.23C162.45,169.82,163.78,169.43,164.82,168.83Z"/><path class="cls-5" d="M227.22,205.72l.44-.77c1.92-3.69,3.36-7.52,5.15-11.24s3.54-7.35,5.29-11c3.65-7.66,7.24-15.34,10.58-23.05a277.68,277.68,0,0,0,16-46.63c3.72-15.88,5.5-31.62,9.18-47.49a86.8,86.8,0,0,1,2.87-10.84c1-2.82,2.67-7,6.24-8.17,4.94-1.63,7,4,8.09,6.9a40.44,40.44,0,0,1,1.63,19.52c-2.07,14.78-8.68,29.55-16,44-7.39,14.64-15.21,29.16-22.45,43.84-6.37,12.91-12.91,25.89-20.9,38.38-.79,1.57-1.82,3-2.57,4.58a7,7,0,0,1-2.21,2.89C227.85,207.14,226.82,206.42,227.22,205.72Z"/><path class="cls-15" d="M242.48,144.62c-.57,1.51-1.16,3-1.8,4.51l.24.32C241.48,147.86,242,146.25,242.48,144.62Z"/><path class="cls-7" d="M33.77,183.42a2.41,2.41,0,0,1-2.46-3.5,4,4,0,0,1,5-2.28A2.25,2.25,0,0,1,37.75,180C37.85,181.58,35.8,183.34,33.77,183.42Z"/><path class="cls-6" d="M48.86,170.84c-3.78.13-6.07-3-4.56-6.5,1.63-3.78,6-5.7,9.32-4.22a4.19,4.19,0,0,1,2.64,4.29C56.44,167.44,52.64,170.71,48.86,170.84Z"/><path class="cls-16" d="M97.26,156.64a2,2,0,0,1-2-2.83A3.21,3.21,0,0,1,99.34,152a1.82,1.82,0,0,1,1.15,1.87C100.57,155.15,98.91,156.58,97.26,156.64Z"/><path class="cls-2" d="M213.27,236.19c9.54-10.38,13.29-30.75,15.52-39.4,3-11.47,5.68-23,7.93-34.45,5.58-28.32,8.54-56.81,6.12-83.68C241,58.25,236.93,36.86,224,22a28.93,28.93,0,0,0-20.24-10.32c-10.53-.66-21.87,5.11-31.24,11.85-12.18,8.75-22.69,20.17-32.94,30.76-11.28,11.66-33.33,24-48.35,29.54C63.8,93.94,51.42,121.28,61.82,141c5.69,10.81,39.76,31,49.61,38.21,11.23,8.28,22.13,16.91,33.61,24.92s23.24,15.48,33.73,24.54c6,5.2,14.59,16.49,25.87,13.18A19.12,19.12,0,0,0,213.27,236.19Z"/><path class="cls-17" d="M188.6,250.65a89.38,89.38,0,0,1-17.21,6.74c-11.86,3.55-23.78,5.32-35.57,7.27a275.89,275.89,0,0,1-67.35,2.4A190.6,190.6,0,0,1,37.74,262c-8.9-2.24-18-5-25.35-9.5S.05,240.7,4.81,230.74c4-8.27,12.91-14.89,21-20A204.12,204.12,0,0,1,72,189.34c8.37-2.72,17-4.82,25.15-4.93s15,1.94,21.6,4.66c14.85,6.13,27.3,15.89,39.69,24.89,6.09,4.43,12.12,8.92,18.18,13.38,3.11,2.29,6.17,4.61,9.32,6.84,2.59,1.83,6,3.32,7.51,6.09C195.39,243.74,193.29,248.08,188.6,250.65Z"/><path class="cls-4" d="M184.22,182.19c1.09,5.38,3.72,10.06,6.21,14.7,3.56,6.64,7.37,13.27,9.39,20.75.1.35.18.71.28,1.06.24-5.17.52-10.36.42-15.48-.15-7.6-.21-15.16-.89-22.62-.38-4.11-1-8.2-1.39-12.32C190,164.83,182.69,174.63,184.22,182.19Z"/><path class="cls-5" d="M200.84,59.77c-2-2.93-9.72-10.52-15.09-4.47-4.49,5.07,1.05,14.08,3,17.71,3.28,6.17,7.67,11.65,10.79,17.93,7.57,15.2,13.36,32,13.08,50.56a12.1,12.1,0,0,1,2.86,1.53,13.1,13.1,0,0,1,4.61,6.5c-.89-2.36,0-6.69,0-9.41-.07-3.18-.19-6.35-.4-9.49a192.83,192.83,0,0,0-2.19-19.24,175.26,175.26,0,0,0-9.91-35.77c-2.1-5.31-3.55-11.05-6.66-15.79Z"/><path class="cls-5" d="M183.41,68.86c-6.27-4.1-17-3.59-24.41,3.34-11.31,10.56-2.41,20.67,3.81,27.23,9.5,10,18.66,19.33,24.71,31.9a154.22,154.22,0,0,1,10.33,26.59c.37-5.7,2.12-12.94,8.1-16.1a7.59,7.59,0,0,1,3.42-.88c.11-26-12.21-47-23.67-67.84C185.14,72.07,184.26,70.58,183.41,68.86Z"/><path class="cls-5" d="M139.66,113.07l.35.2a.74.74,0,0,1,.29.89,74.84,74.84,0,0,0,8.78,11.09c13.84,15.05,26,31,32.75,50.44a14,14,0,0,1,3.21-5.58c3.64-3.93,7.64-5.71,11.53-5.46a133.68,133.68,0,0,0-6.25-19.73c-3.16-8.24-6.73-16.48-11.68-23.66-4.49-6.52-10.28-11.93-15.79-17.62-3.94-4.08-8.87-8.48-10.94-14l-.06,0c-4.48,1.07-11.51,2.93-14.23,7.47a11.54,11.54,0,0,0-.7,9.91A32.78,32.78,0,0,0,139.66,113.07Z"/><path class="cls-5" d="M109.41,130c-1,9.09,4.39,15.78,9.93,21.41,7.89,8,16.95,15,25.24,22.62a115,115,0,0,1,11,11.39c1.34,1.63,2.53,3.39,3.73,5.14a15.69,15.69,0,0,1,1.74-1.88c5.19-4.71,12.47-7.75,18.85-7.88A116,116,0,0,0,160.06,143c-6.07-7.79-13.58-14.43-19.51-22.32-1.23-1.64-2.59-3.46-3.82-5.42C127.54,110,110.77,117.77,109.41,130Z"/><path class="cls-4" d="M199.84,232.43c-1.73-8-3.22-16.07-6.78-23.35-3.47-7.09-8-13.72-10.56-21.34a26.14,26.14,0,0,1-1.06-4.25c-6.7-.24-17.59,4.59-20.61,10.1a195.43,195.43,0,0,1,19.79,17.83,112.38,112.38,0,0,1,11.29,13.49,61,61,0,0,0,6.1,7.79c.59.62,1.23,1.24,1.9,1.86C199.87,233.85,199.86,233.14,199.84,232.43Z"/><path class="cls-4" d="M201.09,166.32c.4,4,1.08,7.87,1.5,11.78a207.08,207.08,0,0,1,.89,30.4c-.32,7.7-.95,15.49-.65,23,.29,1.43.61,2.86.94,4.27-.5-2.1,2.52-7.9,3.27-10.36q1.61-5.26,3.08-10.53c2-7.15,3.75-14.3,5.21-21.43,1.87-9.18,3.92-18.45,4.08-27.42.14-7.28-.56-17.86-7.49-21.19-4.58-2.19-8.11.16-9.67,5.3A40,40,0,0,0,201.09,166.32Z"/><path class="cls-2" d="M188.6,250.65c-5.47,3-8.11,3.42-13.5,6-8.88,4.28-24,8.14-35.79,10.08-22.8,3.77-49.45,2.11-70.84.31A190.6,190.6,0,0,1,37.74,262c-8.9-2.24-18-5-25.35-9.5S.05,240.7,4.81,230.74c4-8.27,12.91-14.89,21-20A204.12,204.12,0,0,1,72,189.34c8.37-2.72,17-4.82,25.15-4.93s15,1.94,21.6,4.66c14.85,6.13,27.3,15.89,39.69,24.89,6.09,4.43,12.12,8.92,18.18,13.38,3.11,2.29,6.17,4.61,9.32,6.84,2.59,1.83,6,3.32,7.51,6.09C195.39,243.74,193.29,248.08,188.6,250.65Z"/><path class="cls-5" d="M86,206.43l.59.25a.71.71,0,0,1,.09.07,55.47,55.47,0,0,0,8.87,2.9c8.47,2.23,17.39,3.63,25.91,5.76a307.54,307.54,0,0,1,40,12.69c6.21,2.49,12.59,5,18.26,8.18,4.88,2.74,9.46,5.81,14.12,8.81a3.63,3.63,0,0,0-.42-3.77c-1.54-2.77-4.91-4.26-7.5-6.09-3.15-2.23-6.15-5.6-9.26-7.89-6.06-4.46-12.09-9-18.18-13.38l-5.7-4.17c-4.33-2.1-7.82-5.48-12.14-7.53-6.71-3.18-13.92-5.24-21.3-7.35a61,61,0,0,0-19-2.82c-5.44.19-13.35,1.44-17.67,6.49C79.74,202,82.32,204.59,86,206.43Z"/><path class="cls-5" d="M85.8,207.35c-5.62-2.59-12.73-3.56-19.57-3.74s-16,.11-22.56,5c-2.43,1.79-5.15,4.67-5.31,7.34-.14,2.36,1.45,4,3.31,5.06,3.7,2.14,8.36,3.15,13,3.79.38,0,.7-.08,1-.13s.51.12.5.32c.74.1,1.48.18,2.22.26,9.6,1,19.58,1,29.38,1.52,11.16.54,22.24,1.3,33.12,2.56,1.54.08,3.07.17,4.59.31.25,0,.33.15.31.3,2.18.29,4.36.59,6.52.92a300.5,300.5,0,0,1,32.17,6.74l1.8.32a.35.35,0,0,1,.27.24q5.19,1.44,10.27,3A114.37,114.37,0,0,1,188.51,246c1.27.56,2.54,1.12,3.85,1.63a8.41,8.41,0,0,0,1-1.56c-6.76-4.3-13.39-8.69-20.93-12.11a263.2,263.2,0,0,0-24.62-9.76A346.93,346.93,0,0,0,103,212.35"/><path class="cls-5" d="M137.48,235.31c-8.31-.33-18.31-.66-27.1,3.22-3.53,1.55-7.21,4.25-8.27,7.78-1.57,5.23,3,8.39,6.89,10.29,9.19,4.48,20.87,6.47,32.08,7.15.07,0,2.31-.35,2.38-.35,10-1.64,19.6-4.37,29.62-7.37,5.74-1.71,9.47-4.48,14.94-7.48,1.23-.68,2.86.62,3.71-.26-3.13-1.23-6.13-2.65-9.17-4a107.47,107.47,0,0,0-15-4.91l-3.38-.91A194.46,194.46,0,0,0,137.48,235.31Z"/><path class="cls-4" d="M117.68,230c-9.32-.22-19.21.08-29,2.5-7.91,2-19.31,6.84-19.11,15.73.14,5.74,5.71,9,10.61,11.06a66.4,66.4,0,0,0,16.52,4.19,296.06,296.06,0,0,0,31.67,2.28c2.49-.34,5-.7,7.46-1.11l1.86-.3a106.16,106.16,0,0,1-21.08-3.9c-6-1.81-18-5.51-15.49-13.85,2-6.87,10.08-9.87,16.55-11.14,9.38-1.83,18.67-1.34,27.38-.55,3.1.28,6.16.64,9.2,1.05q-2.72-.63-5.46-1.23c-9.23-2-18.68-3.5-28.3-4.62C119.55,230.07,118.62,230,117.68,230Z"/><path class="cls-5" d="M28.12,241.21a.44.44,0,0,1,.64.33c.68.27,1.39.51,2.1.72a62.39,62.39,0,0,0,13.34,2.2,115.14,115.14,0,0,0,25-.59.57.57,0,0,1,.36.06,17.39,17.39,0,0,1,6.63-7.27c7.82-5,17.84-6.31,26-7,3.18-.27,6.34-.42,9.49-.49l-3.25-.29c-12.84-1.07-25.91-1.41-38.89-2.06-5.08-.26-10.18-.55-15.09-1.25-7.85.8-35.12.82-31.37,11a8.61,8.61,0,0,0,5,4.66Z"/><path class="cls-5" d="M27.87,242.31c-4.59,2.47-1.11,5.67,1.24,7.31a50.54,50.54,0,0,0,11,5.54c5.12,1.94,11,2.58,16.83,3.19,8.08.85,16.3,1.35,24.24,2.54a25.81,25.81,0,0,1-9.54-5.77,9.34,9.34,0,0,1-2.33-10.5h0a113.27,113.27,0,0,1-27.85.39C37.25,244.59,32,244.05,27.87,242.31Z"/><path class="cls-6" d="M206.52,31.67c2.87-1.2,5.44-3.6,4.63-6.35-.62-2.1-2.9-3.31-5.35-3.74a11.77,11.77,0,0,0-4.44.61c-4.34,1.49-5.51,5.53-3.29,8.18C199.81,32.43,203.23,33.05,206.52,31.67Z"/><path class="cls-7" d="M170.75,46.85c-3.45-.72-4-5.2-1-8a9.25,9.25,0,0,1,1.08-.84c-.11-.19-.06-.42.34-.61,4.29-2,10.12-.56,8.56,4.29C178.6,45.31,174.15,47.55,170.75,46.85Z"/><path class="cls-7" d="M148.84,64.84A2.89,2.89,0,0,1,147.05,60a3.77,3.77,0,0,1,4-1.32,2,2,0,0,1,2,2.33C152.83,62.82,151,65.14,148.84,64.84Z"/><path class="cls-7" d="M117.77,104.2c-5.83,2.22-11.47-.5-11.39-5.82.07-5.71,5.7-10.54,11.83-10.43,3,0,6.25,1.54,6.94,4C127.41,95.76,123.6,102,117.77,104.2Z"/><path class="cls-6" d="M134.84,82.53c-5.84,2.21-11.47-.5-11.4-5.82.08-5.71,5.71-10.54,11.83-10.44,3,0,6.25,1.55,6.94,4.06C144.48,74.09,140.67,80.32,134.84,82.53Z"/><path class="cls-7" d="M86.79,118.11c-5.83,2.21-11.46-.51-11.39-5.82.08-5.71,5.71-10.54,11.83-10.44,3,.05,6.25,1.55,6.94,4.05C96.44,109.66,92.62,115.9,86.79,118.11Z"/><path class="cls-6" d="M91.48,134.88c-1.78-2.16-.08-5.81,3.23-7.08a4.46,4.46,0,0,1,3.44-.06c2.45.09,3.66,2.49,1.9,5C98.15,135.36,93.29,137.1,91.48,134.88Z"/><path class="cls-7" d="M105.7,155.26c2.63-2.84-.45-5.39-3.36-4.78a3.72,3.72,0,0,0-2,1.17,2.64,2.64,0,0,0-.54.47,3.15,3.15,0,0,0-.46,3,2.88,2.88,0,0,0,2.27,2C103.07,157.45,104.63,156.41,105.7,155.26Z"/><path class="cls-7" d="M123.56,169.32c2.63-2.85-.45-5.39-3.36-4.79a3.79,3.79,0,0,0-2,1.17,2.7,2.7,0,0,0-.54.48,3.18,3.18,0,0,0-.47,3,2.94,2.94,0,0,0,2.28,2C120.93,171.5,122.49,170.46,123.56,169.32Z"/><path class="cls-7" d="M143.07,184.92c2-2.18-.34-4.13-2.57-3.67a2.83,2.83,0,0,0-1.52.9,1.74,1.74,0,0,0-.41.36,2.43,2.43,0,0,0-.36,2.3,2.24,2.24,0,0,0,1.74,1.57A3.79,3.79,0,0,0,143.07,184.92Z"/><path class="cls-5" d="M222.77,193.07l.13-.79c.4-3.73.26-7.41.52-11.13s.52-7.34.75-11c.5-7.63.93-15.26,1.09-22.83.31-15.15-.52-30-3.38-44.24C219,88.62,214.12,75,211.16,60.55a64.47,64.47,0,0,1-1.65-10c-.13-2.7-.22-6.73,3-9,4.38-3.12,8.93.81,11.23,2.81a34,34,0,0,1,9.94,15.54c4.15,12.95,3.63,27.52,2.26,42.08-1.38,14.74-3.24,29.54-4.45,44.26-1.07,12.94-2.28,26-5.19,39.19-.14,1.57-.58,3.14-.69,4.7a5.43,5.43,0,0,1-1,3.18C224,194,222.66,193.79,222.77,193.07Z"/><path class="cls-18" d="M212.53,137.13c.05,1.45.08,2.9.06,4.37l.38.18C212.87,140.16,212.72,138.65,212.53,137.13Z"/><path class="cls-7" d="M14.7,243.87c-2,.79-4-.15-4-2a4.1,4.1,0,0,1,4.19-3.68,2.48,2.48,0,0,1,2.44,1.4C18.12,240.89,16.76,243.08,14.7,243.87Z"/><path class="cls-7" d="M24.87,228.08c-3.82,1.46-7.5-.29-7.43-3.74.06-3.71,3.76-6.87,7.77-6.82,2,0,4.09,1,4.53,2.6C31.21,222.55,28.69,226.62,24.87,228.08Z"/><path class="cls-7" d="M68.54,199c-1.66.64-3.27-.12-3.24-1.62a3.31,3.31,0,0,1,3.39-3,2,2,0,0,1,2,1.14C71.3,196.62,70.21,198.39,68.54,199Z"/><path class="cls-19" d="M215.42,249.3s.05-4.07,3.57-3.06,9.39,21.7,9.39,21.7l12.9,1.27a13.6,13.6,0,0,1,8.05,7.55c4.28,10.31.31,9.11-7.4-1.23-.41-.55-1.76,3.87-2.19,3.27s.18-6.06-.21-6.61l-11.39,1.37a3.34,3.34,0,0,1-3.49-2Z"/><path class="cls-19" d="M186.2,294.47l.09-.05c1.86-.9,8.68-1,13,.13,0,0-4.29-10.58-6.47-15.22-.23-.49,3.44-2.82,3.44-2.82s6.37,18.71,4,19.4c-1.57.45-10.68-.53-10.68-.53,5,4.12,10.54,12,10.17,15.87C197.43,314.79,188.49,301.7,186.2,294.47Z"/><path class="cls-20" d="M208.72,264.06q-1.22,3.09-2.63,5.89a60.1,60.1,0,0,1-15,19.06,58.37,58.37,0,0,1-29.94,13.15,50.24,50.24,0,0,1-12.34.15c-7.22-.83-13.06-3.33-16.07-7-3.57-4.28-3.2-10.13,3.45-16.62q1.83-1.78,3.77-3.46c1.93-1.66,3.94-3.26,6-4.78A136.68,136.68,0,0,1,166.94,258c2.57-1.26,5.13-2.43,7.66-3.52a215.41,215.41,0,0,1,37.73-12.26C229,244.28,208.72,264.06,208.72,264.06Z"/><path class="cls-21" d="M196.7,250.8c2.2,11.08,6.94,15.89,6.29,21.33-.94,7.87-8.45,14-11.85,16.88a58.37,58.37,0,0,1-29.94,13.15,50.24,50.24,0,0,1-12.34.15c-7.22-.83-13.06-3.33-16.07-7h0c29.92-1.33,64.74-13.86,57.59-25.88-11.95-20.11.81-22.26.81-22.26Z"/><path class="cls-20" d="M237.11,221.82a211.4,211.4,0,0,0-2.43,21.23c-.93,10.77-2.1,19.74-8.44,26.88-12.16,13.68-22.46,11.61-30.71,6-12.71-8.59-9.7-24-9.7-24a3.21,3.21,0,0,1,.25-1.25h0c2-5.15,14.74-16.95,21.87-14.83,14.75,4.37,17.8-26.42,17.8-26.42C230.38,202.62,237.11,221.82,237.11,221.82Z"/><path class="cls-21" d="M234.68,243.05c-.93,10.77-2.1,19.74-8.44,26.88-12.16,13.68-22.46,11.61-30.71,6-12.71-8.59-9.7-24-9.7-24s.29,9.53,22.21,11.34c0,0,14.88.94,20.73-9.88l.9-14.15Z"/><path class="cls-21" d="M232.64,256.3s-23.49.47-30.09-19.8l9.22-12.45,21.54,20.35"/><path class="cls-20" d="M267.57,228.84s3.43-34.67-27.31-33.93c-7.59.18-30.55,3.13-29.45,33.62-1.35,3.67-6.68,20,28.35,24.57,1.7,1.21,8.83,6.55,12.48-.85C252.64,252.16,275.77,249,267.57,228.84Z"/><path class="cls-22" d="M210.94,228.89c.69-1.22,1.88-3.66,1.9-3.68s-1.62,2.18-2.31,3.4Z"/><path class="cls-23" d="M251.4,253.21a14.57,14.57,0,0,0,1-3.19,30.48,30.48,0,0,1-1.41,2.86Z"/><path class="cls-23" d="M239.65,253.77l.29-.43c-2.24-1.84-4.83-3.57-4.83-3.57S237.41,251.93,239.65,253.77Z"/><path class="cls-24" d="M251.09,203.6s-7.51-5.38-9.08,5.39A9.67,9.67,0,0,1,251.09,203.6Z"/><path class="cls-24" d="M263,206.37s-2.59-3.78-5.14,1A4.78,4.78,0,0,1,263,206.37Z"/><path class="cls-23" d="M264.63,231.43a4.45,4.45,0,0,0,2.23-1.41,4.1,4.1,0,0,1-4.65.46l-.22.46A3.38,3.38,0,0,0,264.63,231.43Z"/><path class="cls-25" d="M244.74,218.16l12-12.48s-2.63,8.79,2.9,20.45c2.33,4.9,6.07,8.46.44,11.38-11.84,6.15-19.4-2.58-19.4-2.58Z"/><path class="cls-26" d="M244.74,218.16l12.05-12.69s-2.67,9,2.86,20.66c2.33,4.9,6.07,8.46.44,11.38-11.84,6.15-19.4-2.58-19.4-2.58Z"/><path class="cls-23" d="M255.57,239.51a20.71,20.71,0,0,0,4.63-1.75c1.71-.9,2.69-1.91,3-3.12.44-1.78-.64-3.71-1.89-5.94-.48-.86-1-1.75-1.43-2.69-5.41-11.41-2.9-20.14-2.88-20.23a7.14,7.14,0,0,0-1,3.51,34.21,34.21,0,0,0,3.47,17c.46,1,1,1.85,1.44,2.72,1.19,2.12,2.22,4,1.84,5.52-.26,1.05-1.15,2-2.74,2.79-11.55,6-19-2.43-19.12-2.52l-.33.36a15.09,15.09,0,0,0,5.35,3.67A15.52,15.52,0,0,0,255.57,239.51Z"/><path class="cls-27" d="M242.33,233.3h-.05l0,0Z"/><path class="cls-26" d="M235.92,232.13l6.36,1.16c-.28.48-2.55,3.85-7.92,2.62Z"/><path class="cls-23" d="M242.32,233.24l-.06.08-.18.22c-.09.09-.18.21-.3.32l-.41.38a2.73,2.73,0,0,1-.25.2,2.94,2.94,0,0,1-.26.2,7.07,7.07,0,0,1-.61.38,7.18,7.18,0,0,1-.68.34c-.24.1-.49.18-.73.26s-.51.14-.76.18-.51.09-.76.11l-.71.05h-.94l-.26,0-.43,0h-.38l.37.12.42.12.26.07.3,0a6.32,6.32,0,0,0,.67.1l.75,0a2.8,2.8,0,0,0,.4,0l.4,0c.27,0,.54-.12.81-.18s.53-.18.78-.29a5.47,5.47,0,0,0,.71-.41,2.27,2.27,0,0,0,.32-.22l.29-.24a4.48,4.48,0,0,0,.48-.5l.2-.24.16-.23a3.54,3.54,0,0,0,.23-.39A3.28,3.28,0,0,0,242.32,233.24Z"/><g id="eye"><path class="cls-28" d="M244,221.18c.76,5.84,4.16,10.34,7.19,10s4.88-5.33,4.12-11.16-3.83-10.3-6.86-10S243.21,215.34,244,221.18Z"/><path class="cls-29" d="M251.17,229.07c1.68,0,3.05-2.42,3.05-5.39s-1.37-5.39-3.05-5.39-3,2.42-3,5.39S249.49,229.07,251.17,229.07Z"/><ellipse class="cls-30" cx="252.02" cy="220.75" rx="1.05" ry="1.58"/></g><g id="eye-2" data-name="eye"><path class="cls-28" d="M257.85,218.42c1.1,4.64,4.22,8,6.63,7.46s3.48-4.7,2.37-9.33-4-8-6.36-7.45S256.74,213.79,257.85,218.42Z"/><path class="cls-29" d="M264.31,224.17c1.35-.14,2.25-2.2,2-4.6s-1.56-4.22-2.91-4.08-2.25,2.21-2,4.6S263,224.31,264.31,224.17Z"/><ellipse class="cls-30" cx="264.29" cy="217.4" rx="0.85" ry="1.28" transform="translate(-21.22 28.73) rotate(-5.98)"/></g><path class="cls-19" d="M255.59,200.44c-.21.43-1.45.25-1.48-.75s6.83-14.1,22.94-16.33c5.61-.78,12.27,1.42,15.44,4.67,1.6,1.63,2.32,3.88,1.22,5.62-2.57,4-8.27-7.06-17.38-6.92C266.3,186.87,258.39,194.63,255.59,200.44Z"/><path class="cls-31" d="M292.46,191.19s-5.38-10.56-18.92-6C273.38,185.24,282.78,182.24,292.46,191.19Z"/><path class="cls-19" d="M237.55,198.28a.88.88,0,0,1-1.61.16c-.47-.86-.18-16.05,12.89-26.86,4.56-3.77,11.33-5.51,15.51-4.42,2.1.54,3.71,2.11,3.5,4.23-.47,5-10.28-1.6-18.17,3.52C241,180.56,237.47,191.67,237.55,198.28Z"/><path class="cls-31" d="M267.24,170.32s-8.82-7-19.42,3.43C247.71,173.91,255.12,166.76,267.24,170.32Z"/><path class="cls-19" d="M182.85,273.49c-1-1.62-2.57-.53-2.44,1.6.15,2.37,3.47,12.67,8,27.47-3.06-.19-13.41-1.3-17.34,1.19-2.37,1.51-1.92,6.15-.2,9.85s6.76,11.56,9.32,11,3.52-9.46-6.15-20.4c9.39-.25,15.37,1.19,15.74-.19C191.62,297,184.42,276,182.85,273.49Z"/><path class="cls-19" d="M205.36,258.76s0-4.06,3.57-3.06,9.39,21.71,9.39,21.71l12.9,1.27s4.49-.24,5.3.14c.16.08-2,1.59-1.8,1.69.5.26-.58-.42,0,0a13.31,13.31,0,0,1,4.55,5.72c4.7,11.33-.56,8.76-9.8-4.57L218.08,283a3.35,3.35,0,0,1-3.49-2Z"/></g></g></g></svg>