<svg xmlns="http://www.w3.org/2000/svg" xmlns:xlink="http://www.w3.org/1999/xlink" viewBox="0 0 307.2 334.71"><defs><style>.cls-1{isolation:isolate;}.cls-2{fill:#221f1f;stroke:#eee8d2;stroke-width:4px;}.cls-19,.cls-2,.cls-20,.cls-27{stroke-miterlimit:10;}.cls-3{fill:url(#linear-gradient);}.cls-4{fill:#ffda22;}.cls-5{fill:#f93a3a;}.cls-6{fill:#ba2025;}.cls-7{fill:#ffc10d;}.cls-8{fill:url(#linear-gradient-2);}.cls-9{fill:url(#linear-gradient-3);}.cls-10{fill:url(#linear-gradient-4);}.cls-11{fill:url(#linear-gradient-5);}.cls-12{fill:url(#linear-gradient-6);}.cls-13{fill:url(#linear-gradient-7);}.cls-14{fill:url(#linear-gradient-8);}.cls-15,.cls-18{mix-blend-mode:multiply;}.cls-15{fill:url(#linear-gradient-9);}.cls-16{fill:url(#linear-gradient-10);}.cls-17{fill:url(#linear-gradient-11);}.cls-18{fill:url(#linear-gradient-12);}.cls-19{fill:#895800;stroke:#473300;}.cls-20,.cls-25{fill:#e476ff;}.cls-20{stroke:#47201f;}.cls-21{fill:#9d13bf;}.cls-22{fill:#83381b;}.cls-23{fill:#550f0e;}.cls-24{fill:#f4c813;}.cls-26{fill:#f3ba19;}.cls-27,.cls-29{fill:#ece5e3;}.cls-27{stroke:#5f4d45;}.cls-28{fill:#0b1e34;}.cls-30{fill:#fdbd2c;}</style><linearGradient id="linear-gradient" x1="10773.05" y1="-9401.62" x2="10979.46" y2="-9401.62" gradientTransform="matrix(0.03, 0.59, -0.66, 0.2, -6417.98, -4334.91)" gradientUnits="userSpaceOnUse"><stop offset="0.01" stop-color="#e68625"/><stop offset="1" stop-color="#f9a748"/></linearGradient><linearGradient id="linear-gradient-2" x1="182.62" y1="18.05" x2="176.76" y2="16.15" gradientTransform="matrix(0.96, -0.01, -0.01, 0.97, 38.07, 34.16)" xlink:href="#linear-gradient"/><linearGradient id="linear-gradient-3" x1="150.05" y1="46.84" x2="133.35" y2="41.42" gradientTransform="matrix(0.96, -0.01, -0.01, 0.97, 38.07, 34.16)" xlink:href="#linear-gradient"/><linearGradient id="linear-gradient-4" x1="115.92" y1="51.32" x2="99.22" y2="45.89" gradientTransform="matrix(0.96, -0.01, -0.01, 0.97, 38.07, 34.16)" xlink:href="#linear-gradient"/><linearGradient id="linear-gradient-5" x1="113.37" y1="75.66" x2="104.66" y2="72.84" gradientTransform="matrix(0.96, -0.01, -0.01, 0.97, 38.07, 34.16)" xlink:href="#linear-gradient"/><linearGradient id="linear-gradient-6" x1="9289.66" y1="-7171.49" x2="9281.78" y2="-7174.04" gradientTransform="matrix(0.04, 0.8, -0.87, 0.27, -6474.02, -5325.04)" xlink:href="#linear-gradient"/><linearGradient id="linear-gradient-7" x1="9317.51" y1="-7181.17" x2="9309.63" y2="-7183.73" gradientTransform="matrix(0.04, 0.8, -0.87, 0.27, -6474.02, -5325.04)" xlink:href="#linear-gradient"/><linearGradient id="linear-gradient-8" x1="9348.14" y1="-7192.35" x2="9342.11" y2="-7194.31" gradientTransform="matrix(0.04, 0.8, -0.87, 0.27, -6474.02, -5325.04)" xlink:href="#linear-gradient"/><linearGradient id="linear-gradient-9" x1="9419.79" y1="-7252.74" x2="9265.71" y2="-7302.76" gradientTransform="matrix(0.04, 0.8, -0.87, 0.27, -6474.02, -5325.04)" xlink:href="#linear-gradient"/><linearGradient id="linear-gradient-10" x1="64.54" y1="135.11" x2="59.77" y2="133.56" gradientTransform="matrix(0.96, -0.01, -0.01, 0.97, 38.07, 34.16)" xlink:href="#linear-gradient"/><linearGradient id="linear-gradient-11" x1="14206.69" y1="-6155.87" x2="14413.1" y2="-6155.87" gradientTransform="matrix(0.15, 0.55, -0.71, 0.24, -6409.03, -6148.01)" xlink:href="#linear-gradient"/><linearGradient id="linear-gradient-12" x1="11985.77" y1="-4794.21" x2="11831.69" y2="-4844.23" gradientTransform="matrix(0.2, 0.74, -0.94, 0.32, -6662.73, -7064.23)" xlink:href="#linear-gradient"/></defs><g class="cls-1"><g id="Layer_1" data-name="Layer 1"><path class="cls-2" d="M200.36,246.4c11.33-7.84,21.48-27.56,26.3-35.75,6.39-10.86,12.62-21.86,18.43-32.9,14.4-27.32,26.73-55.57,34.15-83.72,5.64-21.39,9.81-44.42,4.51-63.39-2-7.11-5.95-13.34-12.76-16.42-8.28-3.73-19.46-1.13-29.39,3-12.9,5.42-25.39,14-37.36,21.87C191,47.76,168.91,54,154.83,55.27c-25.68,2.4-45.22,26.73-43.71,49.92.83,12.7,21.35,43.17,26.78,53.44,6.19,11.72,12,23.7,18.48,35.22s13.38,22.57,18.7,34.87c3,7.06,6,21.08,16.32,21A16.24,16.24,0,0,0,200.36,246.4Z"/><path class="cls-3" d="M175.37,254a65.85,65.85,0,0,1-16.27,1.89c-10.82.19-21.08-1.46-31.29-2.89a188.93,188.93,0,0,1-55.3-17.1,135.75,135.75,0,0,1-23.07-14.1c-6.42-4.88-12.8-10.34-17.19-17.07s-5.86-15.63,1.47-24.43c6.08-7.3,15.64-11.46,23.92-14.38a158.48,158.48,0,0,1,44.86-8.41c7.71-.34,15.41,0,22,2.27s11.48,6.35,15.85,11c9.86,10.58,16.52,24.17,23.39,36.95,3.39,6.3,6.69,12.64,10,19,1.72,3.23,3.38,6.5,5.15,9.69,1.46,2.63,3.67,5.13,3.95,8.4C183.27,248.92,180.06,252.74,175.37,254Z"/><path class="cls-4" d="M195.71,182.79c-1,5.81-.5,11.35-.1,16.82.56,7.82,1.33,15.7.35,23.93,0,.39-.1.78-.15,1.16,2-5.21,4-10.43,5.74-15.69,2.54-7.81,5.12-15.55,7.18-23.37,1.13-4.31,2.08-8.66,3.18-13C206.41,166.71,197.12,174.62,195.71,182.79Z"/><path class="cls-5" d="M251.88,62.54c-.57-3.57-4.19-13.57-10.64-8.95-5.4,3.88-4.07,14.69-3.78,19,.5,7.27,2.13,14.13,2.47,21.45.81,17.73-.37,36.59-7.08,55.47a10,10,0,0,1,1.79,2.38,14.86,14.86,0,0,1,1.45,8c.11-2.68,2.37-6.83,3.27-9.63,1-3.26,2.06-6.54,3-9.81q2.9-10.15,5-20.29a230.35,230.35,0,0,0,4.46-39.42c.16-6,1-12.32.13-18.07C251.89,62.58,251.88,62.56,251.88,62.54Z"/><path class="cls-5" d="M234.61,66.77c-3.64-6-12.46-8.6-20.9-3.67-12.83,7.5-9.16,20.41-6.42,28.92,4.18,13,8.34,25.16,8.84,39.76a195.9,195.9,0,0,1-.92,30.17c2.29-5.72,6.22-12.61,12.17-14.1a5.37,5.37,0,0,1,3.07.1c9.14-26.49,6.53-51.57,4.54-76.19C234.89,70.55,234.7,68.77,234.61,66.77Z"/><path class="cls-5" d="M183.81,99.23c.07.11.15.2.21.31a.92.92,0,0,1-.07,1,81.84,81.84,0,0,0,3.23,13.88c5.93,19.39,10.21,39.21,8.87,61.05a16.05,16.05,0,0,1,4.54-4.77c4.32-3,8.18-3.62,11.23-2.23a174.84,174.84,0,0,0,1.84-22c.31-9.34.31-18.8-1.19-27.58-1.35-8-4.15-15.16-6.61-22.58-1.77-5.31-4.22-11.24-4-17.51h-.06c-4-.2-10.33-.35-14.11,3.51a15.27,15.27,0,0,0-4,9.92A40.54,40.54,0,0,0,183.81,99.23Z"/><path class="cls-5" d="M153.45,107.71c-4,9-1.95,17.4.56,24.76,3.58,10.49,8.49,20.2,12.51,30.44a117.88,117.88,0,0,1,4.94,14.84c.51,2.05.86,4.19,1.22,6.33a15.92,15.92,0,0,1,2.07-1.41c5.84-3.31,12.79-4.3,18-2.58a141,141,0,0,0-2.86-44.38c-2.19-9.72-6-18.68-8-28.47-.42-2-.89-4.28-1.19-6.64C175.07,92.61,158.81,95.65,153.45,107.71Z"/><path class="cls-4" d="M190.81,238.65c1.4-8.69,3-17.35,2.67-25.82-.33-8.25-1.71-16.35-1.1-24.87a37.19,37.19,0,0,1,.64-4.65c-5.34-2.19-15.83-.41-20.19,4.34a195.82,195.82,0,0,1,9.78,24A122.26,122.26,0,0,1,187,228.67a67.42,67.42,0,0,0,2.21,9.73c.26.8.56,1.63.88,2.45C190.34,240.12,190.58,239.39,190.81,238.65Z"/><path class="cls-4" d="M214.9,171.47c-1.07,4.18-1.88,8.36-2.9,12.47a280.42,280.42,0,0,1-9.89,31.32c-2.94,7.78-6.18,15.55-8.56,23.34-.27,1.55-.51,3.1-.74,4.64.34-2.29,4.8-7.34,6.26-9.64,2.09-3.27,4.16-6.56,6.17-9.87,4.1-6.72,8-13.51,11.69-20.37,4.72-8.84,9.61-17.72,12.87-26.83,2.65-7.4,5.78-18.42,1.33-23.83-2.93-3.56-6.6-2.19-9.66,2.6A54,54,0,0,0,214.9,171.47Z"/><path class="cls-2" d="M178.24,254.22c-5.47,1.48-13,2-18.18,2.06-10.83.18-22-1.85-32.25-3.28a188.93,188.93,0,0,1-55.3-17.1,135.75,135.75,0,0,1-23.07-14.1c-6.42-4.88-12.8-10.34-17.19-17.07s-5.86-15.63,1.47-24.43c6.08-7.3,15.64-11.46,23.92-14.38a158.48,158.48,0,0,1,44.86-8.41c7.71-.34,15.41,0,22,2.27s11.48,6.35,15.85,11c9.86,10.58,16.52,24.17,23.39,36.95,3.39,6.3,6.69,12.64,10,19,1.72,3.23,3.38,6.5,5.15,9.69,1.46,2.63,4.78,6.74,5.06,10C184.38,250.54,182.93,253,178.24,254.22Z"/><path class="cls-5" d="M107.86,179l.39.44s0,.06,0,.09a41.88,41.88,0,0,0,6.16,5.54c6.07,4.73,12.79,8.76,18.94,13.41a231.61,231.61,0,0,1,27.87,24.56,124.5,124.5,0,0,1,11.91,13.66c3,4.22,5.62,8.68,8.34,13.09a7.67,7.67,0,0,0,1.4-5c-.28-3.27-2.49-5.77-3.95-8.4-1.77-3.19-3.43-6.46-5.15-9.69-3.34-6.32-6.64-12.66-10-19-1-1.95-2.1-3.93-3.15-5.91-2.77-3.4-4.41-7.87-7.19-11.22-4.31-5.19-9.42-9.39-14.65-13.69-4.18-3.44-8.83-6.67-14.36-8.39-4.47-1.39-11.3-2.41-16.56,1.5C104.33,172.7,105.51,176.09,107.86,179Z"/><path class="cls-5" d="M180.85,250.67c-4-6.36-7.79-12.77-12.69-18.45a206.59,206.59,0,0,0-16.5-17.12A253.77,253.77,0,0,0,119.54,190c-4.27-2.83-9.1-5.92-12.17-10.1h0c-3.64-4.28-9-7.34-14.52-9.5s-12.94-4.52-20-1.46c-2.58,1.13-5.79,3.28-6.85,6a6.33,6.33,0,0,0,.91,6.13c2.24,3.26,5.66,5.65,9.23,7.67a6.25,6.25,0,0,0,.83.14.34.34,0,0,1,.29.48c.56.31,1.13.61,1.7.91,7.4,3.83,15.47,6.76,23.23,10.09,8.83,3.78,17.53,7.78,25.88,12.23,1.22.52,2.43,1.06,3.61,1.64a.28.28,0,0,1,.14.4c1.66.92,3.32,1.86,4.95,2.83a215,215,0,0,1,23.66,16.23c.45.28.9.56,1.34.85a.35.35,0,0,1,.14.32q3.69,3,7.24,6.1a88.9,88.9,0,0,1,7.77,8.24c.83.94,1.67,1.88,2.55,2.78A9.33,9.33,0,0,0,180.85,250.67Z"/><path class="cls-4" d="M139.39,223.5c-6.6-2.76-14.58-6-23-4.59-3.39.57-7.31,2.26-9.4,5.56-3.09,4.88-.51,9.43,2,12.5,5.87,7.25,14.62,12.68,23.44,16.62l.18.08c8.66,1.23,17.4,2.38,26.55,2.22A65.85,65.85,0,0,0,175.37,254c1.23-.33,2.86-2.05,3.85-2.69-2.1-2.18-4.53-3.3-6.51-5.57a80.14,80.14,0,0,0-10.42-9.37c-.8-.65-1.6-1.28-2.41-1.92A134.61,134.61,0,0,0,139.39,223.5Z"/><path class="cls-4" d="M125.23,212.33c-7.46-2.93-15.56-5.49-24.33-5.87-7.08-.3-18,1.38-20.93,10.52-1.9,5.91,1.46,10.88,4.71,14.38a48.55,48.55,0,0,0,11.9,9.08c7.83,4.46,14.8,5.86,23.35,9.31a7.08,7.08,0,0,1,2.86.95c.54.07,1.38-.09,1.91,0-5.68-2.77-6.24-3.57-11-7.57-4.26-3.6-12.64-10.84-7.7-18.64,4.06-6.42,11.59-7.16,17.27-6.57,8.22.85,15.56,4,22.33,7.38,2.4,1.18,4.75,2.44,7.07,3.74-1.32-1-2.65-1.9-4-2.84a214.58,214.58,0,0,0-21.26-12.94Z"/><path class="cls-5" d="M48.91,197.77c.32-.06.46.25.41.52a16.55,16.55,0,0,0,1.44,1.34,44.17,44.17,0,0,0,10,6.13,78.84,78.84,0,0,0,20.43,6.66.38.38,0,0,1,.27.17,17.52,17.52,0,0,1,7.9-5.51c8.09-2.89,16.63-1.26,23.45.42,2.66.65,5.28,1.41,7.84,2.25l-2.52-1.24c-10-4.82-20.46-9-30.73-13.4a114.68,114.68,0,0,1-11.76-5.65C69,188,47,180.1,46.46,191.58a8.52,8.52,0,0,0,2.39,6.2Z"/><path class="cls-5" d="M48.33,198.82c-4.58,1.19-2.88,5.48-1.56,7.83a41.92,41.92,0,0,0,6.94,8.85c3.45,3.46,8,5.83,12.48,8.13,6.25,3.22,12.72,6.12,18.72,9.64a22.46,22.46,0,0,1-5.7-8.67A12,12,0,0,1,81,213.2h0a77.73,77.73,0,0,1-22.66-7.69C55.11,203.87,51,201.78,48.33,198.82Z"/><path class="cls-6" d="M266.27,35.48c2.74-.4,5.66-2.1,6-5.15a5.78,5.78,0,0,0-3-5.37,8.27,8.27,0,0,0-3.79-.67,6,6,0,0,0-5.52,7.4C260.58,34.31,263.14,35.93,266.27,35.48Z"/><path class="cls-7" d="M232.06,40.6c-2.54-1.73-1.43-6.48,2-8.48a7.15,7.15,0,0,1,1.17-.54c0-.23.1-.46.49-.53,4.15-.76,8.38,2.36,5.42,6.87C238.94,41.31,234.56,42.3,232.06,40.6Z"/><path class="cls-8" d="M208.06,52.62c-1.62-.91-1.91-3.83.26-5.49a2.82,2.82,0,0,1,3.68-.19c1,.32,1.4,1.69.82,3C212,51.72,209.73,53.56,208.06,52.62Z"/><path class="cls-9" d="M172,84.48c-5.48.57-9.09-3.84-7.17-9.25,2.05-5.81,8.29-9.11,13.2-7.23,2.43.93,4.52,3.4,4.2,6.16C182.73,78.66,177.47,83.92,172,84.48Z"/><path class="cls-10" d="M139.31,89c-5.49.57-9.09-3.84-7.18-9.25,2.05-5.81,8.29-9.11,13.21-7.23,2.42.93,4.51,3.4,4.19,6.15C150.05,83.2,144.79,88.46,139.31,89Z"/><path class="cls-11" d="M137.24,107.53c-.68-2.73,2-6,5.09-6.29a3.09,3.09,0,0,1,2.8.93c2,.8,2.09,3.6-.19,5.62C142.47,110,137.94,110.32,137.24,107.53Z"/><path class="cls-12" d="M141.63,132.48c3.12-2.14,1.52-5.64-1-5.86a3.12,3.12,0,0,0-2,.62,2.56,2.56,0,0,0-.6.33,4.1,4.1,0,0,0-1.42,2.93,2.84,2.84,0,0,0,1.12,2.75C138.74,134,140.37,133.34,141.63,132.48Z"/><path class="cls-13" d="M151.16,152c3.12-2.13,1.52-5.63-1-5.86a3.16,3.16,0,0,0-2,.62,2.56,2.56,0,0,0-.6.33,4.15,4.15,0,0,0-1.43,2.93,2.9,2.9,0,0,0,1.12,2.76C148.28,153.49,149.9,152.89,151.16,152Z"/><path class="cls-14" d="M161.49,173.63c2.39-1.64,1.17-4.32-.79-4.49a2.44,2.44,0,0,0-1.55.47,2.34,2.34,0,0,0-.46.25,3.2,3.2,0,0,0-1.09,2.25,2.21,2.21,0,0,0,.86,2.11C159.28,174.75,160.53,174.29,161.49,173.63Z"/><path class="cls-5" d="M223.09,205.1l.38-.78c1.63-3.69,2.8-7.49,4.3-11.21s3-7.35,4.46-11c3.06-7.66,6.07-15.33,8.84-23a275.23,275.23,0,0,0,12.7-46.18c2.7-15.62,3.53-31,6.18-46.56a87.06,87.06,0,0,1,2.15-10.68c.84-2.8,2.17-6.94,5.52-8.32,4.63-1.91,6.94,3.42,8.1,6.13a39.4,39.4,0,0,1,2.61,18.76c-1.16,14.44-6.67,29.18-12.85,43.65-6.26,14.66-12.94,29.24-19.05,43.93-5.38,12.92-10.92,25.92-17.87,38.53-.66,1.57-1.56,3-2.2,4.6a6.91,6.91,0,0,1-2,3C223.77,206.43,222.75,205.81,223.09,205.1Z"/><path class="cls-15" d="M234.33,145c-.46,1.5-1,3-1.48,4.49a3.47,3.47,0,0,1,.25.29C233.55,148.17,234,146.58,234.33,145Z"/><path class="cls-7" d="M37.13,196.59a2.29,2.29,0,0,1-2.53-3.21,3.85,3.85,0,0,1,4.67-2.55A2.15,2.15,0,0,1,40.75,193C40.94,194.54,39.08,196.39,37.13,196.59Z"/><path class="cls-6" d="M50.86,183.41c-3.59.38-6-2.47-4.7-6,1.35-3.76,5.44-5.92,8.67-4.71a4,4,0,0,1,2.75,4C57.92,179.6,54.47,183,50.86,183.41Z"/><path class="cls-16" d="M96.31,166.4a1.85,1.85,0,0,1-2-2.6A3.12,3.12,0,0,1,98,161.74a1.76,1.76,0,0,1,1.2,1.74C99.39,164.74,97.88,166.24,96.31,166.4Z"/><path class="cls-2" d="M216.29,245.45c11.44-8.23,19.25-27.41,23.19-35.43,5.22-10.63,10.23-21.38,14.75-32.12,11.21-26.61,19.89-53.9,23-80.7,2.34-20.36,2.69-42.13-7-59.33A28.88,28.88,0,0,0,252.5,23.66c-10.18-2.79-22.46.56-33,5.26C205.8,35,193.19,44.07,181,52.36c-13.42,9.12-37.51,16.72-53.34,19.11-28.88,4.37-46.54,28.62-40.37,50.06C90.67,133.27,120,159.91,128.12,169c9.32,10.38,18.24,21.05,27.86,31.22s19.61,19.88,28,30.88c4.84,6.31,10.95,19.11,22.67,18.15A19.1,19.1,0,0,0,216.29,245.45Z"/><path class="cls-17" d="M189.2,254.6A87.85,87.85,0,0,1,171,257.71c-12.32,1.07-24.35.39-36.3-.1A276,276,0,0,1,68.23,246.3a192.16,192.16,0,0,1-29.05-11.2c-8.27-4-16.6-8.55-22.9-14.45s-9.7-14-3-22.84c5.55-7.29,15.67-12,24.57-15.36a204.18,204.18,0,0,1,49.63-11.54c8.75-1,17.61-1.27,25.63.28s14.33,4.95,20.21,8.94c13.29,9,23.51,21.1,33.81,32.43,5.07,5.57,10.06,11.19,15.09,16.79,2.57,2.87,5.1,5.77,7.74,8.59,2.16,2.32,5.16,4.47,6.11,7.49C197.25,249.22,194.31,253,189.2,254.6Z"/><path class="cls-4" d="M198.79,186.68c0,5.48,1.61,10.6,3.1,15.65,2.15,7.23,4.53,14.49,5,22.23,0,.36,0,.73,0,1.09,1.29-5,2.62-10,3.56-15.07,1.4-7.47,2.87-14.89,3.72-22.33.47-4.1.72-8.22,1.14-12.35C207.94,170.84,198.83,179,198.79,186.68Z"/><path class="cls-5" d="M239.91,70.18c-1.32-3.27-7.38-12.28-13.86-7.44-5.43,4.06-1.84,14-.69,17.94,2,6.72,5.15,13,6.93,19.75,4.33,16.42,6.59,34,2.54,52.17a11.83,11.83,0,0,1,2.5,2.07,13.09,13.09,0,0,1,3.19,7.3c-.39-2.49,1.39-6.54,1.89-9.22.58-3.12,1.1-6.25,1.54-9.37.9-6.46,1.5-12.9,1.76-19.28a175.71,175.71,0,0,0-2.45-37c-1-5.63-1.24-11.54-3.32-16.82Z"/><path class="cls-5" d="M221,75.54c-5.31-5.28-15.89-7-24.58-1.67-13.22,8-6.55,19.74-1.79,27.43C201.89,113,209,124,212.35,137.55a153.87,153.87,0,0,1,4.72,28.13c1.52-5.51,4.7-12.24,11.2-14.12a7.5,7.5,0,0,1,3.53-.17c5.37-25.39-2.42-48.5-9.41-71.23C222,79,221.49,77.4,221,75.54Z"/><path class="cls-5" d="M169.19,110l.3.28a.72.72,0,0,1,.11.92A74.36,74.36,0,0,0,176,123.79c10.49,17.55,19.17,35.62,21.83,56a14,14,0,0,1,4.27-4.81c4.36-3.11,8.65-4.05,12.4-3a134.26,134.26,0,0,0-2.11-20.59c-1.43-8.71-3.25-17.51-6.64-25.55-3.07-7.29-7.64-13.76-11.88-20.45-3-4.8-7-10.1-7.87-16h-.06c-4.61.14-11.87.53-15.45,4.43a11.57,11.57,0,0,0-2.71,9.56A32.91,32.91,0,0,0,169.19,110Z"/><path class="cls-5" d="M136.14,120.36c-2.84,8.7,1.1,16.35,5.38,23,6.1,9.46,13.57,18.09,20.12,27.28A114.29,114.29,0,0,1,170.13,184c1,1.87,1.78,3.83,2.6,5.79a16.28,16.28,0,0,1,2.09-1.48c6-3.56,13.79-5.06,20.06-3.89a116.3,116.3,0,0,0-11.78-41c-4.37-8.86-10.37-16.88-14.58-25.82-.87-1.85-1.84-3.91-2.64-6.08C157.94,104.52,140,108.69,136.14,120.36Z"/><path class="cls-4" d="M203.9,239c-.07-8.2.1-16.38-1.9-24.23-2-7.65-5.09-15.07-6-23a28.39,28.39,0,0,1-.16-4.38c-6.52-1.59-18.17.93-22.24,5.71a195.65,195.65,0,0,1,15.77,21.48,111.5,111.5,0,0,1,8.31,15.49,61.45,61.45,0,0,0,4.39,8.87c.45.72.95,1.46,1.48,2.2C203.64,240.44,203.77,239.74,203.9,239Z"/><path class="cls-4" d="M218.54,174.56c-.41,4-.54,7.93-.93,11.84a205.46,205.46,0,0,1-5.29,29.95c-1.87,7.47-4.08,15-5.31,22.42,0,1.46,0,2.92.05,4.38-.06-2.17,4.07-7.23,5.31-9.49q2.64-4.83,5.15-9.69c3.4-6.6,6.58-13.24,9.45-19.92,3.7-8.61,7.59-17.27,9.56-26,1.61-7.11,3.08-17.61-3-22.27-4-3.07-8-1.5-10.54,3.22A40.05,40.05,0,0,0,218.54,174.56Z"/><path class="cls-2" d="M189.2,254.6c-6,1.83-8.64,1.71-14.45,3.16-9.56,2.39-25.15,3.1-37.09,2.61-23.09-.94-48.84-8-69.43-14.07a192.16,192.16,0,0,1-29.05-11.2c-8.27-4-16.6-8.55-22.9-14.45s-9.7-14-3-22.84c5.55-7.29,15.67-12,24.57-15.36a204.18,204.18,0,0,1,49.63-11.54c8.75-1,17.61-1.27,25.63.28s14.33,4.95,20.21,8.94c13.29,9,23.51,21.1,33.81,32.43,5.07,5.57,10.06,11.19,15.09,16.79,2.57,2.87,5.1,5.77,7.74,8.59,2.16,2.32,5.16,4.47,6.11,7.49C197.25,249.22,194.31,253,189.2,254.6Z"/><path class="cls-5" d="M97.72,190.48l.53.38s0,0,.07.08a55.69,55.69,0,0,0,8.1,4.64c7.84,3.9,16.29,7.08,24.21,10.9A307.29,307.29,0,0,1,167.17,227a154.43,154.43,0,0,1,16.22,11.71c4.22,3.67,8.08,7.61,12,11.48a3.63,3.63,0,0,0,.36-3.77c-.94-3-3.95-5.17-6.11-7.48-2.63-2.83-4.89-6.74-7.46-9.61-5-5.6-10-11.22-15.09-16.79-1.58-1.73-3.16-3.49-4.74-5.24-3.82-2.94-6.55-6.95-10.36-9.84-5.92-4.47-12.56-7.95-19.36-11.52a61.2,61.2,0,0,0-18-6.61c-5.37-.92-13.37-1.3-18.62,2.77C92.47,184.88,94.48,187.94,97.72,190.48Z"/><path class="cls-5" d="M97.32,191.34c-5-3.67-11.75-6.07-18.41-7.63s-15.65-3.13-23.1.31c-2.74,1.26-6,3.53-6.68,6.11-.62,2.29.6,4.19,2.21,5.62,3.19,2.85,7.54,4.79,12,6.37.37,0,.7.06,1,.07s.47.22.43.41c.7.24,1.41.48,2.12.7,9.19,3,19,5,28.46,7.46,10.82,2.79,21.52,5.79,31.91,9.23,1.5.38,3,.79,4.43,1.22.25.08.3.22.25.37,2.07.72,4.14,1.45,6.19,2.22a299.94,299.94,0,0,1,30.14,13.13l1.7.67a.37.37,0,0,1,.21.29q4.8,2.46,9.44,5.08a114.13,114.13,0,0,1,10.46,7c1.13.81,2.27,1.61,3.44,2.38a9.17,9.17,0,0,0,1.33-1.31c-5.76-5.59-11.35-11.24-18-16.11a263.16,263.16,0,0,0-22.13-14.55,344.81,344.81,0,0,0-41.49-20.65"/><path class="cls-5" d="M142.25,229.22c-8.06-2-17.79-4.37-27.19-2.36-3.77.81-7.92,2.71-9.68,5.95-2.59,4.8,1.23,8.81,4.66,11.47,8.09,6.24,19.12,10.57,30,13.51.08,0,2.33.12,2.41.14,10.12.43,20.08-.3,30.5-1.2,6-.52,10.18-2.48,16.14-4.3,1.35-.41,2.68,1.19,3.69.5-2.82-1.84-5.46-3.84-8.16-5.79a106.51,106.51,0,0,0-13.7-7.86l-3.12-1.57A192.17,192.17,0,0,0,142.25,229.22Z"/><path class="cls-4" d="M123.94,220c-9.08-2.11-18.83-3.82-28.92-3.44-8.14.31-20.29,2.77-21.89,11.52-1,5.65,3.75,10,8.14,13a66.83,66.83,0,0,0,15.32,7.46,299.84,299.84,0,0,0,30.55,8.65c2.51.18,5,.33,7.53.43l1.88.08a105.47,105.47,0,0,1-19.84-8.09c-5.55-3-16.51-9-12.37-16.71,3.41-6.3,11.88-7.61,18.47-7.54,9.56.11,18.56,2.47,26.93,5,3,.9,5.9,1.88,8.79,2.9q-2.53-1.17-5.1-2.31c-8.63-3.82-17.58-7.22-26.77-10.27C125.76,220.45,124.86,220.22,123.94,220Z"/><path class="cls-5" d="M34,212.79a.46.46,0,0,1,.57.46c.61.4,1.25.78,1.9,1.13a63.07,63.07,0,0,0,12.62,4.87,115.33,115.33,0,0,0,24.62,4.49.46.46,0,0,1,.33.14,17.38,17.38,0,0,1,8-5.78c8.68-3.36,18.76-2.55,26.87-1.56,3.17.38,6.3.87,9.39,1.45l-3.12-1c-12.36-3.66-25.09-6.63-37.67-9.91-4.92-1.28-9.85-2.6-14.51-4.29-7.86-.8-34.56-6.31-33,4.4.36,2.37,1.93,4.14,3.92,5.57Z"/><path class="cls-5" d="M33.51,213.82c-5,1.49-2.25,5.33-.28,7.41a50.8,50.8,0,0,0,9.61,7.66c4.62,2.93,10.28,4.76,15.83,6.53,7.74,2.47,15.69,4.63,23.23,7.41a25.65,25.65,0,0,1-8.17-7.59,9.3,9.3,0,0,1-.15-10.75s0,0,0,0a112.94,112.94,0,0,1-27.35-5.28C42.22,218,37.14,216.35,33.51,213.82Z"/><path class="cls-6" d="M251.18,43.82c3-.6,6.06-2.42,5.82-5.28-.18-2.18-2.17-3.83-4.48-4.75a12,12,0,0,0-4.47-.31c-4.55.58-6.51,4.3-4.88,7.35C244.45,43.2,247.68,44.5,251.18,43.82Z"/><path class="cls-7" d="M213.07,51.42c-3.23-1.4-2.87-5.91.69-8.05a8.27,8.27,0,0,1,1.23-.61c-.07-.2,0-.43.46-.53,4.6-1,10,1.5,7.51,5.94C221.07,51.51,216.26,52.8,213.07,51.42Z"/><path class="cls-7" d="M188,64.59a2.89,2.89,0,0,1-.77-5.13,3.77,3.77,0,0,1,4.18-.48,2,2,0,0,1,1.5,2.69C192.28,63.43,190,65.32,188,64.59Z"/><path class="cls-7" d="M149.55,96.83c-6.15,1-11.12-2.82-10-8,1.24-5.57,7.73-9.16,13.7-7.82,2.95.66,5.81,2.79,6,5.38C160.71,90.52,155.71,95.85,149.55,96.83Z"/><path class="cls-6" d="M170.66,79.07c-6.15,1-11.12-2.82-10-8,1.24-5.57,7.73-9.16,13.7-7.82,3,.66,5.81,2.79,6,5.38C181.82,72.76,176.82,78.09,170.66,79.07Z"/><path class="cls-7" d="M116.4,104.16c-6.16,1-11.12-2.82-10-8,1.23-5.57,7.72-9.16,13.7-7.82,3,.66,5.81,2.79,6,5.38C127.56,97.85,122.56,103.18,116.4,104.16Z"/><path class="cls-6" d="M117.58,121.54c-1.29-2.48,1.11-5.71,4.61-6.28a4.5,4.5,0,0,1,3.38.63c2.38.59,3.08,3.18.85,5.25C124,123.36,118.91,124.07,117.58,121.54Z"/><path class="cls-7" d="M127.37,144.38c3.16-2.25.66-5.37-2.31-5.37a3.77,3.77,0,0,0-2.18.75,3,3,0,0,0-.62.35,3.18,3.18,0,0,0-1.07,2.85,2.9,2.9,0,0,0,1.81,2.46C124.36,146,126.1,145.28,127.37,144.38Z"/><path class="cls-7" d="M142,161.76c3.16-2.24.66-5.36-2.32-5.36a3.79,3.79,0,0,0-2.18.74,2.62,2.62,0,0,0-.62.36,3.18,3.18,0,0,0-1.06,2.84,2.9,2.9,0,0,0,1.81,2.47C139,163.37,140.74,162.67,142,161.76Z"/><path class="cls-7" d="M158,181c2.42-1.72.5-4.11-1.77-4.11a2.92,2.92,0,0,0-1.67.57,1.9,1.9,0,0,0-.48.27,2.44,2.44,0,0,0-.81,2.18,2.22,2.22,0,0,0,1.38,1.89A3.78,3.78,0,0,0,158,181Z"/><path class="cls-5" d="M234.34,205.16l.28-.76c1.16-3.57,1.77-7.2,2.77-10.79s2-7.08,3-10.62c2-7.38,4-14.76,5.69-22.14,3.39-14.77,5.59-29.51,5.67-44,.08-14.75-1.9-29.08-1.86-43.81a63.79,63.79,0,0,1,.4-10.12c.42-2.67,1.16-6.63,4.71-8.2,4.92-2.16,8.58,2.61,10.43,5A34,34,0,0,1,272,77c1.44,13.53-2,27.69-6.32,41.66-4.34,14.16-9.18,28.27-13.35,42.44-3.67,12.46-7.5,25-13,37.32-.45,1.52-1.2,3-1.63,4.46a5.44,5.44,0,0,1-1.66,2.91C235.37,206.34,234.09,205.84,234.34,205.16Z"/><path class="cls-18" d="M235.66,148.3c-.24,1.43-.51,2.86-.83,4.3.13.08.23.17.34.25C235.39,151.34,235.54,149.83,235.66,148.3Z"/><path class="cls-7" d="M20.29,212.68c-2.17.35-3.92-1-3.51-2.78a4.09,4.09,0,0,1,4.85-2.75c1,.22,2.05,1,2.1,1.86C24.24,210.46,22.47,212.33,20.29,212.68Z"/><path class="cls-7" d="M33.45,199.28c-4,.65-7.28-1.8-6.52-5.17.82-3.62,5.09-6,9-5.11,1.93.42,3.8,1.79,3.9,3.47C40.78,195.15,37.49,198.62,33.45,199.28Z"/><path class="cls-7" d="M82.11,179.69c-1.76.29-3.18-.78-2.84-2.25a3.3,3.3,0,0,1,3.92-2.23c.84.19,1.66.78,1.7,1.51C85.3,177.89,83.87,179.41,82.11,179.69Z"/><path class="cls-19" d="M223.32,249.59s-.2-4.06,3.37-3.28,10.74,21.07,10.74,21.07l13,.45a13.58,13.58,0,0,1,8.51,7c4.93,10,.89,9.08-7.46-.76-.45-.52-1.51,4-2,3.4s-.21-6.05-.62-6.58L237.55,273a3.34,3.34,0,0,1-3.61-1.81Z"/><path class="cls-19" d="M197,296.52l.08,0c1.81-1,8.61-1.52,13-.7,0,0-5-10.28-7.42-14.77-.27-.48,3.25-3,3.25-3s7.55,18.26,5.18,19.11c-1.53.55-10.68.14-10.68.14,5.25,3.79,11.27,11.34,11.14,15.2C209.51,316.1,199.77,303.6,197,296.52Z"/><path class="cls-20" d="M217.57,264.75q-1,3.17-2.26,6a59.93,59.93,0,0,1-13.71,20,58,58,0,0,1-8.67,6.82,58.63,58.63,0,0,1-20.37,8.2,50.92,50.92,0,0,1-12.31.93c-7.26-.37-13.24-2.5-16.48-5.93-3.83-4.05-3.83-9.9,2.4-16.81,1.14-1.26,2.32-2.48,3.54-3.69,1.82-1.78,3.72-3.49,5.69-5.15a136.16,136.16,0,0,1,20.09-13.75c2.48-1.42,5-2.75,7.43-4a215.75,215.75,0,0,1,36.87-14.63C236.52,243.73,217.57,264.75,217.57,264.75Z"/><path class="cls-21" d="M204.73,252.28c2.9,10.91,7.93,15.42,7.63,20.89-.44,7.91-7.54,14.52-10.76,17.6a58,58,0,0,1-8.67,6.82,58.63,58.63,0,0,1-20.37,8.2,50.92,50.92,0,0,1-12.31.93c-7.26-.37-13.24-2.5-16.48-5.93h0c29.78-3.22,63.72-17.92,55.84-29.48-15.83-23.22-.6-22.26-.6-22.26Z"/><path class="cls-20" d="M243.22,220.8c-.92,7.79-.93,14.88-1.08,21.34-.23,10.81-.84,19.83-6.72,27.36-11.26,14.42-21.67,13-30.26,8-13.23-7.78-11.2-23.3-11.2-23.3a3.1,3.1,0,0,1,.18-1.27h0c1.64-5.27,13.64-17.84,20.88-16.19,15,3.43,16.1-27.49,16.1-27.49C235.29,202.06,243.22,220.8,243.22,220.8Z"/><path class="cls-21" d="M242.14,242.14c-.23,10.81-.84,19.83-6.72,27.36-11.26,14.42-21.67,13-30.26,8-13.23-7.78-11.2-23.3-11.2-23.3s.89,9.49,22.88,9.9c0,0,14.92,0,20.07-11.17V238.72Z"/><path class="cls-21" d="M241,255.49s-23.42,2-31.28-17.86l8.4-13,22.79,18.95"/><path class="cls-20" d="M270.91,228S274.34,193.3,243.6,194c-7.59.19-30.54,3.14-29.44,33.62-1.36,3.67-6.69,20,28.34,24.58,1.7,1.21,8.83,6.55,12.49-.85C256,251.29,279.11,248.11,270.91,228Z"/><path class="cls-22" d="M254.74,252.34a14.74,14.74,0,0,0,1-3.19,30.48,30.48,0,0,1-1.41,2.86Z"/><path class="cls-22" d="M243,252.9l.29-.43c-2.24-1.84-4.83-3.57-4.83-3.57S240.75,251.05,243,252.9Z"/><path class="cls-23" d="M254.43,202.73s-7.51-5.38-9.08,5.39A9.65,9.65,0,0,1,254.43,202.73Z"/><path class="cls-23" d="M266.3,205.49s-2.59-3.77-5.14,1A4.82,4.82,0,0,1,266.3,205.49Z"/><path class="cls-22" d="M268,230.56a4.45,4.45,0,0,0,2.23-1.41,4.11,4.11,0,0,1-4.65.46l-.22.46A3.38,3.38,0,0,0,268,230.56Z"/><path class="cls-24" d="M248.08,217.28l12-12.47s-2.63,8.79,2.9,20.45c2.33,4.9,6.07,8.46.44,11.38-11.84,6.14-19.4-2.58-19.4-2.58Z"/><path class="cls-25" d="M248.08,217.28l12-12.69s-2.67,9,2.86,20.67c2.33,4.9,6.07,8.46.44,11.38-11.84,6.14-19.4-2.58-19.4-2.58Z"/><path class="cls-22" d="M258.91,238.64a20.29,20.29,0,0,0,4.63-1.76c1.71-.89,2.69-1.91,3-3.11.44-1.78-.64-3.71-1.89-6-.48-.85-1-1.74-1.42-2.68-5.42-11.41-2.91-20.15-2.89-20.23a7.25,7.25,0,0,0-1,3.5,34.22,34.22,0,0,0,3.47,17c.46,1,1,1.85,1.44,2.72,1.19,2.12,2.22,3.95,1.84,5.52-.26,1-1.15,2-2.74,2.79-11.55,6-19-2.43-19.12-2.52l-.33.36a15.14,15.14,0,0,0,5.35,3.66A15.45,15.45,0,0,0,258.91,238.64Z"/><path class="cls-26" d="M245.67,232.43h0l0,0Z"/><path class="cls-25" d="M239.26,231.26l6.36,1.16c-.28.48-2.55,3.85-7.92,2.62Z"/><path class="cls-22" d="M245.66,232.37l-.06.08c0,.05-.11.12-.18.22l-.3.32-.41.38c-.07.07-.16.13-.24.2s-.17.14-.27.2a7,7,0,0,1-1.29.71c-.24.1-.49.18-.73.27s-.51.14-.76.18-.51.09-.76.11l-.71.05H239l-.26,0-.43,0-.38,0,.37.12.42.13.26.07.3,0,.67.1.75,0a2.8,2.8,0,0,0,.4,0l.4,0c.27,0,.54-.12.81-.18a6.62,6.62,0,0,0,.78-.3,4.47,4.47,0,0,0,.71-.4,3.62,3.62,0,0,0,.32-.22l.29-.24c.18-.17.34-.34.48-.5l.2-.24.16-.23a3.54,3.54,0,0,0,.23-.39A3.28,3.28,0,0,0,245.66,232.37Z"/><g id="eye"><path class="cls-27" d="M247.31,220.31c.76,5.83,4.16,10.34,7.2,10s4.87-5.32,4.11-11.15-3.83-10.31-6.86-10S246.55,214.47,247.31,220.31Z"/><path class="cls-28" d="M254.51,228.2c1.68,0,3.05-2.42,3.05-5.39s-1.37-5.39-3.05-5.39-3,2.42-3,5.39S252.83,228.2,254.51,228.2Z"/><ellipse class="cls-29" cx="255.36" cy="219.88" rx="1.05" ry="1.58"/></g><g id="eye-2" data-name="eye"><path class="cls-27" d="M261.19,217.55c1.1,4.64,4.22,8,6.63,7.46s3.48-4.7,2.38-9.33-4-8-6.37-7.45S260.08,212.92,261.19,217.55Z"/><path class="cls-28" d="M267.65,223.3c1.35-.15,2.25-2.21,2-4.6s-1.56-4.22-2.91-4.08-2.25,2.2-2,4.6S266.3,223.44,267.65,223.3Z"/><ellipse class="cls-29" cx="267.63" cy="216.53" rx="0.85" ry="1.28" transform="translate(-21.11 29.07) rotate(-5.98)"/></g><path class="cls-19" d="M258.93,199.56c-.21.43-1.45.26-1.48-.75s6.83-14.09,22.94-16.33c5.61-.77,12.27,1.43,15.45,4.68,1.59,1.63,2.31,3.88,1.21,5.62-2.57,4.05-8.27-7.06-17.38-6.93C269.64,186,261.73,193.76,258.93,199.56Z"/><path class="cls-30" d="M295.8,190.32s-5.38-10.57-18.92-6C276.72,184.36,286.12,181.37,295.8,190.32Z"/><path class="cls-19" d="M240.89,197.41a.88.88,0,0,1-1.61.16c-.47-.87-.18-16,12.89-26.86,4.56-3.77,11.33-5.51,15.51-4.42,2.1.54,3.71,2.11,3.51,4.23-.48,4.95-10.29-1.61-18.18,3.52C244.33,179.69,240.81,190.8,240.89,197.41Z"/><path class="cls-30" d="M270.58,169.45s-8.82-7.06-19.42,3.43C251.05,173,258.46,165.88,270.58,169.45Z"/><path class="cls-19" d="M192.35,275.81c-1.12-1.56-2.6-.37-2.33,1.74.29,2.35,4.27,12.43,9.7,26.91-3.06,0-13.47-.44-17.23,2.29-2.27,1.65-1.52,6.26.43,9.84s7.48,11.11,10,10.43,2.92-9.66-7.43-20c9.36-.84,15.42.22,15.7-1.19C202.59,298.7,194.08,278.21,192.35,275.81Z"/><path class="cls-19" d="M213.88,259.68s-.2-4.07,3.37-3.28S228,277.47,228,277.47l12.95.45s4.47-.53,5.3-.2c.17.07-1.88,1.71-1.69,1.8.52.23-.61-.39,0,0a13.34,13.34,0,0,1,4.9,5.42c5.41,11,0,8.78-10.06-3.94l-11.29,2.09a3.35,3.35,0,0,1-3.61-1.82Z"/></g></g></svg>